<?xml version="1.0" encoding="UTF-8"?><svg id="Layer_2" xmlns="http://www.w3.org/2000/svg" viewBox="0 0 432 315.21"><defs><style>.cls-1{fill:none;stroke:#1d3a6b;stroke-miterlimit:10;stroke-width:4px;}</style></defs><circle class="cls-1" cx="384.86" cy="147.89" r="18.95"/><line class="cls-1" x1="400.29" y1="128.93" x2="429.71" y2="128.93"/><circle class="cls-1" cx="60.65" cy="294.13" r="18.95"/><path class="cls-1" d="M264.89,238.12l-21.59-7.77c-3.88-1.4-7-4.36-8.59-8.16l-27.14-64.8c-2.29-5.47-7.64-9.03-13.57-9.03H17c-8.13,0-14.71,6.59-14.71,14.71v119.71c0,8.13,6.59,14.71,14.71,14.71h19.44c-.15-1.1-.24-2.22-.24-3.36,0-13.5,10.94-24.44,24.44-24.44s24.44,10.94,24.44,24.44c0,1.14-.08,2.26-.24,3.36h120.72c-.15-1.1-.24-2.22-.24-3.36,0-13.5,10.94-24.44,24.44-24.44s24.44,10.94,24.44,24.44c0,1.14-.08,2.26-.24,3.36h5.93c8.13,0,14.71-6.59,14.71-14.71v-30.81c0-6.2-3.89-11.74-9.73-13.84Z"/><circle class="cls-1" cx="229.77" cy="294.13" r="18.95"/><path class="cls-1" d="M206.22,188.21l16.4,36.24c1,2.2-.61,4.7-3.03,4.7h-30.92c-1.84,0-3.33-1.49-3.33-3.33v-36.24c0-1.84,1.49-3.33,3.33-3.33h14.52c1.31,0,2.49.76,3.03,1.95Z"/><line class="cls-1" x1="92.57" y1="275.17" x2="196.31" y2="275.17"/><line class="cls-1" x1="245.2" y1="275.17" x2="274.62" y2="275.17"/><circle class="cls-1" cx="317.19" cy="233.21" r="18.95"/><path class="cls-1" d="M293.64,127.29l16.4,36.24c1,2.2-.61,4.7-3.03,4.7h-30.92c-1.84,0-3.33-1.49-3.33-3.33v-36.24c0-1.84,1.49-3.33,3.33-3.33h14.52c1.31,0,2.49.76,3.03,1.95Z"/><line class="cls-1" x1="242" y1="214.26" x2="283.73" y2="214.26"/><line class="cls-1" x1="332.62" y1="214.26" x2="362.04" y2="214.26"/><path class="cls-1" d="M361.31,41.97l16.4,36.24c1,2.2-.61,4.7-3.03,4.7h-30.92c-1.84,0-3.33-1.49-3.33-3.33v-36.24c0-1.84,1.49-3.33,3.33-3.33h14.52c1.31,0,2.49.76,3.03,1.95Z"/><line class="cls-1" x1="319.2" y1="128.93" x2="351.4" y2="128.93"/><path class="cls-1" d="M419.98,91.88l-21.59-7.77c-3.88-1.4-7-4.36-8.59-8.16l-27.14-64.8c-2.29-5.47-7.64-9.03-13.57-9.03h-177c-8.13,0-14.71,6.59-14.71,14.71v61.74h127c8.34,0,15.81,4.97,19.03,12.66l25.13,60.02h32.12c-.15-1.1-.24-2.22-.24-3.36,0-13.5,10.94-24.44,24.44-24.44s24.44,10.94,24.44,24.44c0,1.14-.08,2.26-.24,3.36h5.93c8.13,0,14.71-6.59,14.71-14.71v-30.81c0-6.2-3.89-11.74-9.73-13.84Z"/><path class="cls-1" d="M352.31,177.2l-21.59-7.77c-3.88-1.4-7-4.36-8.59-8.16l-27.14-64.8c-2.29-5.47-7.64-9.03-13.57-9.03H104.42c-8.13,0-14.71,6.59-14.71,14.71v37.33h107.25c8.34,0,15.81,4.97,19.03,12.66l27.14,64.8c.95,2.27,2.82,4.05,5.14,4.88l21.59,7.77c3.84,1.38,7.07,3.85,9.44,6.97h13.7c-.15-1.1-.24-2.22-.24-3.36,0-13.5,10.94-24.44,24.44-24.44s24.44,10.94,24.44,24.44c0,1.14-.08,2.26-.24,3.36h5.93c8.13,0,14.71-6.59,14.71-14.71v-30.81c0-6.2-3.89-11.74-9.73-13.84Z"/></svg>