<?xml version="1.0" encoding="UTF-8"?><svg id="Layer_2" xmlns="http://www.w3.org/2000/svg" viewBox="0 0 432 315.21"><defs><style>.cls-1{fill:none;stroke:#1d3a6b;stroke-miterlimit:10;stroke-width:4px;}</style></defs><path class="cls-1" d="M304.33,134s-28.78,26.26-64.54,26.82v51.96s0,20.69,0,20.69c.83,9.14,3.05,19.16,8.38,25.13,11.73,13.13,56.15,39.67,56.15,39.67,0,0,44.42-26.54,56.15-39.67,5.33-5.97,7.55-15.98,8.38-25.13v-72.66c-35.76-.56-64.54-26.82-64.54-26.82Z"/><path class="cls-1" d="M271.71,214.65c8.45,8.07,16.9,16.15,25.34,24.22,2.06,1.97,5.36,2.02,7.42,0,13.9-13.63,27.8-27.27,41.7-40.9,4.83-4.74-2.59-12.15-7.42-7.42-12.66,12.42-25.32,24.83-37.98,37.25l-.07.06-.24-.23-.09-.09c-7.09-6.77-14.17-13.54-21.26-20.31-4.88-4.67-12.31,2.74-7.42,7.42h0Z"/><path class="cls-1" d="M334.06,279.32v18.31c0,8.53-7.81,15.44-17.44,15.44H98.58c-9.63,0-17.44-6.91-17.44-15.44V17.55c0-8.53,7.81-15.44,17.44-15.44h218.04c9.63,0,17.44,6.91,17.44,15.44v136.16"/><line class="cls-1" x1="123.78" y1="58.81" x2="290.4" y2="58.81"/><line class="cls-1" x1="123.78" y1="97.44" x2="290.4" y2="97.44"/><line class="cls-1" x1="123.78" y1="136.42" x2="250.61" y2="135.7"/></svg>