<?xml version="1.0" encoding="UTF-8"?><svg id="Layer_2" xmlns="http://www.w3.org/2000/svg" viewBox="0 0 432 315.21"><defs><style>.cls-1{fill:none;stroke:#1d3a6b;stroke-miterlimit:10;stroke-width:4px;}</style></defs><path class="cls-1" d="M335.93,82.03H96.07c-2.95,0-5.15-2.74-4.5-5.62l9.67-43.09c2.11-9.38,10.43-16.04,20.04-16.04h189.43c9.61,0,17.94,6.67,20.04,16.04l9.67,43.09c.65,2.88-1.55,5.62-4.5,5.62Z"/><path class="cls-1" d="M336.64,145.97l45.63-20.31c1.68-.75,3.64-.37,4.93.94l22.55,23.08c2.72,2.78.75,7.46-3.14,7.46h-66.72l-4.37-3.87c-2.39-2.12-1.79-6,1.13-7.3Z"/><path class="cls-1" d="M94.85,145.97l-45.63-20.31c-1.68-.75-3.64-.37-4.93.94l-22.55,23.08c-2.72,2.78-.75,7.46,3.14,7.46h65.05c1.07,0,2.11-.39,2.91-1.1l3.13-2.77c2.39-2.12,1.79-6-1.13-7.3Z"/><line class="cls-1" x1="110.32" y1="166.82" x2="321.68" y2="166.82"/><path class="cls-1" d="M372.72,95.67l.1-.08c.58-.46,1.31-.71,2.05-.71h38.86c1.83,0,3.31-1.48,3.31-3.31v-24.81c0-1.83-1.48-3.31-3.31-3.31h-38.32c-1.83,0-3.31,1.48-3.31,3.31v22.57c0,1.08-.53,2.09-1.41,2.71l-1.8,1.26c-1.31.92-3.08.77-4.22-.36l-10.37-10.24c-.45-.45-.76-1.01-.9-1.63l-11.18-49.8c-2.64-11.78-13.1-20.15-25.17-20.15H114.95c-12.07,0-22.53,8.37-25.17,20.15l-11.18,49.8c-.14.62-.45,1.18-.9,1.63l-10.3,10.17c-1.14,1.12-2.91,1.27-4.22.36l-1.69-1.19c-.88-.62-1.41-1.63-1.41-2.71v-22.57c0-1.83-1.48-3.31-3.31-3.31H18.44c-1.83,0-3.31,1.48-3.31,3.31v24.81c0,1.83,1.48,3.31,3.31,3.31h38.86c.75,0,1.47.25,2.05.71h0c1.56,1.23,1.68,3.55.27,4.95L5.99,153.49c-2.37,2.34-3.7,5.53-3.7,8.86v93.57c0,5.93,4.81,10.74,10.74,10.74h405.96c5.93,0,10.74-4.81,10.74-10.74v-91.88c0-4.41-1.77-8.63-4.9-11.73l-52.36-51.69c-1.41-1.4-1.29-3.71.27-4.95Z"/><path class="cls-1" d="M103.03,264.17l9.16-12.09c.22-.29.57-.47.94-.47h204.67c.35,0,.68.16.9.42l10.08,12.09c.64.77.09,1.93-.9,1.93H103.97c-.97,0-1.53-1.11-.94-1.89Z"/><path class="cls-1" d="M331.38,266.66c-.61,1.16-.98,2.46-.98,3.86v25.12c0,4.64,3.77,8.41,8.41,8.41h66.58c4.64,0,8.41-3.77,8.41-8.41v-25.12c0-1.4-.38-2.7-.98-3.86h-81.44Z"/><path class="cls-1" d="M19.18,266.66c-.61,1.16-.98,2.46-.98,3.86v25.12c0,4.64,3.77,8.41,8.41,8.41h66.58c4.65,0,8.41-3.77,8.41-8.41v-25.12c0-1.4-.38-2.7-.98-3.86H19.18Z"/></svg>