<?xml version="1.0" encoding="UTF-8"?><svg xmlns="http://www.w3.org/2000/svg" viewBox="0 0 432 432"><defs><style>.c{fill:none;stroke:#2b3391;stroke-miterlimit:10;stroke-width:2px;}</style></defs><g id="a"><g><path class="c" d="M273.11,199.02s-20.71,18.9-46.46,19.31v52.3c.6,6.58,2.19,13.79,6.03,18.09,8.45,9.45,40.42,28.56,40.42,28.56,0,0,31.98-19.11,40.42-28.56,3.84-4.3,5.44-11.5,6.03-18.09v-52.3c-25.74-.4-46.46-19.31-46.46-19.31Z"/><path class="c" d="M249.63,257.07l18.24,17.44c1.49,1.42,3.86,1.46,5.34,0l30.02-29.44c3.48-3.41-1.87-8.75-5.34-5.34l-27.34,26.81-.05,.05-.17-.17-.06-.06-15.3-14.62c-3.51-3.36-8.86,1.97-5.34,5.34h0Z"/><path class="c" d="M294.51,303.63v13.18c0,6.14-5.62,11.12-12.56,11.12H124.99c-6.94,0-12.56-4.98-12.56-11.12V115.19c0-6.14,5.62-11.12,12.56-11.12h156.96c6.94,0,12.56,4.98,12.56,11.12v98.02"/><line class="c" x1="143.13" y1="144.89" x2="263.08" y2="144.89"/><line class="c" x1="143.13" y1="172.69" x2="263.08" y2="172.69"/><line class="c" x1="143.13" y1="200.75" x2="234.43" y2="200.24"/></g></g><g id="b"/></svg>