<?xml version="1.0" encoding="UTF-8"?><svg xmlns="http://www.w3.org/2000/svg" viewBox="0 0 432 432"><defs><style>.c{fill:none;stroke:#2b3391;stroke-miterlimit:10;stroke-width:2px;}</style></defs><g id="a"><g><path class="c" d="M288.79,170.14H143.21c-1.79,0-3.12-1.66-2.73-3.41l5.87-26.15c1.28-5.69,6.33-9.74,12.16-9.74h114.97c5.83,0,10.89,4.05,12.16,9.74l5.87,26.15c.39,1.75-.94,3.41-2.73,3.41Z"/><path class="c" d="M289.21,208.95l27.69-12.33c1.02-.45,2.21-.22,2.99,.57l13.68,14.01c1.65,1.69,.45,4.53-1.91,4.53h-40.49l-2.66-2.35c-1.45-1.29-1.09-3.64,.68-4.43Z"/><path class="c" d="M142.47,208.95l-27.69-12.33c-1.02-.45-2.21-.22-2.99,.57l-13.68,14.01c-1.65,1.69-.45,4.53,1.91,4.53h39.48c.65,0,1.28-.24,1.77-.67l1.9-1.68c1.45-1.29,1.09-3.64-.68-4.43Z"/><line class="c" x1="151.86" y1="221.6" x2="280.14" y2="221.6"/><path class="c" d="M311.11,178.42l.06-.05c.35-.28,.79-.43,1.25-.43h23.58c1.11,0,2.01-.9,2.01-2.01v-15.05c0-1.11-.9-2.01-2.01-2.01h-23.25c-1.11,0-2.01,.9-2.01,2.01v13.7c0,.66-.32,1.27-.86,1.64l-1.09,.76c-.79,.56-1.87,.46-2.56-.22l-6.3-6.21c-.27-.27-.46-.61-.55-.99l-6.78-30.22c-1.6-7.15-7.95-12.23-15.28-12.23h-122.66c-7.33,0-13.67,5.08-15.28,12.23l-6.78,30.22c-.08,.38-.27,.72-.55,.99l-6.25,6.17c-.69,.68-1.77,.77-2.56,.22l-1.03-.72c-.54-.38-.86-.99-.86-1.64v-13.7c0-1.11-.9-2.01-2.01-2.01h-23.25c-1.11,0-2.01,.9-2.01,2.01v15.05c0,1.11,.9,2.01,2.01,2.01h23.58c.45,0,.89,.15,1.25,.43h0c.95,.75,1.02,2.16,.16,3l-32.55,32.13c-1.44,1.42-2.25,3.36-2.25,5.38v56.79c0,3.6,2.92,6.52,6.52,6.52h246.37c3.6,0,6.52-2.92,6.52-6.52v-55.76c0-2.68-1.07-5.24-2.98-7.12l-31.78-31.37c-.86-.85-.78-2.25,.16-3Z"/><path class="c" d="M147.44,280.68l5.56-7.34c.14-.18,.35-.28,.57-.28h124.22c.21,0,.41,.09,.55,.26l6.12,7.34c.39,.47,.06,1.17-.55,1.17H148.01c-.59,0-.93-.68-.57-1.15Z"/><path class="c" d="M286.03,282.19c-.37,.71-.6,1.49-.6,2.34v15.25c0,2.82,2.29,5.1,5.1,5.1h40.41c2.82,0,5.1-2.29,5.1-5.1v-15.25c0-.85-.23-1.64-.6-2.34h-49.43Z"/><path class="c" d="M96.55,282.19c-.37,.71-.6,1.49-.6,2.34v15.25c0,2.82,2.29,5.1,5.1,5.1h40.41c2.82,0,5.1-2.29,5.1-5.1v-15.25c0-.85-.23-1.64-.6-2.34h-49.43Z"/></g></g><g id="b"/></svg>