<?xml version="1.0" encoding="UTF-8"?><svg xmlns="http://www.w3.org/2000/svg" viewBox="0 0 227.01 51.32"><defs><style>.c{fill:#fff;}.d{fill:#dce5ec;}</style></defs><g id="a"/><g id="b"><g><g><path class="c" d="M91.43,21.84l3.54-11.76h3.59l-5.45,15.64h-3.36l-5.42-15.64h3.58l3.52,11.76Z"/><path class="c" d="M103.46,25.72h-3.22V10.08h3.22v15.64Z"/><path class="c" d="M115.86,18.94h-6.19v4.19h7.26v2.59h-10.48V10.08h10.46v2.61h-7.24v3.73h6.19v2.52Z"/><path class="c" d="M131,21.2l2.11-11.13h3.21l-3.47,15.64h-3.24l-2.55-10.46-2.55,10.46h-3.24l-3.47-15.64h3.21l2.12,11.11,2.58-11.11h2.73l2.57,11.13Z"/></g><g><path class="c" d="M85.33,41.13v-8.53h2.52c.91,0,1.61,.19,2.08,.57,.47,.38,.71,.93,.71,1.67,0,.44-.12,.83-.36,1.15-.24,.33-.57,.56-.99,.7,.5,.11,.9,.35,1.2,.73,.3,.38,.45,.82,.45,1.31,0,.75-.24,1.34-.73,1.77-.49,.42-1.16,.63-2.03,.63h-2.85Zm.72-4.71h1.97c.6-.01,1.07-.15,1.4-.43,.33-.27,.5-.67,.5-1.19,0-.55-.17-.95-.51-1.21-.34-.26-.86-.39-1.55-.39h-1.8v3.22Zm0,.61v3.49h2.16c.62,0,1.11-.16,1.47-.47,.36-.31,.54-.75,.54-1.31,0-.53-.17-.94-.52-1.25-.35-.31-.82-.46-1.43-.46h-2.22Z"/><path class="c" d="M93.41,40.52h4.21v.61h-4.94v-8.53h.73v7.92Z"/><path class="c" d="M99.89,41.13h-.72v-8.53h.72v8.53Z"/><path class="c" d="M108.55,41.13h-.72l-4.9-7.3v7.3h-.73v-8.53h.73l4.91,7.31v-7.31h.71v8.53Z"/><path class="c" d="M110.72,41.13v-8.53h2.38c.7,0,1.33,.16,1.88,.48s.99,.77,1.3,1.37,.47,1.27,.47,2.03v.79c0,.76-.15,1.44-.46,2.03s-.74,1.04-1.3,1.37-1.2,.48-1.93,.48h-2.33Zm.72-7.92v7.31h1.62c.9,0,1.62-.3,2.16-.89,.54-.6,.81-1.4,.81-2.42v-.75c0-.98-.27-1.77-.8-2.36-.54-.59-1.24-.89-2.12-.89h-1.68Z"/><path class="c" d="M121.82,40.52h5.27v.61h-6.14v-.54l5.06-7.38h-4.91v-.61h5.8v.51l-5.08,7.41Z"/><path class="c" d="M134.82,37.33c0,.79-.14,1.47-.41,2.07s-.66,1.05-1.16,1.37-1.09,.48-1.75,.48c-1,0-1.8-.36-2.41-1.07s-.92-1.67-.92-2.89v-.88c0-.78,.14-1.47,.41-2.07s.67-1.06,1.17-1.38,1.08-.48,1.74-.48,1.24,.16,1.74,.47,.89,.76,1.16,1.34,.42,1.25,.43,2.01v1.02Zm-.72-.93c0-1.03-.23-1.83-.7-2.41s-1.1-.87-1.91-.87-1.42,.29-1.9,.88-.71,1.4-.71,2.45v.89c0,1.01,.23,1.81,.7,2.41s1.11,.89,1.91,.89,1.45-.29,1.91-.88,.69-1.4,.69-2.44v-.9Z"/><path class="c" d="M142.99,41.13h-.72l-4.9-7.3v7.3h-.73v-8.53h.73l4.91,7.31v-7.31h.71v8.53Z"/><path class="c" d="M149.87,37.04h-3.99v3.48h4.59v.61h-5.31v-8.53h5.28v.61h-4.56v3.22h3.99v.61Z"/><path class="c" d="M160.95,38.47c-.1,.9-.42,1.59-.96,2.06s-1.27,.71-2.18,.71c-.63,0-1.19-.16-1.68-.47s-.86-.76-1.13-1.34-.4-1.24-.4-1.99v-1.11c0-.76,.13-1.43,.4-2.02s.65-1.04,1.15-1.36,1.07-.48,1.72-.48c.91,0,1.64,.25,2.17,.74s.84,1.17,.92,2.04h-.73c-.18-1.45-.97-2.17-2.36-2.17-.77,0-1.39,.29-1.85,.87-.46,.58-.69,1.38-.69,2.4v1.04c0,.98,.22,1.77,.67,2.36,.45,.59,1.05,.88,1.81,.88s1.32-.18,1.71-.54,.62-.9,.71-1.63h.73Z"/><path class="c" d="M167.3,38.74h-3.87l-.88,2.4h-.76l3.23-8.53h.69l3.23,8.53h-.75l-.88-2.4Zm-3.65-.61h3.42l-1.71-4.65-1.71,4.65Z"/><path class="c" d="M170.92,40.52h4.21v.61h-4.94v-8.53h.73v7.92Z"/><path class="c" d="M182.56,38.47c-.1,.9-.42,1.59-.96,2.06s-1.27,.71-2.18,.71c-.63,0-1.19-.16-1.68-.47s-.86-.76-1.13-1.34-.4-1.24-.4-1.99v-1.11c0-.76,.13-1.43,.4-2.02s.65-1.04,1.15-1.36,1.07-.48,1.72-.48c.91,0,1.64,.25,2.17,.74s.84,1.17,.92,2.04h-.73c-.18-1.45-.97-2.17-2.36-2.17-.77,0-1.39,.29-1.85,.87-.46,.58-.69,1.38-.69,2.4v1.04c0,.98,.22,1.77,.67,2.36,.45,.59,1.05,.88,1.81,.88s1.32-.18,1.71-.54,.62-.9,.71-1.63h.73Z"/><path class="c" d="M190.18,32.6v5.82c0,.57-.13,1.07-.38,1.5s-.6,.75-1.06,.98-.98,.34-1.57,.34c-.9,0-1.62-.25-2.16-.74s-.82-1.17-.84-2.04v-5.88h.71v5.77c0,.72,.21,1.28,.62,1.67s.97,.59,1.67,.59,1.26-.2,1.67-.6,.61-.95,.61-1.66v-5.78h.73Z"/><path class="c" d="M192.92,40.52h4.21v.61h-4.94v-8.53h.73v7.92Z"/><path class="c" d="M203.23,38.74h-3.87l-.88,2.4h-.76l3.23-8.53h.69l3.23,8.53h-.75l-.88-2.4Zm-3.65-.61h3.42l-1.71-4.65-1.71,4.65Z"/><path class="c" d="M211.15,33.21h-2.92v7.92h-.72v-7.92h-2.92v-.61h6.56v.61Z"/><path class="c" d="M218.67,37.33c0,.79-.14,1.47-.41,2.07s-.66,1.05-1.16,1.37-1.09,.48-1.75,.48c-1,0-1.8-.36-2.41-1.07s-.92-1.67-.92-2.89v-.88c0-.78,.14-1.47,.41-2.07s.67-1.06,1.17-1.38,1.08-.48,1.74-.48,1.24,.16,1.74,.47,.89,.76,1.16,1.34,.42,1.25,.43,2.01v1.02Zm-.72-.93c0-1.03-.23-1.83-.7-2.41s-1.1-.87-1.91-.87-1.42,.29-1.9,.88-.71,1.4-.71,2.45v.89c0,1.01,.23,1.81,.7,2.41s1.11,.89,1.91,.89,1.45-.29,1.91-.88,.69-1.4,.69-2.44v-.9Z"/><path class="c" d="M223.68,37.58h-2.48v3.56h-.73v-8.53h2.77c.91,0,1.62,.22,2.13,.66,.51,.44,.77,1.06,.77,1.85,0,.55-.16,1.03-.48,1.45-.32,.42-.75,.71-1.29,.87l2.13,3.63v.08h-.77l-2.06-3.56Zm-2.48-.61h2.21c.61,0,1.09-.17,1.46-.52,.37-.34,.55-.79,.55-1.34,0-.6-.19-1.07-.57-1.4-.38-.33-.92-.5-1.61-.5h-2.03v3.76Z"/></g></g><path class="d" d="M19.2,0H0C11.24,10.82,19.53,26.42,23.05,44.47c3.56-11.92,7.75-21.66,12.65-29.29C31.19,8.55,25.77,3.19,19.2,0ZM10.25,2.29h2.63c1.68,1.02,3.26,2.19,4.75,3.5h-2.92c-1.4-1.29-2.88-2.47-4.47-3.5Zm5.72,4.71h2.99c1.84,1.77,3.53,3.78,5.11,5.97h-3.26c-1.47-2.15-3.07-4.17-4.84-5.97Zm11.08,17.93c-.98-2.45-2.06-4.84-3.28-7.11l-.92-1.65c-.3-.51-.62-1.01-.93-1.51h3.33c.33,.5,.68,.99,1,1.51,0,0,1,1.64,1.01,1.66l.02,.04s1.14,2.03,1.69,3.08c-.65,1.28-1.29,2.61-1.91,3.98Z"/><path class="d" d="M55.53,0c-16.61,8.07-25.88,29.93-31.54,51.32h26.59C53.16,30.39,62.08,12.17,74.73,0h-19.2Z"/></g></svg>