<?xml version="1.0" encoding="UTF-8"?><svg id="Layer_1" xmlns="http://www.w3.org/2000/svg" viewBox="0 0 80.02 83.35"><defs><style>.cls-1{fill:#1d3a6b;stroke-width:0px;}</style></defs><path class="cls-1" d="M68.61,61.16h.03s-.47-1.15-.47-1.15h-.03c-.62-1.31-1.41-2.53-2.36-3.62l.02-.02-.84-.9h-.01c-1.08-1.04-2.3-1.94-3.65-2.65.58-.68,1.17-1.37,1.7-2.09.66-.9.97-2.01.87-3.12-.1-1.15-.38-2.28-.6-3.42-.16-.81-.16-1.37.95-1.18.76.13,1.55.12,2.32.17.33-1.29.25-1.39-.99-1.49-.57-.05-1.13-.11-1.69-.16-.35-.04-.62-.32-.64-.67-.06-.9-.12-1.72-.16-2.53-.07-1.37-.74-2.3-1.73-3.27-.73-.71-1.54-1.85-1.18-3.19.41-1.56.96-3.1,1.15-4.68.49-4.19-2.61-5.94-5.88-5.01-.79.23-1.56.31-2.14,1-.24.27-.22.49-.94,1.3-.22.32-.48.62-.67.96-.2.37-.33.78-.5,1.16-.19.42-.32.91-.62,1.24-.48.52-.84.91-.02,1.44.15.1.19.48.17.73-.21,2.64-.13,2.79,2.23,3.92,1.28.61,1.42,1.57.38,2.5-2.53,2.26-4.67,4.81-6.59,7.64-1.68,2.48-2.6,3.44-4.43,3.53-.87-.18-1.7-.35-2.29-.46-1.91-.35-3.7-.46-3.7-.46-.15-.03-.4.09-.57.2-.65.39-1.53.66-1.86,1.24-.63,1.13-1.31,1.3-2.39.77-1.9-.93-3.73.26-5.61.26-.31,0-.74.48-.91.83-1.46,3.19-2.87,6.4-4.28,9.61-.1.23-.16.48-.19.73-.22,2.36-.82,4.54-2.36,6.45-1.21,1.49-.88,2.94.69,4.09.1.08.18.19.32.35-.74.4-1.43.71-2.07,1.12-1.53.98-3.15,1.51-4.99,1.31-.57-.06-1.17-.1-1.72.01-.38.08-.69.44-1.08.71.37.4.58.63.73.8-.21.47-.4.88-.74,1.64,2.06.49,3.89.97,5.73,1.34,1.64.33,3.33.41,4.95.81.79.2,1.58.42,2.33.73l-.04.09,1.34.37,7.68-17.44,5.1.75c.65.16,1.51.35,2.46.58-.14.82-.22,1.66-.22,2.53,0,8.56,6.94,15.5,15.5,15.5s15.5-6.94,15.5-15.5c0-1.9-.36-3.71-.98-5.39ZM29.17,62.79l-2.23,5.46c.54-1.94,1.3-3.75,2.23-5.46ZM25.07,72.46c.06-.09.15-.17.24-.24l-.77,1.88c-.1-.6.19-1.14.53-1.64ZM30.65,60.32c.14-.2.36-.35.59-.49.12-.12.95.12,1.05.12.77,0,1.2.46,1.53,1.04l-3.16-.67ZM60.42,55.8c.85.5,1.63,1.09,2.33,1.76l-4.43,4.17c-.01-.75-.03-1.53-.02-2.27l2.12-3.67ZM58.32,63.42l5.27-4.96c.7.82,1.3,1.74,1.77,2.73l-7.07,2.95c.02-.22.03-.46.03-.72ZM36.31,49.85c-.13.36-.52.56-.89.45-.39-.12-.78-.25-1.18-.37.56-1.85,1.18-2.27,2.74-1.9-.23.62-.44,1.2-.67,1.82ZM37.75,51.07c-.34-.21.07-2.14.23-2.89,0,0,0,0,0,0,.28.08.6.17,1.01.27.67.16,1.72.48,2.78.81.34.14.69.31,1.16.55.31.16.47.53.37.86-.23.78-.38,1.06-.6,1.8-.12.41-.58.62-.97.45-1.38-.57-2.75-1.1-3.99-1.85ZM41.6,66.56c0-.61.06-1.2.14-1.78,1.23.34,2.44.71,3.46,1.1.25.1.55.17.87.23l-4.46.49s0-.03,0-.05ZM41.66,67.83l9.13-1-8.35,4.23c-.4-1.02-.67-2.1-.79-3.23ZM42.95,72.19l8.65-4.38s.02.03.02.04l-.33.5-.08.08.04-.02-5.18,7.72c-1.29-1.08-2.35-2.42-3.12-3.94ZM47.05,76.87l5.4-8.05s.03.02.04.03l-.15.94.1-.17-2.08,8.85c-1.19-.37-2.3-.92-3.3-1.61ZM54.09,79.05c-.87,0-1.73-.09-2.55-.26l2.23-9.46c.06,0,.13.02.19.02l2.73,9.43c-.84.18-1.71.28-2.61.28ZM57.89,78.46l-2.7-9.32c.11-.05.22-.11.32-.18l5.81,7.77c-1.04.74-2.19,1.33-3.43,1.73ZM62.29,75.97l-5.87-7.85c.06-.09.11-.19.16-.29l8.67,4.33c-.73,1.46-1.74,2.75-2.96,3.81ZM65.75,71.03l-8.35-4.17,9.13.95c-.11,1.13-.38,2.21-.78,3.23ZM66.59,66.57l-8.76-.91,8-3.34c.48,1.32.75,2.75.75,4.24,0,0,0,.01,0,.02Z"/></svg>