<?xml version="1.0" encoding="UTF-8"?><svg id="Layer_1" xmlns="http://www.w3.org/2000/svg" viewBox="0 0 73.04 83.35"><defs><style>.cls-1{fill:#1d3a6b;stroke-width:0px;}</style></defs><path class="cls-1" d="M47.58,78.06c-.97-.51-1.95-.99-2.85-1.6-1.1-.74-.82-1.85-.79-2.99.22-7.33-.38-13.69-.17-21.01.05-1.87,1.01-4.7,1.18-6.63,1.45.28,1.66-.61,1.69-1.57.05-1.63.08-3.27.04-4.9-.17-6.07-.37-12.14-.55-18.2-.05-1.7-.5-4.57-2.15-5.29-.14-.06-.48-.16-.86-.28-.09-3.01-.27-6.8-.27-7.65,0-.45-.03-.8-.06-1.08.15-2.04-1.71-4.06-3.13-4.28-.41-.06-.64-.16-1.19,0-.25.07-.59.16-.79.21-.22.06-.27-.04-.48.02-1.47.46-2.44,2.08-2.68,3.77h0s-.3,1.76-.3,2.75c0,.71-.06,2.82-.05,4.15-.41.08-.9.05-1.21.27-1.02.71-1.83.25-2.8,1.04-2.02,1.64-1.55,5.76-1.61,8.39-.02.86.04,2.48.09,3.33.2,3.51.29,5.08.72,8.56.22,1.81,0,4.72,1.46,5.25,1.16.43-.59,4.76-.54,6.73.15,5.34.6,8.64-1.15,13.91-.91,2.75-.72,9.96-.22,12.86.03.2-.01.41-.03.61-.15,1.82-.37,3.64-.44,5.46-.03,1.02.5,1.9,1.58,2.06,1,.15,2.03.09,3.05.04.74-.04,1.09-.53.97-1.27-.09-.52-.18-1.06-.39-1.54-1.19-2.72-1.29-3.42-.84-6.11.03-.19-.06-.4-.06-.61,0-.73-.19-1.53.02-2.19,1.23-3.79.76-7.9,2.38-11.65.75-1.72.8-3.75,1.15-5.64.45-2.4.88-4.81,1.31-7.21.16,0,.33,0,.49,0,.23,5.47.92,10.91.78,16.4-.02.9-.01,1.81.06,2.71.11,1.51.49,3.03.39,4.52-.14,2.09-.24,4.11.6,6.08.07.17-.11.44-.18.67-.24.77-.52,1.54-.7,2.32-.23,1.03.2,1.53,1.3,1.51.89-.02,1.79.06,2.69.13,1.42.11,2.83.33,4.25.34.72,0,1.49-.26,1.58-1.22.09-.97-.75-.9-1.29-1.18Z"/></svg>