<?xml version="1.0" encoding="UTF-8"?><svg id="Layer_1" xmlns="http://www.w3.org/2000/svg" viewBox="0 0 75.42 83.35"><defs><style>.cls-1{fill:#1d3a6b;stroke-width:0px;}</style></defs><path class="cls-1" d="M75.22,64.09c-1.24-8.38-9.71-14.34-17.98-12.57-1.56.33-3.06.95-4.69,1.46-.03-.07-.11-.28-.21-.47-.09-.17-.21-.48-.31-.47-.84.06-.95-.71-1.36-1.14-.81-.84-1.41-1.95-2.8-2.05.09-.31.17-.58.25-.83.25-.07.49-.12.72-.18,0-.07,0-.13,0-.2-.24-.11-.49-.21-.84-.36.45-1.16.9-2.32,1.39-3.4,1.33-2.93,3.6-2.53,3.8-2.64.27-.14.54-.28.81-.42.54-.28,1.13-.49,1.59-.87.31-.25,1.65-1.69,1.48-4.6-.09-1.47-1.56-3.42-2.05-4.83-.4-1.16-4.98-9.35-8.42-12.51-1.3-1.2-3.23-2.44-4.76-3.32-1.85-1.06-4.59-.88-6.8-.18-.42.13-.92-.35-.68-.62.71-.81.83-1.44.89-2.94.01-.24.04-.86,0-1.11-.25-1.74-1.89-3.43-3.34-3.68-.75-.13-1.32,0-2.37.22-.7.14-1.85.42-2.53.78-.76.41-2.12,2.37-1.12,2.85-.04,1.16-.05,2.34-.13,3.51-.04.54-.78,1.18.32,1.46.03,0,.06.08.08.13.25.67.32.45.33,1.17,0,.48-.51,1.34.15,1.62.77.33,1.53-.33,1.86-.37.85-.11,1.7-.2,2.29.67-.78,1.32-.93,2.89-1.88,4.15-1.24,1.63-2.25,3.43-3.55,5.01-1.01,1.23-1.88,2.48-2.5,3.94-.67,1.58-1.35,3.16-2.14,4.69-.27.53-.82.95-1.31,1.34-.74.58-1.53,1.1-2.31,1.63-.18.12-.4.25-.61.26-1.48.06-2.9,0-3.62-1.66-.29-.67-.85-.57-1.37-.29-.34.18-.48.53-.45.9,0,.07.05.14.07.21-.22.33-.68,1.07-.66,1.77.03.93-.63,2.75.78,3.68,1.41.93,3.17,2.49,3.48,2.32.3-.18.48-.35.13-.58-.35-.23-1.21-.83-1.71-1.18-.5-.35-1.79-1.03-1.96-1.76-.18-.73-.43-2.01-.03-2.69.05-.08.08-.17.12-.25.01.7.19,1.39.91,1.86.68.45,1.44,1.04,2.08,1.52.09.27.19.54.33.78.32.58.69,1.46,1.03,1.16,1.54.71,3.07,1.42,4.61,2.1.16.07.32.14.48.21.19.08.32.18.41.3,0,0,.69.11.97.16l-1.55,4.59c-.19-.01-.32-.02-.32-.02,0,0-.04.08-.1.22-.48-.17-1.36-.49-1.37-.47-4.61-1.14-8.88-.49-12.68,2.34C2.27,57.27.27,61.14.04,65.88c-.35,7.14,4.57,14.68,13.45,15.56,7.71.76,15.5-5.09,15.98-14.72,1.1.08,2.14.25,3.18.21.62-.02,1.15,0,1.67.33.48.29.97.63,1.5.77,1.02.27,1.21,1.07,1.06,1.83-.41,2.1,1.71,4.4,3.77,4.56.76.06,1.66-.24,2.26.08.99.51,1.91.35,2.82.12.83-.21,1.23-.05,1.71.68,3.36,5.14,9.89,7.77,15.77,6.43,8.23-1.89,13.24-9.24,12-17.62ZM31.09,25.74c.08.06.16.12.24.18-.84,1.1-1.69,2.21-2.53,3.31-.09-.07,1.44-2.4,2.29-3.49ZM32.15,30.57c.89-1.48,2.09-2.78,3.23-4.1.15-.18.98-.48,1.22-.39q2.35.93,3.93,2.19c.59.47,2.44,1.3,2.74,2.08.17.46.8,1.08,1.16,1.65-.67.13-.53.15-.9.23-1.55.31-2.99.87-4.32,1.75-.83.55-1.75.98-2.57,1.54-.68.47-2.03.91-2.69,1.42-.97.75-1.97,1.48-2.99,2.17-1.21.81-1.71,1.85-1.28,3.29.33,1.1.61,2.21.94,3.41-1.9-.27-3.76-.53-5.71-.81.42-1.22.81-2.37,1.25-3.65-.44-1.11-1.62-.4-2.54-.7.08-.17.11-.33.21-.44,1.3-1.42,2.55-2.89,3.94-4.22,1.7-1.63,3.17-3.39,4.38-5.43ZM25.52,33.43c-.85,1.92-1.81,3.74-3.57,5.25,1.42-2.35,2.57-3.59,3.57-5.25ZM12.1,40.31c-.06-.27-.13-.62-.18-.98.53.46,1.21,1,1.47,1.09.05.02.08.06.12.09.44.28.57.61.54,1.2,0,.12,0,.24.01.36-.5-.35-1.79-1.03-1.96-1.76ZM17.61,44.53c-.66-.48-1.24-.78-1.64-1.24-.24-.27-.21-.79-.24-1.2,0-.11.21-.31.35-.34.52-.11,1.63,1.01,1.59,1.55-.03.33-.03.66-.06,1.23ZM21.1,45.57c-.32-.53-1.57-.65-1.88-1.28-.31-.61-.12-1.11.26-1.57.34.31.54.2.27-.27.51.15.88.31,1.27.36.24.04.64.01.74-.13.66-1.01,1.52-.67,2.4-.47,0,.12.03.24,0,.32-.5,1.19-1,2.38-1.53,3.55-.05.12-.37.25-.47.19-.38-.19-.85-.38-1.05-.71ZM21.53,55.14c.89.53,1.71,1.16,2.45,1.88l-7.15,7.15c1.46-2.65,3.55-6.59,4.7-9.03ZM17.06,66.56c0,.1-.02.19-.03.28l-1.12-.3h1.15s0,.01,0,.02ZM12.58,66.56s0-.01,0-.02h1.12l-1.09.29c-.01-.09-.03-.18-.03-.27ZM16.41,65c.06.06.12.14.17.21l-.49.28c.07-.12.15-.26.22-.4l.09-.09ZM14.95,64.34s.05,0,.08,0c-.02.06-.06.14-.08.19v-.2ZM14.38,65.37l-.49-.84c.08-.03.16-.06.24-.09l.25.93ZM14.13,65.52l-.7-.7c.07-.05.13-.11.21-.15l.49.85ZM13.92,65.72l-.88-.51c.05-.07.11-.14.17-.2l.71.71ZM13.78,65.97l-1.02-.27c.04-.08.08-.16.13-.24l.89.52ZM13.7,66.25h-1.09c.01-.09.03-.19.06-.28l1.03.28ZM13.78,66.82l-1.02.59c-.04-.09-.06-.19-.09-.29l1.12-.3ZM13.92,67.08l-.86.86c-.06-.08-.12-.17-.18-.26l1.03-.6ZM14.13,67.28l-.62,1.08c-.09-.06-.17-.13-.25-.21l.88-.88ZM14.38,67.43l-.33,1.23c-.1-.04-.2-.09-.3-.14l.63-1.09ZM14.66,67.5v1.28c-.11,0-.22-.02-.33-.04l.33-1.24ZM14.41,64.37c.08-.02.17-.02.25-.03v.94s0,0,0,0l-.25-.92ZM14.95,67.5l.33,1.25c-.11.02-.22.03-.33.04v-1.29ZM15.23,67.43l.64,1.1c-.1.05-.2.1-.3.14l-.33-1.24ZM15.48,67.28l.89.89c-.08.08-.16.15-.25.21l-.63-1.1ZM15.69,67.08l1.06.61c-.05.09-.12.18-.18.26l-.87-.87ZM15.83,66.82l1.14.31c-.03.1-.05.2-.09.3l-1.05-.61ZM15.91,66.25l1.06-.28c.03.09.04.19.06.28h-1.12ZM15.83,65.97l.91-.53c.05.08.1.16.13.25l-1.05.28ZM17.52,65l8.72-5.04c.51.91.91,1.88,1.2,2.9l-9.69,2.6c-.06-.16-.14-.32-.22-.46ZM17.37,64.75c-.1-.14-.2-.27-.32-.39l7.14-7.14c.73.75,1.37,1.59,1.9,2.49l-8.72,5.04ZM19.42,54.12c-.78,1.76-2,4.53-3.06,7.03l1.98-7.38c.37.1.73.22,1.08.36ZM18.06,53.69l-2.52,9.41c-.06.14-.1.25-.15.38-.14-.03-.29-.04-.43-.04v-10.16c1.07.01,2.11.16,3.11.42ZM14.66,53.27v10.17c-.16,0-.33.02-.48.05l-2.63-9.8c1-.25,2.04-.4,3.11-.42ZM11.27,53.76l2.63,9.82c-.16.05-.31.1-.45.18l-5.08-8.8c.91-.51,1.88-.91,2.9-1.2ZM8.12,55.11l5.07,8.78c-.14.09-.27.18-.4.29l-7.17-7.17c.75-.73,1.59-1.37,2.49-1.9ZM5.42,57.22l7.15,7.15c-.12.12-.22.25-.32.39l-8.74-5.05c.54-.91,1.17-1.74,1.91-2.49ZM3.37,59.96l8.74,5.05c-.08.15-.16.3-.22.46l-9.72-2.6c.29-1.02.69-2,1.2-2.9ZM2.1,63.14l9.71,2.6c-.04.16-.07.33-.09.51H1.68c.01-1.07.16-2.11.42-3.11ZM1.69,66.54h10s0,.01,0,.02c0,.17.02.34.05.51l-9.62,2.58c-.26-1-.41-2.03-.43-3.11ZM2.18,69.93l9.62-2.58c.05.18.1.35.18.51l-8.58,4.96c-.51-.9-.93-1.86-1.22-2.89ZM3.53,73.07l8.58-4.95c.09.16.2.31.32.45l-6.98,6.98c-.73-.75-1.38-1.57-1.91-2.48ZM5.65,75.76l6.96-6.96c.13.13.28.25.43.36l-4.92,8.52c-.9-.54-1.73-1.18-2.48-1.91ZM9.34,78.33s-.01,0-.02,0c0,0,0,0,0,0-.32-.15-.63-.34-.94-.51l4.92-8.51c.16.09.34.17.52.23l-2.55,9.5c-.66-.19-1.31-.41-1.93-.69ZM11.55,79.1l2.54-9.49c.18.04.37.07.56.08v9.84c-1.07-.01-2.11-.16-3.11-.42ZM14.95,79.52v-9.84c.19,0,.38-.03.57-.07l2.54,9.49c-1,.25-2.04.4-3.11.42ZM18.34,79.03l-2.55-9.51c.18-.06.36-.13.52-.23l4.93,8.53c-.91.51-1.88.91-2.9,1.2ZM21.49,77.69l-4.92-8.52c.16-.11.3-.23.44-.36l6.98,6.98c-.75.73-1.59,1.37-2.49,1.9ZM24.19,75.58l-6.99-6.99c.12-.14.23-.29.32-.45l8.57,4.95c-.54.91-1.17,1.74-1.91,2.49ZM26.24,72.84l-8.59-4.96c.08-.16.13-.34.18-.52l9.6,2.57c-.29,1.02-.69,1.99-1.2,2.9ZM27.51,69.65l-9.61-2.57c.03-.17.05-.34.05-.52,0,0,0-.01,0-.02h9.97c-.01,1.07-.16,2.11-.42,3.11ZM17.93,66.25c-.02-.18-.05-.35-.09-.52l9.68-2.59c.25,1,.4,2.04.42,3.11h-10ZM29.38,64.79c-.2-.89-.35-1.74-.6-2.56-1.02-3.45-3.02-6.2-6.01-8.21-.41-.27-.53-.53-.41-1.01.2-.81.32-1.64.52-2.7,3.5,3.96,6.82,7.72,10.21,11.56-.95,1.38-1.89,2.67-3.71,2.91ZM34.56,60.27c-.12.06-.24.12-.36.18-.11-.2-.19-.42-.33-.59-3.22-3.83-6.44-7.67-9.69-11.48-.44-.52-.2-.93.02-1.31.11-.18.54-.28.81-.25,1.89.2,3.77.47,5.66.66.48.05.63.27.77.67.7,2.14,1.42,4.28,2.13,6.42.34,1.01.76,2.01.96,3.06.16.85.03,1.75.03,2.63ZM37.87,42.78c1.37-.02,2.51-.71,3.74-1.1.04.07.1.12.09.15-.59,1.57-2.74,3.03-3.3,4.62-.18.5-1.38.49-1.65.12-.69-.95-1.1-2.1-1.65-3.23,1.06-.22,1.91-.53,2.76-.55ZM37.52,67.24c-.62-.32-1.25-.63-1.91-.97.06-.36.11-.65.18-1.1.84.53,1.27,1.29,1.87,1.89-.05.06-.1.12-.15.18ZM39.07,71.86c.67.4,1.34.8,2.01,1.21-.91.09-1.83-.47-2.01-1.21ZM38.95,69.7c.49.26.78.41,1.21.63-.4.15-.67.25-1.01.38-.06-.32-.11-.58-.2-1.02ZM39.42,71.57c.69-.3,1.15-.51,1.76-.78.06.58.1,1.06.17,1.8-.73-.39-1.25-.66-1.93-1.02ZM40.89,65.3c-.32-.02-.66.11-.97.21-1.13.36-1.26.31-1.89-.89.73-.24,1.45-.48,2.17-.73.45-.16.69-.37.34-.89-.38-.57-.64-1.23-.99-1.82-.17-.28-.38-.64-.65-.73-.7-.23-.81-.79-.92-1.35-.14-.75-.32-1.52-.35-2.28-.12-2.81-.18-5.63-.27-8.54.23.03.34,0,.4-.04-.02.02-.03.02-.04.06-.47,1.11,1.21,3.19,1.86,4.12,1.28,1.86,2.46,3.77,3.64,5.7.17.28.2.74.11,1.07-.5,1.83-1.07,3.64-1.59,5.46-.13.45-.32.69-.84.66ZM42.06,68.72c.13-.4.22-.68.36-1.13.38.31.66.54,1.09.89-.57.09-.96.16-1.45.24ZM44.72,66.88c-.54-.37-1-.68-1.59-1.08h1.59v1.08ZM45.2,63.04c-.27.67-.29,1.44-.43,2.21h-1.69c.47-1.63.93-3.2,1.41-4.85.85.82,1.11,1.61.7,2.64ZM45.39,52.33c-.52-.61-1.18-1.15-.77-1.86.27-.48.68-1.23,1.61-.85-.29.93-.54,1.78-.83,2.72ZM73.45,62.8l-10.28,2.76c-.06-.18-.13-.35-.22-.51l9.26-5.35c.54.97.95,2.01,1.25,3.11ZM60.2,69.68c.18,0,.36-.02.53-.05l.82,3.05c-.36.01-.82.02-1.35.02v-3.02ZM61.81,64.99c.07.08.14.16.21.25l-1.08.62.87-.87ZM60.73,65.66l.6-1.04c.09.05.18.11.26.18l-.86.86ZM60.73,67.42l.86.86c-.08.07-.17.13-.26.18l-.6-1.04ZM61.08,68.6c-.09.04-.19.07-.29.09l-.3-1.13.6,1.03ZM60.48,65.51l.3-1.12c.1.03.2.05.29.09l-.59,1.03ZM60.2,65.44v-1.13c.1,0,.2.02.3.03l-.3,1.1ZM59.5,65.03l-.34-.46c.06-.03.12-.07.19-.1l.15.56ZM58.08,65.86c.03-.08.05-.16.09-.24l.84.48h-.03s-.89-.24-.89-.24ZM58.95,66.69l-.95.25c-.01-.08-.02-.17-.03-.25h.98ZM57.12,65.99l-5.67-.33c-.09-.37-.23-.84-.4-1.38l6.08,1.63s0,.06,0,.08ZM57.08,66.38s0,.01,0,.02h-5.51s-.01-.04-.01-.05c0-.05,0-.13-.02-.22l5.54.25ZM57.08,66.69c0,.17.02.33.05.49l-4.02,1.08c-.55-.59-1.18-1.13-1.43-1.57h5.4ZM57.21,67.45c.05.16.11.31.18.46l-3.38,1.95c-.02-.46-.31-.93-.69-1.37l3.9-1.04ZM58.08,67.22l.95-.25-.86.5c-.04-.08-.06-.16-.09-.24ZM59.17,67.22l-.71.71c-.06-.07-.11-.14-.15-.21l.87-.5ZM59.38,67.42l-.52.9c-.07-.05-.14-.11-.21-.17l.73-.73ZM59.17,65.86l-.87-.5c.05-.07.1-.14.15-.21l.71.71ZM57.53,64.92l-7.85-4.53c-.25-.68-.49-1.3-.68-1.82.39-.56.82-1.09,1.29-1.59l7.54,7.54c-.11.13-.21.26-.29.4ZM57.39,65.17c-.07.15-.13.3-.18.46l-6.28-1.68c-.32-.97-.72-2.09-1.1-3.14l7.56,4.36ZM50.11,72.45c1.16-.44,2.28-.88,2.55-1.01.8-.39,1.18-.8,1.3-1.21l3.56-2.06c.09.14.19.27.29.4l-4.01,4.01c-1.26-.04-2.53-.08-3.72-.12h.01ZM58.01,68.79c.12.12.25.23.39.32l-2.04,3.53c-.7-.02-1.42-.04-2.15-.06l3.8-3.8ZM58.65,69.26c.15.08.3.16.46.22l-.86,3.2c-.5,0-1.02-.02-1.56-.03l1.96-3.39ZM59.1,68.48l.53-.91-.28,1.04c-.09-.04-.17-.08-.25-.13ZM59.63,64.39c.09-.02.19-.04.28-.05v1.1l-.28-1.05ZM59.91,67.64v1.11c-.1-.01-.19-.03-.28-.05l.28-1.05ZM60.2,67.64l.3,1.11c-.1.01-.2.03-.3.03v-1.14ZM61.01,69.56c.18-.05.35-.11.51-.18l1.59,2.75c-.17.2-.38.36-.68.46-.09.03-.3.05-.59.07l-.83-3.1ZM61.78,69.24c.16-.09.31-.2.45-.32l1.29,1.29c.07.52.05,1.16-.22,1.66l-1.52-2.63ZM62.45,68.73s.02-.02.03-.03c.14.16.3.33.42.48l-.45-.45ZM61.81,68.09l-.87-.87.37.21c.18.19.37.39.56.59-.02.02-.04.05-.06.07ZM61.98,67.49c-.17-.15-.33-.29-.47-.41l.79.21c-.04.1-.08.2-.13.3l-.18-.11ZM61.16,66.69h1.27c0,.11-.01.22-.04.33l-1.23-.33ZM61.16,66.4l1.23-.33c.02.11.03.22.04.33h-1.26ZM61.08,66.12l1.08-.62c.05.1.1.19.13.3l-1.22.33ZM72.05,59.45l-9.25,5.34c-.1-.15-.23-.3-.36-.43l7.58-7.58c.78.8,1.46,1.7,2.03,2.67ZM69.82,56.58l-7.59,7.59c-.14-.12-.29-.23-.45-.32l5.37-9.3c.97.57,1.87,1.25,2.67,2.03ZM66.9,54.39l-5.38,9.31c-.16-.08-.33-.13-.51-.18l2.78-10.38c1.09.29,2.14.71,3.11,1.25ZM60.2,52.66s.03,0,.04,0c1.13,0,2.22.15,3.27.41l-2.78,10.39c-.17-.03-.35-.05-.53-.05v-10.74ZM59.91,52.68v10.76c-.18.02-.35.04-.51.09l-2.78-10.36c1.05-.29,2.15-.46,3.29-.48ZM56.34,53.23l2.78,10.38c-.16.06-.31.13-.46.22l-5.35-9.26c.95-.56,1.96-1.01,3.03-1.33ZM53.06,54.72l4.16,7.2-4.91-6.7c.24-.18.5-.34.75-.5ZM58.07,64.25s-.04.03-.06.05l-7.53-7.53c.37-.38.76-.73,1.17-1.06l6.42,8.55ZM49.93,50.31c.36.39.57.73.85,1.18.23.35.66.5.25,1.12-.04.06.15.3.25.44.15.21.32.4.48.6-.09.07-.17.13-.26.2-1.15-1.53-2.29-3.07-3.52-4.71.93-.06,1.55.73,1.96,1.18ZM46.56,66.34c0-.15.02-.3.02-.44l1.24.06c.05.15.09.3.13.44h-1.39s0-.04,0-.05ZM46.61,65.37c.04-.61.11-1.21.23-1.79.3.62.58,1.26.81,1.86l-1.04-.06ZM48.03,67.56c-.23.65-.75.94-1.27,1.08-.11-.64-.17-1.29-.18-1.95h1.44c.07.36.08.66,0,.88ZM48.37,73.12h0s0,0,.01,0h0ZM46.66,53.83c-.09-.15-.12-.4-.07-.57.28-1.03.6-2.05.95-3.23,1.11,1.46,2.15,2.83,3.18,4.19l-.13.08.08.1c-.78.74-1.5,1.43-2.26,2.15-.6-.93-1.2-1.82-1.76-2.73ZM49.62,75.25c.04-.05.08-.09.12-.14-.45-.54-.86-1.13-1.23-1.74l.43-.25c1.31.01,2.79.03,4.29.03l-2.78,2.78c-.28-.23-.57-.47-.83-.68ZM53.18,78.04c-.89-.54-1.71-1.16-2.45-1.88-.02-.01-.03-.03-.05-.04l2.96-2.96c.82,0,1.63,0,2.42.01l-2.83,4.9s-.03-.02-.05-.03ZM56.32,79.44c-1-.3-1.94-.72-2.83-1.23l2.91-5.04c.6,0,1.18,0,1.73,0l-1.7,6.33s-.08-.04-.11-.06ZM59.91,80c-.99-.03-1.95-.15-2.88-.37,0,.06-.02.11-.03.17-.11-.06-.2-.1-.31-.16l1.73-6.47c.53,0,1.03,0,1.48,0v6.84ZM58.56,72.69l.84-3.12c.17.04.34.07.51.09v3.05c-.42,0-.87,0-1.35-.01ZM60.24,80.02s-.03,0-.04,0v-6.86c.58,0,1.08-.02,1.47-.03l1.74,6.51c-1.02.24-2.08.38-3.17.38ZM63.7,79.57l-1.73-6.45c.29-.01.49-.03.58-.05.37-.08.62-.27.82-.5l3.36,5.82c-.95.51-1.97.9-3.03,1.18ZM66.98,78.24l-3.41-5.91c.24-.41.36-.95.46-1.62l5.58,5.58c-.79.75-1.67,1.4-2.63,1.94ZM69.82,76.1l-5.81-5.81c-.11-.65-.61-1.36-1.19-1.99l9.05,5.22c-.58.94-1.26,1.8-2.05,2.57ZM72.02,73.28l-9.08-5.24c.09-.16.16-.34.22-.52l10.19,2.73c-.32,1.07-.77,2.08-1.33,3.03ZM73.42,69.97l-10.17-2.73c.04-.18.06-.37.07-.56h10.58c-.03,1.14-.2,2.24-.49,3.29ZM73.92,66.4h-10.6c0-.19-.03-.38-.07-.56l10.27-2.75c.26,1.05.41,2.13.41,3.26,0,.02,0,.04,0,.05Z"/></svg>