<?xml version="1.0" encoding="UTF-8"?><svg id="Layer_1" xmlns="http://www.w3.org/2000/svg" viewBox="0 0 72.12 83.35"><defs><style>.cls-1{fill:#1d3a6b;stroke-width:0px;}</style></defs><path class="cls-1" d="M67.31,69.19c-.76-4.21-3.65-7.37-7.36-8.61-.07-.06-.36-.74-.48-.92-.13-.19-.38-.41-.59-.49-2.31-.82-4.63-1.01-6.64-.99,0-.37.02-1.4-.54-1.28-.14-.31-.41-.74-.68-1.17.09-.07.16-.15.18-.22.25-1.28-.09-2.43-.84-3.49-.28-.4-.58-.41-.88-.16-.56-1.26-1.11-2.52-1.68-3.77-.07-.16-.21-.31-.34-.44-.19-.2-.47-.35-.59-.59-1.22-2.43-3.09-3.38-5.77-2.93-.46.08-.94.06-1.41.08-.2-.03-.4.1-.61.14-.51.1-1.02.18-1.53.26-1.1-.27-2.75.49-4.58.05-.4-.1-.79-.35-1.15-.69-.22-1.38-.46-2.77-.7-4.15-.02-.12-.04-.24-.03-.36.07-.64.18-1.28.21-1.92.03-.64,0-.64-.63-.73-.01,0-.02-.04-.05-.13.15-.01.29-.02.43-.03.41-.02.83-.03,1.24-.08.14-.02.38-.15.39-.25.04-.45.33-.76.54-1.12.08-.13.11-.3.18-.44.08-.17.15-.37.29-.48.27-.21.37-.43.17-.71-.69-.97.07-1.83.18-2.74,0-.04,1.28.11,1.31.11.3-.06.24-.47.19-.63-.22-.7-.94-1.73-1.48-2.22-.83-1.28-3.47-2.96-5.36-2.96-1.32,0-2.52.43-3.4,1.13h0l-1.25.97c-1.4,1.24-1.44,3.49-1.37,4.39.07.9.9,2,1.51,2.12.15.03.33.02.53,0,.28.49.67.89,1.22,1.09-.09.07-.03,1.28-.09,1.38-.28.5-.86-.16-.94.38-.07.46-.15,1.15-.32,1.53-.46.11-1.22.19-1.66.97-1.22,2.15-1.39,8.32.48,16.81.13.61.56,1.54.61,1.65l3.4,3.58c-.51.4-1.02.79-1.51,1.16-1.85-1.62-2.03-1.4-2.13-2.18.22.13.36.24.5.34.48.36.93.66,1.41,1.02.29.22.62.2.81-.08.14-.22.01-.48-.24-.73-.16-.16-.34-.32-.52-.46-3.88-2.99-7.24-4.59-11.93-3.27-1.11.31-2.13.91-3.19,1.39-.36.17-.79,1.7-.59,2.03.2.35.53.37.88.18.09-.05.18-.11.28-.16,3.67-1.99,7.43-2.4,11.31-.86.19.08.88.33.94.5.08.23.08.2.08.17,0,.03.02.08.04.19-6.22-3.65-13.17-.71-15.74,4.49-1.97,4-1.31,8.67,1.37,11.95-.07.31-.12.63-.12.96,0,2.31,1.88,4.19,4.19,4.19,1.14,0,2.17-.46,2.92-1.19,1.35.19,2.74.11,4.15-.25,4.26-1.1,6.91-3.91,8.14-8.06,1.41.09,2.78.1,3.89,1.05.04.03.1.04.15.06.81.33,1.61.37,2.41.2.04.13.08.27.13.4.14.39.43.61.8.67.07.13.28.31.41.31.35.01.77-.26,1.21-.61.94-.32,1.87-.65,2.81-.97,1.41-.47,2.11-1.57,2.57-2.88.14-.4-.12-.71-.54-.71-.14,0-.28.02-.41.05-1.06,0-2.78.81-3.8.21.08-.7-.02-1.43-.34-2.11-.18-.39-.1-.58.16-.85,2.56-2.69,4.79-4.9,7.34-7.6,1.07-1.13,2.45-2.75,3.57-3.94.32.73,1.36,3.11,1.36,3.11-1.05.31-2.41,1.15-3.48,1.87-.95.64-1.17,1.27-2.03,2.06-.29.27-.57,1.18-.28,1.44.3.27.85,1.41,1.12,1.13.07-.08.14-.16.21-.24,1.67-1.76,3.07-3.3,5.16-4,.04.09.08.17.11.26-.2.13-.36.23-.52.34-3.68,2.31-5.71,6.82-4.98,11.05,1.1,6.38,7.07,10.41,13.4,9.03,5.61-1.22,9.44-6.96,8.42-12.6ZM25.71,68.67h-3.73s-.02-.08-.02-.13c1.17-.25,2.34-.5,3.59-.76.07.38.12.61.17.89ZM24.58,65.49c.28.59.53,1.09.83,1.72-1.34.28-2.6.55-3.86.81-.03-.06-.05-.12-.08-.18,1.01-.76,2.01-1.52,3.11-2.35ZM21.68,71.3c-.54-.06-1.05-.12-1.55-.18.05-.08.09-.16.13-.24.48,0,.96.08,1.42.42ZM23.47,64.15c-1.03.8-2.04,1.57-3.05,2.35-.02-.02-.05-.05-.07-.07.8-.96,1.6-1.93,2.42-2.93.25.23.45.42.69.64ZM22.37,63.17c-.99,1.19-1.93,2.33-2.86,3.46l-.09-.04c.43-1.4.85-2.8,1.31-4.3.56.3,1.07.57,1.64.87ZM18.11,61.71c.72.13,1.39.25,2.13.38-.52,1.72-1.03,3.38-1.53,5.05-.29-.11-.6-.17-.93-.18.11-1.72.21-3.45.33-5.25ZM17.58,61.72c-.1,1.55-.19,3.01-.28,4.46-.03,0-.06.02-.09.02-.48-1.39-.97-2.77-1.48-4.26.64-.08,1.22-.15,1.85-.22ZM13.27,73.58c-.37,0-.72.06-1.06.15,1.08-.82,2.15-1.62,3.22-2.43.17.25.39.47.64.65-.5.61-1.02,1.22-1.53,1.84-.4-.13-.83-.22-1.28-.22ZM10.85,74.09c-.28-.58-.53-1.09-.81-1.67,1.48-.38,2.9-.75,4.32-1.11.02.03.04.07.05.1-1.17.88-2.34,1.76-3.56,2.68ZM15.74,74.4c.52-1.04,1.01-2.01,1.02-2.07.1.04.19.07.29.09-.01.08-.27,1.41-.54,2.73-.23-.28-.48-.54-.78-.75ZM15.22,62.09c.59,1.7,1.16,3.35,1.74,4.99-.31.09-.59.22-.84.41-.93-1.46-1.87-2.93-2.84-4.46.66-.32,1.27-.61,1.95-.94ZM12.84,63.33c.84,1.32,1.62,2.54,2.39,3.76-.03.02-.05.05-.08.07-1.2-.84-2.4-1.68-3.66-2.55.46-.44.87-.84,1.34-1.28ZM11.15,65.02c1.48,1.03,2.92,2.03,4.37,3.04-.19.25-.33.52-.43.82-1.65-.65-3.29-1.3-4.98-1.96.35-.65.68-1.24,1.04-1.9ZM9.96,67.42c1.46.58,2.8,1.1,4.13,1.63v.11h-4.46c.1-.55.21-1.11.33-1.74ZM14.95,69.73c0,.3.06.58.14.84-1.7.44-3.42.88-5.23,1.34-.09-.76-.17-1.43-.27-2.19h5.36ZM18.34,78.05c-.3.01-.62,0-.91-.02,0-.09.03-.18.03-.27,0-.79-.23-1.52-.61-2.15l.51-3.15s.16,0,.42,0c.26,0,.42,0,.42,0l1.72,5.3s-.72.25-1.58.29ZM20.77,77.57c-.12.03-2.26-5-2.31-5.16.3-.08.58-.2.83-.37.29.46,2.2,4.45,2.49,4.9-.34.16-.56.54-1.01.63ZM22.59,76.25c-.81-1.27-1.58-2.48-2.35-3.68.03-.03.07-.07.1-.1,1.18.82,2.36,1.64,3.59,2.5-.46.44-.88.84-1.34,1.28ZM24.28,74.56c-1.46-1.02-2.86-1.99-4.25-2.95,1.81.05,3.59.13,5.25,1.11-.32.58-.64,1.19-1,1.84ZM25.53,71.83c-1.03-.25-2.03-.49-3.03-.73.01-.06.02-.11.03-.17h3.19c-.06.29-.11.53-.19.9ZM30.29,65.17c.16-.12.35-.26.56-.39.13.38.27.8.43,1.23-.31-.21-.55-.38-.63-.48-.06-.07-.19-.2-.36-.37,0,0,0,0,0,0ZM30.14,68.57c-.05.06-.14.1-.22.14-.03.01-.07,0-.1,0-1.06.07-1.14.06-1.23-.92.28.18,1.02.58,1.55.78ZM27.63,62.81c.48-.38.98-.76,1.5-1.16,0,0,.01.02.02.03-.66.68-1.24,1.37-1.46,1.83-.18.12-.39.27-.6.42-.25-.5-.13-.6.53-1.12ZM28.54,72.06c.06-.41.11-.75.17-1.13h1.38c.21.42.42.86.68,1.38-.75-.08-1.45-.16-2.22-.25ZM45.19,56.43c-2.95,3.13-5.9,6.25-8.84,9.38-.1.1-.19.17-.28.22-.2-.72-.37-1.45-.53-2.18-.09-.41-.06-.85-.17-1.25-.05-.17-.11-.35-.16-.52.16-.13.32-.26.45-.38,1.06-1.03,2.59-2.18,2.57-3.52,2.67-1,5.33-2.01,7.99-3,.02.03.04.05.06.08-.36.39-.72.79-1.09,1.18ZM37.65,56.83c-.83-1.01-2.47-2.29-3.69-3.17-.02-.17-.07-.31-.16-.42-.07-.09-.17-.24-.14-.31.24-.57.04-1.09-.16-1.6-.36-.91-.77-1.8-1.15-2.7-.06-.15-.11-.31-.12-.47,0-.01,0-.02,0-.04.86.12,1.79,0,2.57-.19,1.47-.37,3.73-1.09,4.27-1.37.2-.1.23-.29.15-.53.24-.03.48-.05.72-.08.08,0,.21-.06.22-.11.15-.61.68-.52,1.1-.6,2.07-.41,3.55.33,4.5,2.19.15.3.29.55-.01.85-.08.08-.06.3-.02.44.07.24.19.46.29.68.53,1.21,1.06,2.41,1.62,3.68-3.34,1.26-6.67,2.51-9.99,3.76ZM64.08,68.39c-1.48.38-2.9.75-4.33,1.11-.02-.03-.03-.07-.05-.1,1.16-.87,2.32-1.75,3.56-2.68.28.58.53,1.08.81,1.67ZM63.01,66.26c-1.48,1.12-2.88,2.17-4.29,3.23-.17-.26-.38-.49-.63-.69,1.11-1.34,2.22-2.68,3.31-3.99.54.49,1.05.94,1.61,1.44ZM58.2,67.86s-.06-.04-.09-.05c.43-1.4.86-2.81,1.32-4.29.56.3,1.07.57,1.64.88-.99,1.19-1.93,2.33-2.87,3.46ZM56.27,62.95c-.1,1.58-.13,3.74-.22,5.23-.52-1.39-1.73-3.39-2.3-4.92.67-.08,1.88-.22,2.52-.3ZM52.24,64.08c.81,1.27,1.61,3.69,2.38,4.9-.03.03-.07.06-.1.09-1.17-.81-3.09-2.35-4.34-3.22.47-.44,1.59-1.33,2.06-1.77ZM49.84,66.25c.81.57,1.57,1.1,2.34,1.63.67.46,1.34.92,2,1.39,0,0,0,0,.02.01-.19.25-.34.52-.44.82-1.61-.63-3.24-1.27-4.95-1.95.35-.65.68-1.25,1.03-1.91ZM48.65,68.65c1.44.57,2.8,1.11,4.17,1.64-.01.04-.02.09-.04.13h-4.46c.11-.59.21-1.15.33-1.78ZM48.26,70.98h5.34c0,.3.06.58.14.84-1.7.44-3.4.87-5.18,1.33-.1-.73-.2-1.4-.31-2.17ZM48.73,73.65c1.48-.38,2.89-.74,4.3-1.11.02.03.04.07.06.1-1.17.88-2.33,1.76-3.55,2.68-.28-.59-.53-1.11-.81-1.67ZM49.74,75.84c1.53-1.15,2.93-2.21,4.36-3.28.18.25.4.47.65.66-1.12,1.35-2.24,2.7-3.37,4.06-.54-.47-1.05-.92-1.64-1.43ZM51.75,77.63c.99-1.19,1.93-2.33,2.87-3.46.03.02.05.03.08.04-.43,1.41-.86,2.82-1.32,4.31-.57-.31-1.08-.59-1.63-.9ZM56.02,79.11c-.74-.14-1.41-.26-2.14-.39.54-1.76,1.05-3.44,1.56-5.14.28.1.58.17.9.17-.11,1.74-.21,3.49-.33,5.36ZM56.49,68.21c.08-1.72.19-3.43.3-5.26.73.13,1.4.25,2.14.38-.53,1.74-1.04,3.4-1.54,5.07-.28-.11-.58-.17-.9-.18ZM56.54,79.1c.1-1.56.19-3.02.28-4.49l.09-.02c.48,1.39.96,2.77,1.48,4.26-.63.08-1.19.16-1.84.24ZM58.9,78.73c-.6-1.74-1.18-3.4-1.77-5.09.3-.08.58-.21.83-.38.95,1.49,1.9,2.97,2.89,4.53-.66.32-1.28.61-1.95.93ZM61.32,77.54c-.86-1.34-1.65-2.58-2.44-3.82.02-.03.04-.05.06-.08,1.2.83,2.4,1.67,3.66,2.54-.43.46-.82.87-1.28,1.36ZM62.96,75.8c-1.51-1.05-2.96-2.06-4.43-3.08.19-.24.34-.5.45-.79,1.65.65,3.3,1.3,5.01,1.97-.35.65-.68,1.26-1.04,1.9ZM64.15,73.39c-1.43-.56-2.78-1.09-4.13-1.63,0-.04,0-.07.01-.11h4.46c-.11.56-.22,1.13-.34,1.74ZM59.15,71.09s.01-.07.01-.11c0-.26-.05-.51-.11-.75,1.71-.44,3.41-.88,5.21-1.34.09.76.17,1.43.26,2.19h-5.37Z"/></svg>