<?xml version="1.0" encoding="UTF-8"?><svg id="Layer_1" xmlns="http://www.w3.org/2000/svg" viewBox="0 0 16.8 83.35"><defs><style>.cls-1{fill:#f7f7f7;}.cls-1,.cls-2{stroke:#020203;stroke-miterlimit:10;stroke-width:.5px;}.cls-3{fill:#231f20;stroke-width:0px;}.cls-2{fill:#898989;}</style></defs><rect class="cls-2" x="-6.32" y="72.28" width="16.35" height="3.21" transform="translate(-72.03 75.74) rotate(-90)"/><rect class="cls-1" x="-6.32" y="55.93" width="16.35" height="3.21" transform="translate(-55.68 59.39) rotate(-90)"/><rect class="cls-2" x="-6.32" y="39.58" width="16.35" height="3.21" transform="translate(-39.33 43.04) rotate(-90)"/><rect class="cls-1" x="-6.32" y="23.23" width="16.35" height="3.21" transform="translate(-22.98 26.69) rotate(-90)"/><path class="cls-3" d="M9.03,52.53h-3.82v-.65l1.89-2.07c.27-.3.47-.56.58-.76.12-.2.17-.41.17-.62,0-.27-.08-.49-.23-.66s-.36-.25-.62-.25c-.31,0-.54.09-.71.28-.17.19-.25.44-.25.77h-.95c0-.35.08-.66.24-.94.16-.28.38-.49.68-.65s.63-.23,1.01-.23c.55,0,.99.14,1.31.42.32.28.48.66.48,1.15,0,.28-.08.58-.24.89s-.42.67-.79,1.06l-1.39,1.49h2.64v.76Z"/><path class="cls-3" d="M12.14,52.53v-3.52h-.64v-.7h.64v-.39c0-.47.13-.83.39-1.09.26-.25.62-.38,1.09-.38.17,0,.34.02.53.07l-.02.74c-.1-.02-.22-.03-.36-.03-.45,0-.68.23-.68.7v.38h.86v.7h-.86v3.52h-.95Z"/><path class="cls-3" d="M15.83,47.27v1.03h.75v.7h-.75v2.36c0,.16.03.28.1.35.06.07.18.11.34.11.11,0,.22-.01.33-.04v.73c-.22.06-.42.09-.62.09-.73,0-1.09-.4-1.09-1.21v-2.39h-.7v-.7h.7v-1.03h.95Z"/><path class="cls-3" d="M9.11,80.87c0,.82-.15,1.43-.46,1.85-.31.42-.77.62-1.4.62s-1.08-.2-1.39-.61c-.31-.41-.47-1-.48-1.8v-.98c0-.82.15-1.43.46-1.84.31-.41.77-.61,1.4-.61s1.09.2,1.39.6c.31.4.46,1,.47,1.79v.98ZM8.16,79.81c0-.53-.07-.92-.22-1.17-.15-.25-.38-.37-.7-.37s-.54.12-.68.35c-.15.24-.22.6-.23,1.1v1.29c0,.53.07.93.22,1.19s.38.39.7.39.53-.12.68-.36c.15-.24.22-.62.23-1.13v-1.29Z"/><path class="cls-3" d="M12.34,83.27v-3.52h-.64v-.7h.64v-.39c0-.47.13-.83.39-1.09.26-.25.62-.38,1.09-.38.17,0,.34.02.53.07l-.02.74c-.1-.02-.23-.03-.36-.03-.45,0-.68.23-.68.7v.38h.86v.7h-.86v3.52h-.95Z"/><path class="cls-3" d="M16.03,78.01v1.03h.75v.7h-.75v2.36c0,.16.03.28.1.35.06.07.18.11.34.11.11,0,.22-.01.33-.04v.73c-.22.06-.42.09-.62.09-.73,0-1.09-.4-1.09-1.21v-2.39h-.7v-.7h.7v-1.03h.95Z"/><path class="cls-3" d="M8.41,18.08h.71v.76h-.71v1.27h-.95v-1.27h-2.46l-.03-.58,2.45-3.84h.98v3.66ZM5.98,18.08h1.49v-2.38l-.07.12-1.42,2.25Z"/><path class="cls-3" d="M12.14,20.1v-3.52h-.64v-.7h.64v-.39c0-.47.13-.83.39-1.09s.62-.38,1.09-.38c.17,0,.34.02.53.07l-.02.74c-.1-.02-.22-.03-.36-.03-.45,0-.68.23-.68.7v.38h.86v.7h-.86v3.52h-.95Z"/><path class="cls-3" d="M15.83,14.85v1.03h.75v.7h-.75v2.36c0,.16.03.28.1.35s.18.11.34.11c.11,0,.22-.01.33-.04v.73c-.22.06-.42.09-.62.09-.73,0-1.09-.4-1.09-1.21v-2.39h-.7v-.7h.7v-1.03h.95Z"/></svg>