<?xml version="1.0" encoding="UTF-8"?><svg id="Layer_1" xmlns="http://www.w3.org/2000/svg" viewBox="0 0 55.61 83.35"><defs><style>.cls-1{fill:#1d3a6b;stroke-width:0px;}</style></defs><path class="cls-1" d="M44.36,75.8c-.17,0-.34.02-.5.06-1.67,0-4.66,1.64-5.5-.79-.27-.77-1.35-2.93-1.51-3.43-.34-1.11-.59-2.25-.84-3.39-.11-.5-.07-1.04-.21-1.54-.2-.72-.43-1.43-.75-2.1-.38-.79-.89-1.52-1.3-2.3-.52-.98-1-1.98-1.47-2.93.07-.43.13-.87.21-1.34.15,0,.26-.49.47-.48.78.06,1,.59,1-.14,0-.64.36-1.78-.08-2.29-.09-.11-.21-.29-.18-.38.3-.7.05-1.35-.2-1.98-.45-1.12-.95-2.22-1.42-3.34-.08-.18-.13-.39-.15-.58-.07-1.1-.05-2.22-.2-3.31-.34-2.34-.77-4.66-1.16-6.99-.02-.15-.05-.3-.04-.45.08-.79.22-1.58.26-2.37.04-.79,0-.79-.78-.9-.01,0-.02-.06-.06-.16.19-.01.36-.03.53-.04.51-.03,1.02-.03,1.53-.1.18-.02.47-.19.48-.31.05-.56.4-.94.67-1.38.1-.16.14-.36.22-.54.1-.21.19-.46.36-.59.33-.25.45-.53.21-.87-.85-1.2.09-2.26.22-3.39,0-.04.05-.11.08-.12.38-.08.29-.38.23-.58-.31-.98-.56-2.05-1.46-2.63-.08-.26-.31-.45-.6-.45-.03,0-.05.01-.08.02-.11-.2-.31-.35-.56-.35-.09,0-.18.02-.25.05-.1-.21-.31-.36-.56-.36-.07,0-.14.02-.21.04-.06-.02-.11-.05-.17-.07-.1-.21-.32-.36-.57-.36-.08,0-.15.02-.22.04-.01,0-.03-.01-.04-.02-.12-.16-.29-.27-.5-.27-.04,0-.07.02-.11.02-.17-.07-.34-.14-.51-.2-.12-.13-.28-.21-.46-.21-.08,0-.16.02-.23.05-.09,0-.18-.01-.26-.02-.01,0-.03,0-.04,0-.11-.09-.24-.14-.39-.14s-.27.06-.38.14c-.03,0-.06.01-.1.02-.08-.09-.2-.15-.34-.15-.21,0-.38.14-.43.33-.02,0-.04.01-.06.02-.07-.02-.14-.04-.21-.04-.25,0-.45.14-.56.35-.03,0-.06-.02-.09-.02-.35,0-.63.28-.63.63-.35,0-.63.28-.63.63,0,0,0,0,0,0-.02,0-.03-.01-.05-.01-.25,0-.46.21-.46.46,0,.03.01.06.02.09-.22.04-.38.22-.38.44,0,.12.05.24.13.32-.15.11-.26.28-.26.48,0,.04.02.07.02.11,0,0,0,.01,0,.02-.04-.01.05,0,0,0-.25,0-.49.17-.49.42,0,.17,0,.32.14.4-.1.11-.16.25-.16.41,0,.04.02.08.02.12-.04.18-.07.36-.09.54-.14.12-.24.29-.24.48,0,.13.05.24.12.34-.25.08-.28.37-.25.65.03.31.18.54.34.56.05.24.21.42.44.49.34.77.87,1.51,1.55,2.23-.11.09-.04,1.58-.11,1.7-.34.62-1.06-.19-1.16.47-.09.57-.4,2.1-.62,2.57-.67-.3-2.21.25-2.43.81-.54.21-1.15.45-1.77.69-.21.08-.41.21-.62.22-.59.03-2.77.47-3.34.73-.74.35-.69,2.83-.91,3.58-.46,1.56-.09.38-.15,2.37-.06,2.42-.27,4.84-.31,7.23-.02,1.4.1,2.54.5,3.9.15.53-.1,1.26.5,1.36.09.39.38,1.1.5,1.45.2.62,1.98.57,2.49.5,1.11-.15,1.44-.34,2.54-.54.76-.14.29-.43,1.06-.6.77-.31,1.39,1.47,1.45,1.59.23.43-.34,1.81-1.56,4.21-.59,2.58-1.4,2.63-1.86,5.71-.23.33-.72,3.03-.91,3.38-.21.39-.41.81-.48,1.24-.08.48-.1.67-.66.82-.88.23-1.02,1.36-1.18,2.27-.15.88.25,1.32.56,1.54.51.32,1.1.52,1.66.78.84.39,1.7.76,2.53,1.19,1.08.55,2.15.72,3.27.14.55-.29.82-.79.83-1.38.01-.55-.48-.74-.89-.95-.73-.38-1.95-1.66-1.73-1.82.48-1.99,1.28-4.5,1.75-5.84.03-.09.59-2.78,1.8-4.61.44-.67.82-1.37,1.25-2.05.5-.79,1.11-.75,1.61.04.58.92,1.23,1.8,1.85,2.69.13.2,1.37,4.31,2.31,6.01.05.08,1.09,1.08,1.3,1.67.4,1.13.72,2.22,1.31,3.15.1.05.17.23.21.36.21.66.38,1.34.61,1.99.21.59.7.87,1.32.87.33,0,.68-.07,1-.18,1.39-.46,2.76-.96,4.15-1.42,1.74-.58,2.61-1.94,3.17-3.55.17-.49-.14-.87-.67-.88Z"/></svg>