<?xml version="1.0" encoding="UTF-8"?><svg id="Layer_1" xmlns="http://www.w3.org/2000/svg" viewBox="0 0 56.86 83.35"><defs><style>.cls-1{fill:#1d3a6b;stroke-width:0px;}</style></defs><path class="cls-1" d="M28.54,68.75s.15.91-.4,1.64-.77,1.09-.77,1.53-.44,4.12-.51,4.49.04,1.75,0,1.97.73,1.68.55,2.41c-.18.73-.22.95-.84,1.06s-1.28-.11-1.42-.66c-.15-.55.15-2.3,0-2.52s-.29-.98-.22-1.71-.18-3.46-.02-4.63.6-3.32.6-3.32c0,0-1.2-.04-1.46-.26s.26-3.32.88-5.47c.62-2.15,1.09-5.36,1.17-6.78s.18-2.88.18-2.88c0,0-.98,2.01-.91,2.84s.26,3.94.55,4.41-.22,2.06-.51,1.9-.89-.74-1.04-1.83c-.15-1.09-.74-1.92-.78-2.94-.04-1.02-.63-1.06.24-3.57s1.19-4.49,2.26-4.96,2.49-.47,2.75-.84-.11,0-.58,0,.12-.38.12-.38c0,0-.25.19-.45.22s-.22-.34-.22-.34c0,0,0,.36-.15.33s.21-1.3.21-1.3c0,0-.44.84-.71.99s-.43-.01-.44-.22-.18-.44-.04-.97c.14-.54.51-2.76.63-3.23.12-.47.05-4.05,3.32-4.2,3.27-.15,3.93,3.93,4.04,4.72s-.51,3.02-.32,3.74c.07.27.31.73.24.91s-.36-.41-.54-.61c-.11-.13-.24-.48-.33-.45-.07.03.22.54.32,1,.07.31-.52-.43-.58-.59s.12.06.11.76c0,.25-.47-.37-.55-.49s-.58-.22-.65.07c-.09.39-.36.61.18.69.45.07,2.11.67,2.33.91s.95,1.85,1.1,3.19c.15,1.33.8,4.62.78,5.09s1.25,4.18,1.16,4.69c-.38,2.25-.93,0-1.25-.51s-.15.69-.32.57c-.46-.32-.1-1.26-.3-1.78s-.74-2.14-.94-2.94c-.21-.8-.78-2.91-.76-3.79.01-.5-.19,5.88-.16,6.47s.25,4.49.63,5.73.69,1.85.37,2.18-.55.65-.99.63-.58-.08-.58.43.22,3.21.05,4.74-.62,3.98-.6,4.19.26.95-.11,1.82-.2,1.22-.89,1.42-1.51.04-2.15-.16-.71-.67-.4-1.09.98-.75,1.04-1.13.15-.62.35-1.19.26-.53.35-1-.13-2.72.02-3.72.26-1.91.05-2.24-.44-1.09-.5-1.55.38-1.42,0-1.37-.54.09-1.05.07-1.11-.15-1.11-.15Z"/></svg>