<?xml version="1.0" encoding="UTF-8"?><svg id="Layer_1" xmlns="http://www.w3.org/2000/svg" viewBox="0 0 441.91 121.45"><defs><style>.cls-1,.cls-2{fill:#ec1e24;}.cls-1,.cls-3,.cls-4{stroke-width:0px;}.cls-5{fill:#95acbb;}.cls-5,.cls-6,.cls-7,.cls-2,.cls-8,.cls-9,.cls-10{stroke-miterlimit:10;}.cls-5,.cls-6,.cls-8,.cls-10{stroke:#1e3a6b;}.cls-6{fill:#fff;}.cls-7{fill:rgba(28,58,107,.6);stroke:#1c3a6b;}.cls-2{stroke:#ec1e24;}.cls-8{fill:none;}.cls-9{fill:rgba(26,109,167,.6);stroke:#1a6da7;}.cls-3{fill:#231f20;}.cls-10{fill:#dbe4eb;}.cls-4{fill:#b4d234;}</style></defs><line class="cls-10" y1="105.26" x2="259.87" y2="105.26"/><path class="cls-5" d="M186.67,87.94h57.19c1.66,0,2.87-1.56,2.47-3.16l-7.82-31.27c-.24-.95-1.01-1.69-1.97-1.88l-41.22-8.24c-1.26-.25-2.51.47-2.91,1.69l-8.16,24.48c-.09.26-.13.53-.13.8v15.04c0,1.41,1.14,2.55,2.55,2.55Z"/><polygon class="cls-5" points="92.53 89.18 38.87 87.11 30.31 57.76 75.1 49.04 92.53 61.58 92.53 89.18"/><path class="cls-10" d="M247.35,51.53c-.46-6.88-11.69-39.21-14.45-42.42-2.75-3.21,2.98-3.21,1.83-5.73-1.15-2.52-102.04-4.13-120.15-1.61-18.11,2.52-52.97,31.18-52.97,31.18l-12.38,1.83c-12.38,1.83-33.48,15.82-34.62,20.87-1.15,5.04-5.5,11.46,0,25.91,4.32,11.35,19.13,10.39,25.27,9.45,1.48-.23,2.5-1.58,2.35-3.07-.85-8.07-1.12-32.34,26.73-30.23,26.18,1.98,22.53,27,21.36,32.68-.12.58.33,1.12.93,1.1,5.69-.19,30.62-.99,48.8-.99,20.64,0,52.28-.92,52.28-.92,0,0-4.36-29.81,23.16-31.87,27.52-2.06,26.95,25.27,29.47,30.44,1.11,2.28,8.14-7.97,9.05-18.97.92-11.01-6.19-10.78-6.65-17.66Z"/><path class="cls-6" d="M176.76,44.65c-1.39,23.48-5.5,31.18-7.57,32.33-2.06,1.15-58.7,5.96-65.81,4.36-7.11-1.61-6.42-37.15-4.59-49.53,1.83-12.38,20.64-23.16,37.15-24.99,16.51-1.83,31.87-2.75,36.23-1.83.02.05,6.54,6.71,4.59,39.67Z"/><path class="cls-9" d="M156.83,17.91c.03-.77-1.79-.88-2.7-.89-.3,0-.22-1.33,0-1.31,3.54.25,1.94-4.95,1.71-7.7-.15-1.83-1.34-1.84-3.52-1.82s-1.19,5.87-1.12,8.14c.04,1.11.66,1.15,1.15,1.52.07.05,0,.85-.29.97-.75.34-2.41.13-2.55.17-2.64.8-5.36,20-6.9,26.74-1.2,5.25-.07,10.6.54,16.26.32,2.95-11.11.71-16.91-.63-5.88-1.36-14.4-3.4-17.14-.38s-2.7,10.46,0,12.15c6.59,4.13,29.42-.33,37.79-.6,8.37-.27,9.7-17.66,10.1-27.72.4-10.07-.99-5.89-.15-24.92Z"/><circle class="cls-10" cx="66.93" cy="82.53" r="22.28"/><circle class="cls-10" cx="217.32" cy="82.99" r="22.28"/><polyline class="cls-10" points="97.99 42.55 107.99 39.37 106.56 34.08 98.55 35.79"/><line class="cls-8" x1="42.38" y1="87.11" x2="45.12" y2="87.11"/><line class="cls-8" x1="88.19" y1="89.18" x2="90.77" y2="89.18"/><path class="cls-8" d="M178.24,5.46c-.52.02-.84.57-.6,1.03,1.02,1.96,3.18,6.67,3.98,12.76,1,7.58.78,10.81.78,10.81,0,0,50.12,3.1,49.97.65s-3.21-19.72-7.34-21.71-18.34-3.06-27.06-3.52c-7.1-.37-16.5-.14-19.74-.04Z"/><ellipse class="cls-10" cx="108.53" cy="36.3" rx="1.55" ry="8.83" transform="translate(-5.88 38.74) rotate(-19.72)"/><line class="cls-2" x1="110.47" y1="57.29" x2="10.65" y2="57.29"/><line class="cls-2" x1="10.15" y1="55.04" x2="10.15" y2="59.54"/><line class="cls-2" x1="108.48" y1="55.31" x2="108.48" y2="59.81"/><path class="cls-7" d="M174.58,23.5c.03-.77-1.79-.88-2.7-.89-.3,0-.22-1.33,0-1.31,3.54.25,1.94-4.95,1.71-7.7-.15-1.83-1.34-1.84-3.52-1.82s-1.19,5.87-1.12,8.14c.04,1.11.66,1.15,1.15,1.52.07.05,0,.85-.29.97-.75.34-2.41.13-2.55.17-2.64.8-5.36,20-6.9,26.74-1.2,5.25-.07,10.6.54,16.26.32,2.95-11.11.71-16.91-.63-5.88-1.36-14.4-3.4-17.14-.38s-2.7,10.46,0,12.15c6.59,4.13,29.42-.33,37.79-.6,8.37-.27,9.7-17.66,10.1-27.72.4-10.07-.99-5.89-.15-24.92Z"/><path class="cls-1" d="M56.97,53.08h-3.57l-.8,2.23h-1.16l3.26-8.53h.98l3.26,8.53h-1.15l-.81-2.23ZM53.74,52.16h2.9l-1.45-3.99-1.45,3.99Z"/><path class="cls-3" d="M308.85,11.78h-1.13v-3.94h-4.3v3.94h-1.12V3.25h1.12v3.67h4.3v-3.67h1.13v8.53Z"/><path class="cls-3" d="M310.68,3.76c0-.18.05-.32.16-.45s.27-.18.48-.18.37.06.48.18.16.27.16.45-.05.32-.16.44-.27.18-.48.18-.37-.06-.48-.18-.16-.26-.16-.44ZM311.85,11.78h-1.08v-6.34h1.08v6.34Z"/><path class="cls-3" d="M313.33,8.56c0-.99.23-1.77.69-2.36s1.06-.88,1.82-.88,1.38.27,1.81.82l.05-.7h.99v6.19c0,.82-.24,1.47-.73,1.94s-1.14.71-1.96.71c-.46,0-.9-.1-1.34-.29s-.77-.46-1-.8l.56-.65c.46.57,1.03.86,1.71.86.53,0,.94-.15,1.23-.45s.44-.71.44-1.25v-.54c-.43.5-1.03.75-1.78.75s-1.34-.3-1.8-.9-.69-1.41-.69-2.44ZM314.42,8.68c0,.71.15,1.28.44,1.68s.7.61,1.23.61c.68,0,1.19-.31,1.51-.93v-2.89c-.33-.61-.83-.91-1.49-.91-.53,0-.94.21-1.24.62s-.45,1.02-.45,1.82Z"/><path class="cls-3" d="M321.4,6.21c.48-.59,1.11-.88,1.88-.88,1.34,0,2.02.76,2.03,2.27v4.19h-1.08v-4.2c0-.46-.11-.79-.31-1.01s-.52-.33-.96-.33c-.35,0-.66.09-.93.28s-.47.43-.62.74v4.52h-1.08V2.78h1.08v3.43Z"/><path class="cls-3" d="M329.56,11.9c-.86,0-1.56-.28-2.1-.85s-.81-1.32-.81-2.26v-.2c0-.63.12-1.19.36-1.68s.58-.88,1.01-1.16.9-.42,1.4-.42c.82,0,1.46.27,1.92.81s.69,1.32.69,2.33v.45h-4.29c.02.62.2,1.13.55,1.51s.79.58,1.33.58c.38,0,.71-.08.97-.23s.5-.36.7-.62l.66.52c-.53.82-1.33,1.22-2.39,1.22ZM329.43,6.22c-.44,0-.8.16-1.1.48s-.48.76-.55,1.34h3.18v-.08c-.03-.55-.18-.98-.45-1.28s-.62-.45-1.08-.45Z"/><path class="cls-3" d="M336.98,10.1c0-.29-.11-.52-.33-.68s-.61-.3-1.15-.42-.98-.26-1.31-.42-.56-.36-.71-.59-.23-.5-.23-.81c0-.52.22-.96.66-1.32s1-.54,1.68-.54c.72,0,1.3.19,1.75.56s.67.85.67,1.42h-1.09c0-.3-.13-.55-.38-.77s-.57-.32-.95-.32-.7.09-.93.26-.33.4-.33.67c0,.26.1.46.31.59s.58.26,1.12.38.98.27,1.32.43.58.37.75.61.24.52.24.86c0,.57-.23,1.02-.68,1.36s-1.04.51-1.76.51c-.51,0-.96-.09-1.35-.27s-.7-.43-.92-.75-.33-.67-.33-1.05h1.08c.02.36.17.65.44.86s.63.32,1.08.32c.41,0,.74-.08.99-.25s.37-.39.37-.67Z"/><path class="cls-3" d="M340.95,3.91v1.54h1.18v.84h-1.18v3.94c0,.25.05.45.16.57s.29.19.54.19c.12,0,.3-.02.52-.07v.87c-.29.08-.56.12-.83.12-.48,0-.85-.15-1.1-.44s-.37-.71-.37-1.25v-3.93h-1.15v-.84h1.15v-1.54h1.08Z"/><path class="cls-3" d="M350.28,11.78c-.06-.12-.11-.35-.15-.67-.5.52-1.11.79-1.8.79-.62,0-1.14-.18-1.54-.53s-.6-.8-.6-1.34c0-.66.25-1.17.75-1.54s1.21-.55,2.12-.55h1.05v-.5c0-.38-.11-.68-.34-.91s-.56-.34-1-.34c-.39,0-.71.1-.97.29s-.39.43-.39.71h-1.09c0-.32.11-.62.34-.92s.53-.53.91-.7.81-.26,1.27-.26c.73,0,1.3.18,1.72.55s.63.87.64,1.51v2.92c0,.58.07,1.04.22,1.39v.09h-1.14ZM348.48,10.96c.34,0,.66-.09.97-.26s.53-.4.66-.69v-1.3h-.85c-1.33,0-1.99.39-1.99,1.17,0,.34.11.61.34.8s.52.29.87.29Z"/><path class="cls-3" d="M353.92,5.44l.04.8c.48-.61,1.12-.91,1.9-.91,1.34,0,2.02.76,2.03,2.27v4.19h-1.08v-4.2c0-.46-.11-.79-.31-1.01s-.52-.33-.96-.33c-.35,0-.66.09-.93.28s-.47.43-.62.74v4.52h-1.08v-6.34h1.03Z"/><path class="cls-3" d="M359.25,8.56c0-.97.23-1.75.69-2.35s1.06-.89,1.81-.89,1.33.25,1.76.76v-3.3h1.08v9h-1l-.05-.68c-.43.53-1.04.8-1.81.8s-1.33-.3-1.8-.9-.69-1.39-.69-2.36v-.08ZM360.33,8.68c0,.72.15,1.28.45,1.69s.71.61,1.23.61c.69,0,1.19-.31,1.51-.93v-2.91c-.32-.6-.82-.9-1.49-.9-.53,0-.95.21-1.24.62s-.45,1.02-.45,1.82Z"/><path class="cls-3" d="M369.79,11.78v-5.5h-1v-.84h1v-.65c0-.68.18-1.21.54-1.58s.88-.56,1.54-.56c.25,0,.5.03.74.1l-.06.87c-.18-.04-.38-.05-.59-.05-.35,0-.62.1-.81.31s-.29.5-.29.88v.67h1.35v.84h-1.35v5.5h-1.08Z"/><path class="cls-3" d="M377.33,11.78c-.06-.12-.11-.35-.15-.67-.5.52-1.11.79-1.8.79-.62,0-1.14-.18-1.54-.53s-.6-.8-.6-1.34c0-.66.25-1.17.75-1.54s1.21-.55,2.12-.55h1.05v-.5c0-.38-.11-.68-.34-.91s-.56-.34-1-.34c-.39,0-.71.1-.97.29s-.39.43-.39.71h-1.09c0-.32.11-.62.34-.92s.53-.53.91-.7.81-.26,1.27-.26c.73,0,1.3.18,1.72.55s.63.87.64,1.51v2.92c0,.58.07,1.04.22,1.39v.09h-1.14ZM375.53,10.96c.34,0,.66-.09.97-.26s.53-.4.66-.69v-1.3h-.85c-1.33,0-1.99.39-1.99,1.17,0,.34.11.61.34.8s.52.29.87.29Z"/><path class="cls-3" d="M383.01,6.42c-.16-.03-.34-.04-.53-.04-.71,0-1.19.3-1.45.91v4.5h-1.08v-6.34h1.05l.02.73c.36-.57.86-.85,1.51-.85.21,0,.37.03.48.08v1.01Z"/><path class="cls-3" d="M385.77,3.91v1.54h1.18v.84h-1.18v3.94c0,.25.05.45.16.57s.29.19.54.19c.12,0,.3-.02.52-.07v.87c-.29.08-.56.12-.83.12-.48,0-.85-.15-1.1-.44s-.37-.71-.37-1.25v-3.93h-1.15v-.84h1.15v-1.54h1.08Z"/><path class="cls-3" d="M389.3,6.21c.48-.59,1.11-.88,1.88-.88,1.34,0,2.02.76,2.03,2.27v4.19h-1.08v-4.2c0-.46-.11-.79-.31-1.01s-.52-.33-.96-.33c-.35,0-.66.09-.93.28s-.47.43-.62.74v4.52h-1.08V2.78h1.08v3.43Z"/><path class="cls-3" d="M397.46,11.9c-.86,0-1.56-.28-2.1-.85s-.81-1.32-.81-2.26v-.2c0-.63.12-1.19.36-1.68s.58-.88,1.01-1.16.9-.42,1.4-.42c.82,0,1.46.27,1.92.81s.69,1.32.69,2.33v.45h-4.29c.02.62.2,1.13.55,1.51s.79.58,1.33.58c.38,0,.71-.08.97-.23s.5-.36.7-.62l.66.52c-.53.82-1.33,1.22-2.39,1.22ZM397.32,6.22c-.44,0-.8.16-1.1.48s-.48.76-.55,1.34h3.18v-.08c-.03-.55-.18-.98-.45-1.28s-.62-.45-1.08-.45Z"/><path class="cls-3" d="M404.88,10.1c0-.29-.11-.52-.33-.68s-.61-.3-1.15-.42-.98-.26-1.31-.42-.56-.36-.71-.59-.23-.5-.23-.81c0-.52.22-.96.66-1.32s1-.54,1.68-.54c.72,0,1.3.19,1.75.56s.67.85.67,1.42h-1.09c0-.3-.13-.55-.38-.77s-.57-.32-.95-.32-.7.09-.93.26-.33.4-.33.67c0,.26.1.46.31.59s.58.26,1.12.38.98.27,1.32.43.58.37.75.61.24.52.24.86c0,.57-.23,1.02-.68,1.36s-1.04.51-1.76.51c-.51,0-.96-.09-1.35-.27s-.7-.43-.92-.75-.33-.67-.33-1.05h1.08c.02.36.17.65.44.86s.63.32,1.08.32c.41,0,.74-.08.99-.25s.37-.39.37-.67Z"/><path class="cls-3" d="M408.84,3.91v1.54h1.18v.84h-1.18v3.94c0,.25.05.45.16.57s.29.19.54.19c.12,0,.3-.02.52-.07v.87c-.29.08-.56.12-.83.12-.48,0-.85-.15-1.1-.44s-.37-.71-.37-1.25v-3.93h-1.15v-.84h1.15v-1.54h1.08Z"/><path class="cls-3" d="M414.8,11.78v-5.5h-1v-.84h1v-.65c0-.68.18-1.21.54-1.58s.88-.56,1.54-.56c.25,0,.5.03.74.1l-.06.87c-.18-.04-.38-.05-.59-.05-.35,0-.62.1-.81.31s-.29.5-.29.88v.67h1.35v.84h-1.35v5.5h-1.08Z"/><path class="cls-3" d="M421.49,6.42c-.16-.03-.34-.04-.53-.04-.71,0-1.19.3-1.45.91v4.5h-1.08v-6.34h1.05l.02.73c.36-.57.86-.85,1.51-.85.21,0,.37.03.48.08v1.01Z"/><path class="cls-3" d="M422.09,8.56c0-.62.12-1.18.37-1.68s.58-.88,1.02-1.15.93-.4,1.49-.4c.86,0,1.56.3,2.09.9s.8,1.39.8,2.38v.08c0,.62-.12,1.17-.35,1.66s-.57.87-1.01,1.15-.94.41-1.51.41c-.86,0-1.56-.3-2.09-.9s-.8-1.39-.8-2.37v-.08ZM423.18,8.68c0,.7.16,1.27.49,1.69s.76.64,1.31.64.99-.22,1.31-.65.49-1.04.49-1.81c0-.7-.17-1.26-.5-1.69s-.77-.65-1.32-.65-.97.21-1.29.64-.49,1.04-.49,1.83Z"/><path class="cls-3" d="M430.24,5.44l.04.8c.48-.61,1.12-.91,1.9-.91,1.34,0,2.02.76,2.03,2.27v4.19h-1.08v-4.2c0-.46-.11-.79-.31-1.01s-.52-.33-.96-.33c-.35,0-.66.09-.93.28s-.47.43-.62.74v4.52h-1.08v-6.34h1.03Z"/><path class="cls-3" d="M437.31,3.91v1.54h1.18v.84h-1.18v3.94c0,.25.05.45.16.57s.29.19.54.19c.12,0,.3-.02.52-.07v.87c-.29.08-.56.12-.83.12-.48,0-.85-.15-1.1-.44s-.37-.71-.37-1.25v-3.93h-1.15v-.84h1.15v-1.54h1.08Z"/><path class="cls-3" d="M305.81,24.5c0-.29-.11-.52-.33-.68s-.61-.3-1.15-.42-.98-.26-1.31-.42-.56-.36-.71-.59-.23-.5-.23-.81c0-.52.22-.96.66-1.32s1-.54,1.68-.54c.72,0,1.3.19,1.75.56s.67.85.67,1.42h-1.09c0-.3-.13-.55-.38-.77s-.57-.32-.95-.32-.7.09-.93.26-.33.4-.33.67c0,.26.1.46.31.59s.58.26,1.12.38.98.27,1.32.43.58.37.75.61.24.52.24.86c0,.57-.23,1.02-.68,1.36s-1.04.51-1.76.51c-.51,0-.96-.09-1.35-.27s-.7-.43-.92-.75-.33-.67-.33-1.05h1.08c.02.36.17.65.44.86s.63.32,1.08.32c.41,0,.74-.08.99-.25s.37-.39.37-.67Z"/><path class="cls-3" d="M310.94,26.3c-.86,0-1.56-.28-2.1-.85s-.81-1.32-.81-2.26v-.2c0-.63.12-1.19.36-1.68s.58-.88,1.01-1.16.9-.42,1.4-.42c.82,0,1.46.27,1.92.81s.69,1.32.69,2.33v.45h-4.29c.02.62.2,1.13.55,1.51s.79.58,1.33.58c.38,0,.71-.08.97-.23s.5-.36.7-.62l.66.52c-.53.82-1.33,1.22-2.39,1.22ZM310.8,20.62c-.44,0-.8.16-1.1.48s-.48.76-.55,1.34h3.18v-.08c-.03-.55-.18-.98-.45-1.28s-.62-.45-1.08-.45Z"/><path class="cls-3" d="M318.58,26.18c-.06-.12-.11-.35-.15-.67-.5.52-1.11.79-1.8.79-.62,0-1.14-.18-1.54-.53s-.6-.8-.6-1.34c0-.66.25-1.17.75-1.54s1.21-.55,2.12-.55h1.05v-.5c0-.38-.11-.68-.34-.91s-.56-.34-1-.34c-.39,0-.71.1-.97.29s-.39.43-.39.71h-1.09c0-.32.11-.62.34-.92s.53-.53.91-.7.81-.26,1.27-.26c.73,0,1.3.18,1.72.55s.63.87.64,1.51v2.92c0,.58.07,1.04.22,1.39v.09h-1.14ZM316.78,25.36c.34,0,.66-.09.97-.26s.53-.4.66-.69v-1.3h-.85c-1.33,0-1.99.39-1.99,1.17,0,.34.11.61.34.8s.52.29.87.29Z"/><path class="cls-3" d="M322.66,18.31v1.54h1.18v.84h-1.18v3.94c0,.25.05.45.16.57s.29.19.54.19c.12,0,.3-.02.52-.07v.87c-.29.08-.56.12-.83.12-.48,0-.85-.15-1.1-.44s-.37-.71-.37-1.25v-3.93h-1.15v-.84h1.15v-1.54h1.08Z"/><path class="cls-3" d="M333.44,23.08c0,.96-.22,1.74-.66,2.33s-1.04.88-1.79.88-1.38-.24-1.82-.73v3.05h-1.08v-8.78h.99l.05.7c.44-.55,1.05-.82,1.84-.82s1.36.29,1.81.86.67,1.37.67,2.4v.1ZM332.36,22.96c0-.71-.15-1.28-.46-1.69s-.72-.62-1.25-.62c-.66,0-1.15.29-1.48.87v3.03c.32.58.82.87,1.49.87.52,0,.93-.21,1.24-.62s.46-1.02.46-1.84Z"/><path class="cls-3" d="M334.53,22.96c0-.62.12-1.18.37-1.68s.58-.88,1.02-1.15.93-.4,1.49-.4c.86,0,1.56.3,2.09.9s.8,1.39.8,2.38v.08c0,.62-.12,1.17-.35,1.66s-.57.87-1.01,1.15-.94.41-1.51.41c-.86,0-1.56-.3-2.09-.9s-.8-1.39-.8-2.37v-.08ZM335.62,23.08c0,.7.16,1.27.49,1.69s.76.64,1.31.64.99-.22,1.31-.65.49-1.04.49-1.81c0-.7-.17-1.26-.5-1.69s-.77-.65-1.32-.65-.97.21-1.29.64-.49,1.04-.49,1.83Z"/><path class="cls-3" d="M345.35,24.5c0-.29-.11-.52-.33-.68s-.61-.3-1.15-.42-.98-.26-1.31-.42-.56-.36-.71-.59-.23-.5-.23-.81c0-.52.22-.96.66-1.32s1-.54,1.68-.54c.72,0,1.3.19,1.75.56s.67.85.67,1.42h-1.09c0-.3-.13-.55-.38-.77s-.57-.32-.95-.32-.7.09-.93.26-.33.4-.33.67c0,.26.1.46.31.59s.58.26,1.12.38.98.27,1.32.43.58.37.75.61.24.52.24.86c0,.57-.23,1.02-.68,1.36s-1.04.51-1.76.51c-.51,0-.96-.09-1.35-.27s-.7-.43-.92-.75-.33-.67-.33-1.05h1.08c.02.36.17.65.44.86s.63.32,1.08.32c.41,0,.74-.08.99-.25s.37-.39.37-.67Z"/><path class="cls-3" d="M347.85,18.16c0-.18.05-.32.16-.45s.27-.18.48-.18.37.06.48.18.16.27.16.45-.05.32-.16.44-.27.18-.48.18-.37-.06-.48-.18-.16-.26-.16-.44ZM349.03,26.18h-1.08v-6.34h1.08v6.34Z"/><path class="cls-3" d="M352.23,18.31v1.54h1.18v.84h-1.18v3.94c0,.25.05.45.16.57s.29.19.54.19c.12,0,.3-.02.52-.07v.87c-.29.08-.56.12-.83.12-.48,0-.85-.15-1.1-.44s-.37-.71-.37-1.25v-3.93h-1.15v-.84h1.15v-1.54h1.08Z"/><path class="cls-3" d="M354.69,18.16c0-.18.05-.32.16-.45s.27-.18.48-.18.37.06.48.18.16.27.16.45-.05.32-.16.44-.27.18-.48.18-.37-.06-.48-.18-.16-.26-.16-.44ZM355.86,26.18h-1.08v-6.34h1.08v6.34Z"/><path class="cls-3" d="M357.3,22.96c0-.62.12-1.18.37-1.68s.58-.88,1.02-1.15.93-.4,1.49-.4c.86,0,1.56.3,2.09.9s.8,1.39.8,2.38v.08c0,.62-.12,1.17-.35,1.66s-.57.87-1.01,1.15-.94.41-1.51.41c-.86,0-1.56-.3-2.09-.9s-.8-1.39-.8-2.37v-.08ZM358.39,23.08c0,.7.16,1.27.49,1.69s.76.64,1.31.64.99-.22,1.31-.65.49-1.04.49-1.81c0-.7-.17-1.26-.5-1.69s-.77-.65-1.32-.65-.97.21-1.29.64-.49,1.04-.49,1.83Z"/><path class="cls-3" d="M365.46,19.84l.04.8c.48-.61,1.12-.91,1.9-.91,1.34,0,2.02.76,2.03,2.27v4.19h-1.08v-4.2c0-.46-.11-.79-.31-1.01s-.52-.33-.96-.33c-.35,0-.66.09-.93.28s-.47.43-.62.74v4.52h-1.08v-6.34h1.03Z"/><path class="cls-3" d="M303.3,49.44h4.04v.92h-5.17v-8.53h1.13v7.61Z"/><path class="cls-3" d="M308.17,47.14c0-.62.12-1.18.37-1.68s.58-.88,1.02-1.15.93-.4,1.49-.4c.86,0,1.56.3,2.09.9s.8,1.39.8,2.38v.08c0,.62-.12,1.17-.35,1.66s-.57.87-1.01,1.15-.94.41-1.51.41c-.86,0-1.56-.3-2.09-.9s-.8-1.39-.8-2.37v-.08ZM309.26,47.26c0,.7.16,1.27.49,1.69s.76.64,1.31.64.99-.22,1.31-.65.49-1.04.49-1.81c0-.7-.17-1.26-.5-1.69s-.77-.65-1.32-.65-.97.21-1.29.64-.49,1.04-.49,1.83Z"/><path class="cls-3" d="M320.92,48.87l1.22-4.85h1.08l-1.85,6.34h-.88l-1.54-4.8-1.5,4.8h-.88l-1.84-6.34h1.08l1.25,4.75,1.48-4.75h.87l1.51,4.85Z"/><path class="cls-3" d="M326.95,50.48c-.86,0-1.56-.28-2.1-.85s-.81-1.32-.81-2.26v-.2c0-.63.12-1.19.36-1.68s.58-.88,1.01-1.16.9-.42,1.4-.42c.82,0,1.46.27,1.92.81s.69,1.32.69,2.33v.45h-4.29c.02.62.2,1.13.55,1.51s.79.58,1.33.58c.38,0,.71-.08.97-.23s.5-.36.7-.62l.66.52c-.53.82-1.33,1.22-2.39,1.22ZM326.82,44.8c-.44,0-.8.16-1.1.48s-.48.76-.55,1.34h3.18v-.08c-.03-.55-.18-.98-.45-1.28s-.62-.45-1.08-.45Z"/><path class="cls-3" d="M334.37,48.68c0-.29-.11-.52-.33-.68s-.61-.3-1.15-.42-.98-.26-1.31-.42-.56-.36-.71-.59-.23-.5-.23-.81c0-.52.22-.96.66-1.32s1-.54,1.68-.54c.72,0,1.3.19,1.75.56s.67.85.67,1.42h-1.09c0-.3-.13-.55-.38-.77s-.57-.32-.95-.32-.7.09-.93.26-.33.4-.33.67c0,.26.1.46.31.59s.58.26,1.12.38.98.27,1.32.43.58.37.75.61.24.52.24.86c0,.57-.23,1.02-.68,1.36s-1.04.51-1.76.51c-.51,0-.96-.09-1.35-.27s-.7-.43-.92-.75-.33-.67-.33-1.05h1.08c.02.36.17.65.44.86s.63.32,1.08.32c.41,0,.74-.08.99-.25s.37-.39.37-.67Z"/><path class="cls-3" d="M338.34,42.49v1.54h1.18v.84h-1.18v3.94c0,.25.05.45.16.57s.29.19.54.19c.12,0,.3-.02.52-.07v.87c-.29.08-.56.12-.83.12-.48,0-.85-.15-1.1-.44s-.37-.71-.37-1.25v-3.93h-1.15v-.84h1.15v-1.54h1.08Z"/><path class="cls-3" d="M347.67,50.36c-.06-.12-.11-.35-.15-.67-.5.52-1.11.79-1.8.79-.62,0-1.14-.18-1.54-.53s-.6-.8-.6-1.34c0-.66.25-1.17.75-1.54s1.21-.55,2.12-.55h1.05v-.5c0-.38-.11-.68-.34-.91s-.56-.34-1-.34c-.39,0-.71.1-.97.29s-.39.43-.39.71h-1.09c0-.32.11-.62.34-.92s.53-.53.91-.7.81-.26,1.27-.26c.73,0,1.3.18,1.72.55s.63.87.64,1.51v2.92c0,.58.07,1.04.22,1.39v.09h-1.14ZM345.87,49.54c.34,0,.66-.09.97-.26s.53-.4.66-.69v-1.3h-.85c-1.33,0-1.99.39-1.99,1.17,0,.34.11.61.34.8s.52.29.87.29Z"/><path class="cls-3" d="M351.31,44.02l.04.8c.48-.61,1.12-.91,1.9-.91,1.34,0,2.02.76,2.03,2.27v4.19h-1.08v-4.2c0-.46-.11-.79-.31-1.01s-.52-.33-.96-.33c-.35,0-.66.09-.93.28s-.47.43-.62.74v4.52h-1.08v-6.34h1.03Z"/><path class="cls-3" d="M356.64,47.14c0-.97.23-1.75.69-2.35s1.06-.89,1.81-.89,1.33.25,1.76.76v-3.3h1.08v9h-1l-.05-.68c-.43.53-1.04.8-1.81.8s-1.33-.3-1.8-.9-.69-1.39-.69-2.36v-.08ZM357.73,47.26c0,.72.15,1.28.45,1.69s.71.61,1.23.61c.69,0,1.19-.31,1.51-.93v-2.91c-.32-.6-.82-.9-1.49-.9-.53,0-.95.21-1.24.62s-.45,1.02-.45,1.82Z"/><path class="cls-3" d="M367.18,50.36v-5.5h-1v-.84h1v-.65c0-.68.18-1.21.54-1.58s.88-.56,1.54-.56c.25,0,.5.03.74.1l-.06.87c-.18-.04-.38-.05-.59-.05-.35,0-.62.1-.81.31s-.29.5-.29.88v.67h1.35v.84h-1.35v5.5h-1.08Z"/><path class="cls-3" d="M374.72,50.36c-.06-.12-.11-.35-.15-.67-.5.52-1.11.79-1.8.79-.62,0-1.14-.18-1.54-.53s-.6-.8-.6-1.34c0-.66.25-1.17.75-1.54s1.21-.55,2.12-.55h1.05v-.5c0-.38-.11-.68-.34-.91s-.56-.34-1-.34c-.39,0-.71.1-.97.29s-.39.43-.39.71h-1.09c0-.32.11-.62.34-.92s.53-.53.91-.7.81-.26,1.27-.26c.73,0,1.3.18,1.72.55s.63.87.64,1.51v2.92c0,.58.07,1.04.22,1.39v.09h-1.14ZM372.92,49.54c.34,0,.66-.09.97-.26s.53-.4.66-.69v-1.3h-.85c-1.33,0-1.99.39-1.99,1.17,0,.34.11.61.34.8s.52.29.87.29Z"/><path class="cls-3" d="M380.4,45c-.16-.03-.34-.04-.53-.04-.71,0-1.19.3-1.45.91v4.5h-1.08v-6.34h1.05l.02.73c.36-.57.86-.85,1.51-.85.21,0,.37.03.48.08v1.01Z"/><path class="cls-3" d="M383.16,42.49v1.54h1.18v.84h-1.18v3.94c0,.25.05.45.16.57s.29.19.54.19c.12,0,.3-.02.52-.07v.87c-.29.08-.56.12-.83.12-.48,0-.85-.15-1.1-.44s-.37-.71-.37-1.25v-3.93h-1.15v-.84h1.15v-1.54h1.08Z"/><path class="cls-3" d="M386.69,44.79c.48-.59,1.11-.88,1.88-.88,1.34,0,2.02.76,2.03,2.27v4.19h-1.08v-4.2c0-.46-.11-.79-.31-1.01s-.52-.33-.96-.33c-.35,0-.66.09-.93.28s-.47.43-.62.74v4.52h-1.08v-9h1.08v3.43Z"/><path class="cls-3" d="M394.85,50.48c-.86,0-1.56-.28-2.1-.85s-.81-1.32-.81-2.26v-.2c0-.63.12-1.19.36-1.68s.58-.88,1.01-1.16.9-.42,1.4-.42c.82,0,1.46.27,1.92.81s.69,1.32.69,2.33v.45h-4.29c.02.62.2,1.13.55,1.51s.79.58,1.33.58c.38,0,.71-.08.97-.23s.5-.36.7-.62l.66.52c-.53.82-1.33,1.22-2.39,1.22ZM394.72,44.8c-.44,0-.8.16-1.1.48s-.48.76-.55,1.34h3.18v-.08c-.03-.55-.18-.98-.45-1.28s-.62-.45-1.08-.45Z"/><path class="cls-3" d="M402.27,48.68c0-.29-.11-.52-.33-.68s-.61-.3-1.15-.42-.98-.26-1.31-.42-.56-.36-.71-.59-.23-.5-.23-.81c0-.52.22-.96.66-1.32s1-.54,1.68-.54c.72,0,1.3.19,1.75.56s.67.85.67,1.42h-1.09c0-.3-.13-.55-.38-.77s-.57-.32-.95-.32-.7.09-.93.26-.33.4-.33.67c0,.26.1.46.31.59s.58.26,1.12.38.98.27,1.32.43.58.37.75.61.24.52.24.86c0,.57-.23,1.02-.68,1.36s-1.04.51-1.76.51c-.51,0-.96-.09-1.35-.27s-.7-.43-.92-.75-.33-.67-.33-1.05h1.08c.02.36.17.65.44.86s.63.32,1.08.32c.41,0,.74-.08.99-.25s.37-.39.37-.67Z"/><path class="cls-3" d="M406.24,42.49v1.54h1.18v.84h-1.18v3.94c0,.25.05.45.16.57s.29.19.54.19c.12,0,.3-.02.52-.07v.87c-.29.08-.56.12-.83.12-.48,0-.85-.15-1.1-.44s-.37-.71-.37-1.25v-3.93h-1.15v-.84h1.15v-1.54h1.08Z"/><path class="cls-3" d="M417.02,47.26c0,.97-.22,1.75-.67,2.33s-1.04.88-1.79.88c-.8,0-1.42-.28-1.86-.85l-.05.73h-1v-9h1.08v3.36c.44-.54,1.04-.81,1.81-.81s1.37.29,1.81.87.66,1.38.66,2.39v.09ZM415.94,47.14c0-.74-.14-1.31-.43-1.71s-.7-.6-1.23-.6c-.71,0-1.23.33-1.54,1v2.74c.33.66.85,1,1.55,1,.52,0,.92-.2,1.21-.6s.43-1.01.43-1.82Z"/><path class="cls-3" d="M422.3,50.36c-.06-.12-.11-.35-.15-.67-.5.52-1.11.79-1.8.79-.62,0-1.14-.18-1.54-.53s-.6-.8-.6-1.34c0-.66.25-1.17.75-1.54s1.21-.55,2.12-.55h1.05v-.5c0-.38-.11-.68-.34-.91s-.56-.34-1-.34c-.39,0-.71.1-.97.29s-.39.43-.39.71h-1.09c0-.32.11-.62.34-.92s.53-.53.91-.7.81-.26,1.27-.26c.73,0,1.3.18,1.72.55s.63.87.64,1.51v2.92c0,.58.07,1.04.22,1.39v.09h-1.14ZM420.5,49.54c.34,0,.66-.09.97-.26s.53-.4.66-.69v-1.3h-.85c-1.33,0-1.99.39-1.99,1.17,0,.34.11.61.34.8s.52.29.87.29Z"/><path class="cls-3" d="M427.46,49.6c.39,0,.72-.12,1.01-.35s.45-.53.48-.88h1.03c-.02.36-.14.71-.38,1.04s-.54.59-.92.79-.79.29-1.22.29c-.86,0-1.55-.29-2.06-.86s-.76-1.36-.76-2.36v-.18c0-.62.11-1.17.34-1.65s.55-.85.98-1.12.92-.4,1.5-.4c.71,0,1.3.21,1.77.64s.72.98.75,1.66h-1.03c-.03-.41-.19-.75-.47-1.01s-.62-.4-1.03-.4c-.55,0-.98.2-1.28.59s-.45.97-.45,1.72v.21c0,.73.15,1.29.45,1.69s.73.59,1.29.59Z"/><path class="cls-3" d="M432.97,47.43l-.68.71v2.23h-1.08v-9h1.08v5.44l.58-.7,1.97-2.09h1.32l-2.47,2.65,2.75,3.69h-1.27l-2.21-2.94Z"/><path class="cls-3" d="M305.69,63.08c0-.29-.11-.52-.33-.68s-.61-.3-1.15-.42-.98-.26-1.31-.42-.56-.36-.71-.59-.23-.5-.23-.81c0-.52.22-.96.66-1.32s1-.54,1.68-.54c.72,0,1.3.19,1.75.56s.67.85.67,1.42h-1.09c0-.3-.13-.55-.38-.77s-.57-.32-.95-.32-.7.09-.93.26-.33.4-.33.67c0,.26.1.46.31.59s.58.26,1.12.38.98.27,1.32.43.58.37.75.61.24.52.24.86c0,.57-.23,1.02-.68,1.36s-1.04.51-1.76.51c-.51,0-.96-.09-1.35-.27s-.7-.43-.92-.75-.33-.67-.33-1.05h1.08c.02.36.17.65.44.86s.63.32,1.08.32c.41,0,.74-.08.99-.25s.37-.39.37-.67Z"/><path class="cls-3" d="M310.82,64.88c-.86,0-1.56-.28-2.1-.85s-.81-1.32-.81-2.26v-.2c0-.63.12-1.19.36-1.68s.58-.88,1.01-1.16.9-.42,1.4-.42c.82,0,1.46.27,1.92.81s.69,1.32.69,2.33v.45h-4.29c.02.62.2,1.13.55,1.51s.79.58,1.33.58c.38,0,.71-.08.97-.23s.5-.36.7-.62l.66.52c-.53.82-1.33,1.22-2.39,1.22ZM310.69,59.2c-.44,0-.8.16-1.1.48s-.48.76-.55,1.34h3.18v-.08c-.03-.55-.18-.98-.45-1.28s-.62-.45-1.08-.45Z"/><path class="cls-3" d="M318.46,64.76c-.06-.12-.11-.35-.15-.67-.5.52-1.11.79-1.8.79-.62,0-1.14-.18-1.54-.53s-.6-.8-.6-1.34c0-.66.25-1.17.75-1.54s1.21-.55,2.12-.55h1.05v-.5c0-.38-.11-.68-.34-.91s-.56-.34-1-.34c-.39,0-.71.1-.97.29s-.39.43-.39.71h-1.09c0-.32.11-.62.34-.92s.53-.53.91-.7.81-.26,1.27-.26c.73,0,1.3.18,1.72.55s.63.87.64,1.51v2.92c0,.58.07,1.04.22,1.39v.09h-1.14ZM316.66,63.94c.34,0,.66-.09.97-.26s.53-.4.66-.69v-1.3h-.85c-1.33,0-1.99.39-1.99,1.17,0,.34.11.61.34.8s.52.29.87.29Z"/><path class="cls-3" d="M322.55,56.89v1.54h1.18v.84h-1.18v3.94c0,.25.05.45.16.57s.29.19.54.19c.12,0,.3-.02.52-.07v.87c-.29.08-.56.12-.83.12-.48,0-.85-.15-1.1-.44s-.37-.71-.37-1.25v-3.93h-1.15v-.84h1.15v-1.54h1.08Z"/><path class="cls-3" d="M333.32,61.67c0,.96-.22,1.74-.66,2.33s-1.04.88-1.79.88-1.38-.24-1.82-.73v3.05h-1.08v-8.78h.99l.05.7c.44-.55,1.05-.82,1.84-.82s1.36.29,1.81.86.67,1.37.67,2.4v.1ZM332.24,61.54c0-.71-.15-1.28-.46-1.69s-.72-.62-1.25-.62c-.66,0-1.15.29-1.48.87v3.03c.32.58.82.87,1.49.87.52,0,.93-.21,1.24-.62s.46-1.02.46-1.84Z"/><path class="cls-3" d="M334.41,61.54c0-.62.12-1.18.37-1.68s.58-.88,1.02-1.15.93-.4,1.49-.4c.86,0,1.56.3,2.09.9s.8,1.39.8,2.38v.08c0,.62-.12,1.17-.35,1.66s-.57.87-1.01,1.15-.94.41-1.51.41c-.86,0-1.56-.3-2.09-.9s-.8-1.39-.8-2.37v-.08ZM335.5,61.67c0,.7.16,1.27.49,1.69s.76.64,1.31.64.99-.22,1.31-.65.49-1.04.49-1.81c0-.7-.17-1.26-.5-1.69s-.77-.65-1.32-.65-.97.21-1.29.64-.49,1.04-.49,1.83Z"/><path class="cls-3" d="M345.23,63.08c0-.29-.11-.52-.33-.68s-.61-.3-1.15-.42-.98-.26-1.31-.42-.56-.36-.71-.59-.23-.5-.23-.81c0-.52.22-.96.66-1.32s1-.54,1.68-.54c.72,0,1.3.19,1.75.56s.67.85.67,1.42h-1.09c0-.3-.13-.55-.38-.77s-.57-.32-.95-.32-.7.09-.93.26-.33.4-.33.67c0,.26.1.46.31.59s.58.26,1.12.38.98.27,1.32.43.58.37.75.61.24.52.24.86c0,.57-.23,1.02-.68,1.36s-1.04.51-1.76.51c-.51,0-.96-.09-1.35-.27s-.7-.43-.92-.75-.33-.67-.33-1.05h1.08c.02.36.17.65.44.86s.63.32,1.08.32c.41,0,.74-.08.99-.25s.37-.39.37-.67Z"/><path class="cls-3" d="M347.74,56.74c0-.18.05-.32.16-.45s.27-.18.48-.18.37.06.48.18.16.27.16.45-.05.32-.16.44-.27.18-.48.18-.37-.06-.48-.18-.16-.26-.16-.44ZM348.91,64.76h-1.08v-6.34h1.08v6.34Z"/><path class="cls-3" d="M352.11,56.89v1.54h1.18v.84h-1.18v3.94c0,.25.05.45.16.57s.29.19.54.19c.12,0,.3-.02.52-.07v.87c-.29.08-.56.12-.83.12-.48,0-.85-.15-1.1-.44s-.37-.71-.37-1.25v-3.93h-1.15v-.84h1.15v-1.54h1.08Z"/><path class="cls-3" d="M354.57,56.74c0-.18.05-.32.16-.45s.27-.18.48-.18.37.06.48.18.16.27.16.45-.05.32-.16.44-.27.18-.48.18-.37-.06-.48-.18-.16-.26-.16-.44ZM355.74,64.76h-1.08v-6.34h1.08v6.34Z"/><path class="cls-3" d="M357.19,61.54c0-.62.12-1.18.37-1.68s.58-.88,1.02-1.15.93-.4,1.49-.4c.86,0,1.56.3,2.09.9s.8,1.39.8,2.38v.08c0,.62-.12,1.17-.35,1.66s-.57.87-1.01,1.15-.94.41-1.51.41c-.86,0-1.56-.3-2.09-.9s-.8-1.39-.8-2.37v-.08ZM358.28,61.67c0,.7.16,1.27.49,1.69s.76.64,1.31.64.99-.22,1.31-.65.49-1.04.49-1.81c0-.7-.17-1.26-.5-1.69s-.77-.65-1.32-.65-.97.21-1.29.64-.49,1.04-.49,1.83Z"/><path class="cls-3" d="M365.34,58.42l.04.8c.48-.61,1.12-.91,1.9-.91,1.34,0,2.02.76,2.03,2.27v4.19h-1.08v-4.2c0-.46-.11-.79-.31-1.01s-.52-.33-.96-.33c-.35,0-.66.09-.93.28s-.47.43-.62.74v4.52h-1.08v-6.34h1.03Z"/><path class="cls-1" d="M62.41,74.65v-8.53h2.79c.93,0,1.62.19,2.09.57s.7.95.7,1.7c0,.4-.11.75-.34,1.06s-.54.54-.93.71c.46.13.83.37,1.09.74s.4.79.4,1.29c0,.77-.25,1.37-.74,1.8s-1.2.66-2.1.66h-2.96ZM63.54,69.76h1.7c.49,0,.89-.12,1.18-.37.29-.25.44-.58.44-1,0-.47-.14-.81-.41-1.02-.27-.21-.69-.32-1.25-.32h-1.66v2.72ZM63.54,70.66v3.07h1.86c.52,0,.94-.14,1.24-.41s.45-.65.45-1.12c0-1.03-.56-1.54-1.68-1.54h-1.88Z"/><path class="cls-1" d="M162.71,113.8h-3.58v3.77h-1.12v-8.53h5.29v.92h-4.16v2.92h3.58v.92Z"/><rect class="cls-9" x="275.65" y="2.98" width="17.6" height="17.6"/><rect class="cls-7" x="275.65" y="40.24" width="17.6" height="17.6"/><line class="cls-2" x1="126.47" y1="64.29" x2="10.65" y2="64.29"/><line class="cls-2" x1="10.15" y1="62" x2="10.15" y2="66.5"/><line class="cls-2" x1="124.48" y1="62.31" x2="124.48" y2="66.81"/><circle class="cls-4" cx="110.47" cy="57.29" r="1.45"/><circle class="cls-4" cx="126.29" cy="64.09" r="1.45"/><line class="cls-2" x1="159.27" y1="67.51" x2="159.27" y2="106.06"/><line class="cls-2" x1="157.02" y1="106.26" x2="161.52" y2="106.26"/><line class="cls-2" x1="157.29" y1="67.51" x2="161.79" y2="67.51"/><line class="cls-2" x1="141.41" y1="61.2" x2="141.41" y2="106.72"/><line class="cls-2" x1="139.16" y1="106.95" x2="143.66" y2="106.95"/><line class="cls-2" x1="139.43" y1="61.2" x2="143.93" y2="61.2"/><path class="cls-1" d="M143.16,114.25h-3.7v3.02h4.29v.92h-5.42v-8.53h5.36v.92h-4.24v2.75h3.7v.92Z"/><circle class="cls-4" cx="141.38" cy="59.74" r="1.45"/><circle class="cls-4" cx="159.54" cy="65.54" r="1.45"/></svg>