<?xml version="1.0" encoding="UTF-8"?><svg id="Layer_1" xmlns="http://www.w3.org/2000/svg" viewBox="0 0 265.37 117.69"><defs><style>.cls-1{fill:#95acbb;}.cls-1,.cls-2,.cls-3,.cls-4,.cls-5,.cls-6,.cls-7,.cls-8,.cls-9,.cls-10,.cls-11{stroke-miterlimit:10;}.cls-1,.cls-4,.cls-7,.cls-10{stroke:#1e3a6b;}.cls-2,.cls-5,.cls-8{stroke:#1a6da7;}.cls-2,.cls-7{fill:none;}.cls-3{fill:#aaa;stroke:#707171;}.cls-4{fill:#fff;}.cls-5{fill:#1a6da7;}.cls-6{fill:#d1d1d1;stroke:#959595;}.cls-8{fill:rgba(26,109,167,.6);}.cls-12{fill:#231f20;}.cls-12,.cls-13{stroke-width:0px;}.cls-9{fill:#fcd1ac;stroke:#f89c1c;}.cls-10{fill:#dbe4eb;}.cls-11{fill:#ffe374;stroke:#c6b46b;}.cls-13{fill:#b4d234;}</style></defs><path class="cls-1" d="M197.45,87.94h57.19c1.66,0,2.87-1.56,2.47-3.16l-7.82-31.27c-.24-.95-1.01-1.69-1.97-1.88l-41.22-8.24c-1.26-.25-2.51.47-2.91,1.69l-8.16,24.48c-.09.26-.13.53-.13.8v15.04c0,1.41,1.14,2.55,2.55,2.55Z"/><polygon class="cls-1" points="103.32 89.18 49.66 87.11 41.1 57.76 85.89 49.04 103.32 61.58 103.32 89.18"/><path class="cls-10" d="M258.14,51.53c-.46-6.88-11.69-39.21-14.45-42.42-2.75-3.21,2.98-3.21,1.83-5.73-1.15-2.52-102.04-4.13-120.15-1.61-18.11,2.52-52.97,31.18-52.97,31.18l-12.38,1.83c-12.38,1.83-33.48,15.82-34.62,20.87-1.15,5.04-5.5,11.46,0,25.91,4.32,11.35,19.13,10.39,25.27,9.45,1.48-.23,2.5-1.58,2.35-3.07-.85-8.07-1.12-32.34,26.73-30.23,26.18,1.98,22.53,27,21.36,32.68-.12.58.33,1.12.93,1.1,5.69-.19,30.62-.99,48.8-.99,20.64,0,52.28-.92,52.28-.92,0,0-4.36-29.81,23.16-31.87,27.52-2.06,26.95,25.27,29.47,30.44,1.11,2.28,8.14-7.97,9.05-18.97.92-11.01-6.19-10.78-6.65-17.66Z"/><path class="cls-4" d="M187.54,44.65c-1.39,23.48-5.5,31.18-7.57,32.33-2.06,1.15-58.7,5.96-65.81,4.36s-6.42-37.15-4.59-49.53c1.83-12.38,20.64-23.16,37.15-24.99,16.51-1.83,31.87-2.75,36.23-1.83.02.05,6.54,6.71,4.59,39.67Z"/><path class="cls-8" d="M167.61,17.91c.03-.77-1.79-.88-2.7-.89-.3,0-.22-1.33,0-1.31,3.54.25,1.94-4.95,1.71-7.7-.15-1.83-1.34-1.84-3.52-1.82s-1.19,5.87-1.12,8.14c.04,1.11.66,1.15,1.15,1.52.07.05,0,.85-.29.97-.75.34-2.41.13-2.55.17-2.64.8-5.36,20-6.9,26.74-1.2,5.25-.07,10.6.54,16.26.32,2.95-11.11.71-16.91-.63-5.88-1.36-14.4-3.4-17.14-.38s-2.7,10.46,0,12.15c6.59,4.13,29.42-.33,37.79-.6,8.37-.27,9.7-17.66,10.1-27.72.4-10.07-.99-5.89-.15-24.92Z"/><circle class="cls-10" cx="77.71" cy="82.53" r="22.28"/><circle class="cls-10" cx="228.11" cy="82.99" r="22.28"/><polyline class="cls-10" points="108.77 42.55 118.78 39.37 117.35 34.08 109.34 35.79"/><line class="cls-7" x1="53.16" y1="87.11" x2="55.91" y2="87.11"/><line class="cls-7" x1="98.98" y1="89.18" x2="101.56" y2="89.18"/><path class="cls-7" d="M189.03,5.46c-.52.02-.84.57-.6,1.03,1.02,1.96,3.18,6.67,3.98,12.76,1,7.58.78,10.81.78,10.81,0,0,50.12,3.1,49.97.65s-3.21-19.72-7.34-21.71-18.34-3.06-27.06-3.52c-7.1-.37-16.5-.14-19.74-.04Z"/><ellipse class="cls-10" cx="119.32" cy="36.3" rx="1.55" ry="8.83" transform="translate(-5.25 42.38) rotate(-19.72)"/><path class="cls-12" d="M112.97,112.21h-3.57l-.8,2.23h-1.16l3.26-8.53h.98l3.26,8.53h-1.15l-.81-2.23ZM109.73,111.29h2.9l-1.45-3.99-1.45,3.99Z"/><path class="cls-12" d="M115.88,113.87c0-.19.06-.34.17-.47s.28-.19.5-.19.39.06.51.19.17.28.17.47-.06.33-.17.45-.28.18-.51.18-.39-.06-.5-.18-.17-.27-.17-.45ZM115.88,108.7c0-.19.06-.34.17-.47s.28-.19.5-.19.39.06.51.19.17.28.17.47-.06.33-.17.45-.28.18-.51.18-.39-.06-.5-.18-.17-.27-.17-.45Z"/><path class="cls-12" d="M122.32,114.44v-5.5h-1v-.84h1v-.65c0-.68.18-1.21.54-1.58s.88-.56,1.54-.56c.25,0,.5.03.74.1l-.06.87c-.18-.04-.38-.05-.59-.05-.35,0-.62.1-.81.31s-.29.5-.29.88v.67h1.35v.84h-1.35v5.5h-1.08Z"/><path class="cls-12" d="M129.02,109.07c-.16-.03-.34-.04-.53-.04-.71,0-1.19.3-1.45.91v4.5h-1.08v-6.34h1.05l.02.73c.36-.57.86-.85,1.51-.85.21,0,.37.03.48.08v1.01Z"/><path class="cls-12" d="M129.61,111.21c0-.62.12-1.18.37-1.68s.58-.88,1.02-1.15.93-.4,1.49-.4c.86,0,1.56.3,2.09.9s.8,1.39.8,2.38v.08c0,.62-.12,1.17-.35,1.66s-.57.87-1.01,1.15-.94.41-1.51.41c-.86,0-1.56-.3-2.09-.9s-.8-1.39-.8-2.37v-.08ZM130.7,111.34c0,.7.16,1.27.49,1.69s.76.64,1.31.64.99-.22,1.31-.65.49-1.04.49-1.81c0-.7-.17-1.26-.5-1.69s-.77-.65-1.32-.65-.97.21-1.29.64-.49,1.04-.49,1.83Z"/><path class="cls-12" d="M137.77,108.1l.04.8c.48-.61,1.12-.91,1.9-.91,1.34,0,2.02.76,2.03,2.27v4.19h-1.08v-4.2c0-.46-.11-.79-.31-1.01s-.52-.33-.96-.33c-.35,0-.66.09-.93.28s-.47.43-.62.74v4.52h-1.08v-6.34h1.03Z"/><path class="cls-12" d="M144.84,106.57v1.54h1.18v.84h-1.18v3.94c0,.25.05.45.16.57s.29.19.54.19c.12,0,.3-.02.52-.07v.87c-.29.08-.56.12-.83.12-.48,0-.85-.15-1.1-.44s-.37-.71-.37-1.25v-3.93h-1.15v-.84h1.15v-1.54h1.08Z"/><path class="cls-12" d="M149.54,111.26h-2.86v-.88h2.86v.88Z"/><path class="cls-12" d="M152.07,106.57v1.54h1.18v.84h-1.18v3.94c0,.25.05.45.16.57s.29.19.54.19c.12,0,.3-.02.52-.07v.87c-.29.08-.56.12-.83.12-.48,0-.85-.15-1.1-.44s-.37-.71-.37-1.25v-3.93h-1.15v-.84h1.15v-1.54h1.08Z"/><path class="cls-12" d="M154.11,111.21c0-.62.12-1.18.37-1.68s.58-.88,1.02-1.15.93-.4,1.49-.4c.86,0,1.56.3,2.09.9s.8,1.39.8,2.38v.08c0,.62-.12,1.17-.35,1.66s-.57.87-1.01,1.15-.94.41-1.51.41c-.86,0-1.56-.3-2.09-.9s-.8-1.39-.8-2.37v-.08ZM155.2,111.34c0,.7.16,1.27.49,1.69s.76.64,1.31.64.99-.22,1.31-.65.49-1.04.49-1.81c0-.7-.17-1.26-.5-1.69s-.77-.65-1.32-.65-.97.21-1.29.64-.49,1.04-.49,1.83Z"/><path class="cls-12" d="M163.5,111.26h-2.86v-.88h2.86v.88Z"/><path class="cls-12" d="M165.09,114.44v-5.5h-1v-.84h1v-.65c0-.68.18-1.21.54-1.58s.88-.56,1.54-.56c.25,0,.5.03.74.1l-.06.87c-.18-.04-.38-.05-.59-.05-.35,0-.62.1-.81.31s-.29.5-.29.88v.67h1.35v.84h-1.35v5.5h-1.08Z"/><path class="cls-12" d="M171.78,109.07c-.16-.03-.34-.04-.53-.04-.71,0-1.19.3-1.45.91v4.5h-1.08v-6.34h1.05l.02.73c.36-.57.86-.85,1.51-.85.21,0,.37.03.48.08v1.01Z"/><path class="cls-12" d="M172.37,111.21c0-.62.12-1.18.37-1.68s.58-.88,1.02-1.15.93-.4,1.49-.4c.86,0,1.56.3,2.09.9s.8,1.39.8,2.38v.08c0,.62-.12,1.17-.35,1.66s-.57.87-1.01,1.15-.94.41-1.51.41c-.86,0-1.56-.3-2.09-.9s-.8-1.39-.8-2.37v-.08ZM173.46,111.34c0,.7.16,1.27.49,1.69s.76.64,1.31.64.99-.22,1.31-.65.49-1.04.49-1.81c0-.7-.17-1.26-.5-1.69s-.77-.65-1.32-.65-.97.21-1.29.64-.49,1.04-.49,1.83Z"/><path class="cls-12" d="M180.53,108.1l.04.8c.48-.61,1.12-.91,1.9-.91,1.34,0,2.02.76,2.03,2.27v4.19h-1.08v-4.2c0-.46-.11-.79-.31-1.01s-.52-.33-.96-.33c-.35,0-.66.09-.93.28s-.47.43-.62.74v4.52h-1.08v-6.34h1.03Z"/><path class="cls-12" d="M187.6,106.57v1.54h1.18v.84h-1.18v3.94c0,.25.05.45.16.57s.29.19.54.19c.12,0,.3-.02.52-.07v.87c-.29.08-.56.12-.83.12-.48,0-.85-.15-1.1-.44s-.37-.71-.37-1.25v-3.93h-1.15v-.84h1.15v-1.54h1.08Z"/><line class="cls-5" x1="110.32" y1="63.54" x2="116.35" y2="63.54"/><polyline class="cls-2" points="112.2 65.63 110.21 63.64 112.2 61.66"/><line class="cls-2" x1="139.65" y1="51.98" x2="139.65" y2="58.02"/><polyline class="cls-2" points="141.75 53.87 139.76 51.88 137.77 53.87"/><rect class="cls-9" x="117.84" y="75.97" width="4.39" height="9.78"/><rect class="cls-11" x="21.79" y="80.48" width="95.28" height="3.15"/><path class="cls-3" d="M20.72,79.06h-.95v-4.45c0-5.32-4.31-9.64-9.64-9.64h0c-5.32,0-9.64,4.31-9.64,9.64v7.32c0,1.28,1.04,2.31,2.31,2.31h17.91c1.03,0,1.86-.83,1.86-1.86v-1.46c0-1.03-.83-1.86-1.86-1.86Z"/><circle class="cls-6" cx="10.55" cy="74.61" r="6.46"/><circle class="cls-13" cx="120.7" cy="57.68" r="1.45"/></svg>