<?xml version="1.0" encoding="UTF-8"?><svg id="Layer_1" xmlns="http://www.w3.org/2000/svg" viewBox="0 0 266.03 117.42"><defs><style>.cls-1{fill:#95acbb;}.cls-1,.cls-2,.cls-3,.cls-4,.cls-5,.cls-6,.cls-7,.cls-8,.cls-9,.cls-10{stroke-miterlimit:10;}.cls-1,.cls-3,.cls-6,.cls-8{stroke:#1e3a6b;}.cls-2{fill:#aaa;stroke:#707171;}.cls-3{fill:#fff;}.cls-4{fill:rgba(28,58,107,.6);}.cls-4,.cls-10{stroke:#1c3a6b;}.cls-5{fill:#d1d1d1;stroke:#959595;}.cls-6,.cls-10{fill:none;}.cls-11{fill:#231f20;stroke-width:0px;}.cls-7{fill:#fcd1ac;stroke:#f89c1c;}.cls-8{fill:#dbe4eb;}.cls-9{fill:#ffe374;stroke:#c6b46b;}</style></defs><path class="cls-1" d="M198.12,87.94h57.19c1.66,0,2.87-1.56,2.47-3.16l-7.82-31.27c-.24-.95-1.01-1.69-1.97-1.88l-41.22-8.24c-1.26-.25-2.51.47-2.91,1.69l-8.16,24.48c-.09.26-.13.53-.13.8v15.04c0,1.41,1.14,2.55,2.55,2.55Z"/><polygon class="cls-1" points="103.98 89.18 50.32 87.11 41.76 57.76 86.55 49.04 103.98 61.58 103.98 89.18"/><path class="cls-8" d="M258.8,51.53c-.46-6.88-11.69-39.21-14.45-42.42-2.75-3.21,2.98-3.21,1.83-5.73-1.15-2.52-102.04-4.13-120.15-1.61-18.11,2.52-52.97,31.18-52.97,31.18l-12.38,1.83c-12.38,1.83-33.48,15.82-34.62,20.87-1.15,5.04-5.5,11.46,0,25.91,4.32,11.35,19.13,10.39,25.27,9.45,1.48-.23,2.5-1.58,2.35-3.07-.85-8.07-1.12-32.34,26.73-30.23,26.18,1.98,22.53,27,21.36,32.68-.12.58.33,1.12.93,1.1,5.69-.19,30.62-.99,48.8-.99,20.64,0,52.28-.92,52.28-.92,0,0-4.36-29.81,23.16-31.87,27.52-2.06,26.95,25.27,29.47,30.44,1.11,2.28,8.14-7.97,9.05-18.97.92-11.01-6.19-10.78-6.65-17.66Z"/><path class="cls-3" d="M188.2,44.65c-1.39,23.48-5.5,31.18-7.57,32.33-2.06,1.15-58.7,5.96-65.81,4.36-7.11-1.61-6.42-37.15-4.59-49.53,1.83-12.38,20.64-23.16,37.15-24.99,16.51-1.83,31.87-2.75,36.23-1.83.02.05,6.54,6.71,4.59,39.67Z"/><circle class="cls-8" cx="78.37" cy="82.53" r="22.28"/><circle class="cls-8" cx="228.77" cy="82.99" r="22.28"/><polyline class="cls-8" points="109.44 42.55 119.44 39.37 118.01 34.08 110 35.79"/><line class="cls-6" x1="99.64" y1="89.18" x2="102.22" y2="89.18"/><path class="cls-6" d="M189.69,5.46c-.52.02-.84.57-.6,1.03,1.02,1.96,3.18,6.67,3.98,12.76,1,7.58.78,10.81.78,10.81,0,0,50.12,3.1,49.97.65-.15-2.45-3.21-19.72-7.34-21.71s-18.34-3.06-27.06-3.52c-7.1-.37-16.5-.14-19.74-.04Z"/><ellipse class="cls-8" cx="119.98" cy="36.3" rx="1.55" ry="8.83" transform="translate(-5.21 42.61) rotate(-19.72)"/><path class="cls-4" d="M186.03,23.5c.03-.77-1.79-.88-2.7-.89-.3,0-.22-1.33,0-1.31,3.54.25,1.94-4.95,1.71-7.7-.15-1.83-1.34-1.84-3.52-1.82-2.19.03-1.19,5.87-1.12,8.14.04,1.11.66,1.15,1.15,1.52.07.05,0,.85-.29.97-.75.34-2.41.13-2.55.17-2.64.8-5.36,20-6.9,26.74-1.2,5.25-.07,10.6.54,16.26.32,2.95-11.11.71-16.91-.63-5.88-1.36-14.4-3.4-17.14-.38s-2.7,10.46,0,12.15c6.59,4.13,29.42-.33,37.79-.6,8.37-.27,9.7-17.66,10.1-27.72.4-10.07-.99-5.89-.15-24.92Z"/><line class="cls-10" x1="191.54" y1="69.22" x2="185.5" y2="69.22"/><polyline class="cls-10" points="189.65 67.12 191.64 69.11 189.65 71.1"/><line class="cls-10" x1="161.36" y1="85.96" x2="161.36" y2="79.92"/><polyline class="cls-10" points="159.27 84.07 161.26 86.06 163.24 84.07"/><rect class="cls-7" x="136.26" y="76.77" width="4.39" height="9.78"/><path class="cls-11" d="M110.97,114.17v-8.53h2.79c.93,0,1.62.19,2.09.57s.7.95.7,1.7c0,.4-.11.75-.34,1.06s-.54.54-.93.71c.46.13.83.37,1.09.74s.4.79.4,1.29c0,.77-.25,1.37-.74,1.8s-1.2.66-2.1.66h-2.96ZM112.09,109.28h1.7c.49,0,.89-.12,1.18-.37.29-.25.44-.58.44-1,0-.47-.14-.81-.41-1.02-.27-.21-.69-.32-1.25-.32h-1.66v2.72ZM112.09,110.18v3.07h1.86c.52,0,.94-.14,1.24-.41s.45-.65.45-1.12c0-1.03-.56-1.54-1.68-1.54h-1.88Z"/><path class="cls-11" d="M118.23,113.6c0-.19.06-.34.17-.47s.28-.19.5-.19.39.06.51.19.17.28.17.47-.06.33-.17.45-.28.18-.51.18-.39-.06-.5-.18-.17-.27-.17-.45ZM118.24,108.43c0-.19.06-.34.17-.47s.28-.19.5-.19.39.06.51.19.17.28.17.47-.06.33-.17.45-.28.18-.51.18-.39-.06-.5-.18-.17-.27-.17-.45Z"/><path class="cls-11" d="M124.68,114.17v-5.5h-1v-.84h1v-.65c0-.68.18-1.21.54-1.58s.88-.56,1.54-.56c.25,0,.5.03.74.1l-.06.87c-.18-.04-.38-.05-.59-.05-.35,0-.62.1-.81.31s-.29.5-.29.88v.67h1.35v.84h-1.35v5.5h-1.08Z"/><path class="cls-11" d="M131.38,108.8c-.16-.03-.34-.04-.53-.04-.71,0-1.19.3-1.45.91v4.5h-1.08v-6.34h1.05l.02.73c.36-.57.86-.85,1.51-.85.21,0,.37.03.48.08v1.01Z"/><path class="cls-11" d="M131.97,110.94c0-.62.12-1.18.37-1.68s.58-.88,1.02-1.15.93-.4,1.49-.4c.86,0,1.56.3,2.09.9s.8,1.39.8,2.38v.08c0,.62-.12,1.17-.35,1.66s-.57.87-1.01,1.15-.94.41-1.51.41c-.86,0-1.56-.3-2.09-.9s-.8-1.39-.8-2.37v-.08ZM133.06,111.07c0,.7.16,1.27.49,1.69s.76.64,1.31.64.99-.22,1.31-.65.49-1.04.49-1.81c0-.7-.17-1.26-.5-1.69s-.77-.65-1.32-.65-.97.21-1.29.64-.49,1.04-.49,1.83Z"/><path class="cls-11" d="M140.13,107.83l.04.8c.48-.61,1.12-.91,1.9-.91,1.34,0,2.02.76,2.03,2.27v4.19h-1.08v-4.2c0-.46-.11-.79-.31-1.01s-.52-.33-.96-.33c-.35,0-.66.09-.93.28s-.47.43-.62.74v4.52h-1.08v-6.34h1.03Z"/><path class="cls-11" d="M147.19,106.29v1.54h1.18v.84h-1.18v3.94c0,.25.05.45.16.57s.29.19.54.19c.12,0,.3-.02.52-.07v.87c-.29.08-.56.12-.83.12-.48,0-.85-.15-1.1-.44s-.37-.71-.37-1.25v-3.93h-1.15v-.84h1.15v-1.54h1.08Z"/><path class="cls-11" d="M151.9,110.99h-2.86v-.88h2.86v.88Z"/><path class="cls-11" d="M154.42,106.29v1.54h1.18v.84h-1.18v3.94c0,.25.05.45.16.57s.29.19.54.19c.12,0,.3-.02.52-.07v.87c-.29.08-.56.12-.83.12-.48,0-.85-.15-1.1-.44s-.37-.71-.37-1.25v-3.93h-1.15v-.84h1.15v-1.54h1.08Z"/><path class="cls-11" d="M156.47,110.94c0-.62.12-1.18.37-1.68s.58-.88,1.02-1.15.93-.4,1.49-.4c.86,0,1.56.3,2.09.9s.8,1.39.8,2.38v.08c0,.62-.12,1.17-.35,1.66s-.57.87-1.01,1.15-.94.41-1.51.41c-.86,0-1.56-.3-2.09-.9s-.8-1.39-.8-2.37v-.08ZM157.56,111.07c0,.7.16,1.27.49,1.69s.76.64,1.31.64.99-.22,1.31-.65.49-1.04.49-1.81c0-.7-.17-1.26-.5-1.69s-.77-.65-1.32-.65-.97.21-1.29.64-.49,1.04-.49,1.83Z"/><path class="cls-11" d="M165.85,110.99h-2.86v-.88h2.86v.88Z"/><path class="cls-11" d="M172.28,111.07c0,.97-.22,1.75-.67,2.33s-1.04.88-1.79.88c-.8,0-1.42-.28-1.86-.85l-.05.73h-1v-9h1.08v3.36c.44-.54,1.04-.81,1.81-.81s1.37.29,1.81.87.66,1.38.66,2.39v.09ZM171.19,110.95c0-.74-.14-1.31-.43-1.71s-.7-.6-1.23-.6c-.71,0-1.23.33-1.54,1v2.74c.33.66.85,1,1.55,1,.52,0,.92-.2,1.21-.6s.43-1.01.43-1.82Z"/><path class="cls-11" d="M177.56,114.17c-.06-.12-.11-.35-.15-.67-.5.52-1.11.79-1.8.79-.62,0-1.14-.18-1.54-.53s-.6-.8-.6-1.34c0-.66.25-1.17.75-1.54s1.21-.55,2.12-.55h1.05v-.5c0-.38-.11-.68-.34-.91s-.56-.34-1-.34c-.39,0-.71.1-.97.29s-.39.43-.39.71h-1.09c0-.32.11-.62.34-.92s.53-.53.91-.7.81-.26,1.27-.26c.73,0,1.3.18,1.72.55s.63.87.64,1.51v2.92c0,.58.07,1.04.22,1.39v.09h-1.14ZM175.76,113.34c.34,0,.66-.09.97-.26s.53-.4.66-.69v-1.3h-.85c-1.33,0-1.99.39-1.99,1.17,0,.34.11.61.34.8s.52.29.87.29Z"/><path class="cls-11" d="M182.71,113.4c.39,0,.72-.12,1.01-.35s.45-.53.48-.88h1.03c-.02.36-.14.71-.38,1.04s-.54.59-.92.79-.79.29-1.22.29c-.86,0-1.55-.29-2.06-.86s-.76-1.36-.76-2.36v-.18c0-.62.11-1.17.34-1.65s.55-.85.98-1.12.92-.4,1.5-.4c.71,0,1.3.21,1.77.64s.72.98.75,1.66h-1.03c-.03-.41-.19-.75-.47-1.01s-.62-.4-1.03-.4c-.55,0-.98.2-1.28.59s-.45.97-.45,1.72v.21c0,.73.15,1.29.45,1.69s.73.59,1.29.59Z"/><path class="cls-11" d="M188.22,111.23l-.68.71v2.23h-1.08v-9h1.08v5.44l.58-.7,1.97-2.09h1.32l-2.47,2.65,2.75,3.69h-1.27l-2.21-2.94Z"/><rect class="cls-9" x="21.79" y="80.55" width="113.4" height="3.15"/><path class="cls-2" d="M20.72,79.12h-.95v-4.45c0-5.32-4.31-9.64-9.64-9.64h0c-5.32,0-9.64,4.31-9.64,9.64v7.32c0,1.28,1.04,2.31,2.31,2.31h17.91c1.03,0,1.86-.83,1.86-1.86v-1.46c0-1.03-.83-1.86-1.86-1.86Z"/><circle class="cls-5" cx="10.55" cy="74.67" r="6.46"/></svg>