<?xml version="1.0" encoding="UTF-8"?><svg id="Layer_1" xmlns="http://www.w3.org/2000/svg" viewBox="0 0 238.21 172.59"><defs><style>.cls-1,.cls-2{fill:#ec1e24;}.cls-1,.cls-3{stroke-width:0px;}.cls-2{stroke:#ec1e24;}.cls-2,.cls-4,.cls-5,.cls-6,.cls-7,.cls-8{stroke-miterlimit:10;}.cls-4,.cls-5,.cls-6{fill:none;}.cls-4,.cls-5,.cls-6,.cls-7,.cls-8{stroke:#1e3a6b;}.cls-5{stroke-dasharray:0 0 2.92 2.92;}.cls-6{stroke-dasharray:0 0 3.63 3.63;}.cls-3{fill:#231f20;}.cls-7{fill:#dbe4eb;}.cls-8{fill:#99bac5;}</style></defs><path class="cls-7" d="M47.33,167.4s-30.17,1.39-33.34-3.9c-3.17-5.29.66-141.03,16.67-150.66,16.01-9.64,87.71-8.94,101.05-1.48,13.33,7.47,21.2,144.4,16.18,152.14-5.03,7.74-100.55,3.9-100.55,3.9Z"/><path class="cls-3" d="M188.79,31.46c-.11.9-.44,1.6-1,2.09s-1.31.74-2.24.74c-1.01,0-1.82-.36-2.42-1.08s-.91-1.69-.91-2.9v-.82c0-.79.14-1.49.42-2.09s.68-1.06,1.2-1.39,1.12-.48,1.8-.48c.91,0,1.63.25,2.18.76s.87,1.21.96,2.1h-1.13c-.1-.68-.31-1.18-.64-1.48s-.78-.46-1.37-.46c-.72,0-1.28.27-1.69.8-.41.53-.61,1.29-.61,2.27v.83c0,.93.19,1.66.58,2.21.39.55.93.82,1.62.82.62,0,1.1-.14,1.44-.42s.56-.78.67-1.48h1.13Z"/><path class="cls-3" d="M192.78,34.28c-.86,0-1.56-.28-2.1-.85s-.81-1.32-.81-2.26v-.2c0-.63.12-1.19.36-1.68s.58-.88,1.01-1.16.9-.42,1.4-.42c.82,0,1.46.27,1.92.81s.69,1.32.69,2.33v.45h-4.29c.02.62.2,1.13.55,1.51s.79.58,1.33.58c.38,0,.71-.08.97-.23s.5-.36.7-.62l.66.52c-.53.82-1.33,1.22-2.39,1.22ZM192.65,28.6c-.44,0-.8.16-1.1.48s-.48.76-.55,1.34h3.18v-.08c-.03-.55-.18-.98-.45-1.28s-.62-.45-1.08-.45Z"/><path class="cls-3" d="M197.54,27.83l.04.8c.48-.61,1.12-.91,1.9-.91,1.34,0,2.02.76,2.03,2.27v4.19h-1.08v-4.2c0-.46-.11-.79-.31-1.01s-.52-.33-.96-.33c-.35,0-.66.09-.93.28s-.47.43-.62.74v4.52h-1.08v-6.34h1.03Z"/><path class="cls-3" d="M204.6,26.29v1.54h1.18v.84h-1.18v3.94c0,.25.05.45.16.57s.29.19.54.19c.12,0,.3-.02.52-.07v.87c-.29.08-.56.12-.83.12-.48,0-.85-.15-1.1-.44s-.37-.71-.37-1.25v-3.93h-1.15v-.84h1.15v-1.54h1.08Z"/><path class="cls-3" d="M209.68,34.28c-.86,0-1.56-.28-2.1-.85s-.81-1.32-.81-2.26v-.2c0-.63.12-1.19.36-1.68s.58-.88,1.01-1.16.9-.42,1.4-.42c.82,0,1.46.27,1.92.81s.69,1.32.69,2.33v.45h-4.29c.02.62.2,1.13.55,1.51s.79.58,1.33.58c.38,0,.71-.08.97-.23s.5-.36.7-.62l.66.52c-.53.82-1.33,1.22-2.39,1.22ZM209.55,28.6c-.44,0-.8.16-1.1.48s-.48.76-.55,1.34h3.18v-.08c-.03-.55-.18-.98-.45-1.28s-.62-.45-1.08-.45Z"/><path class="cls-3" d="M216.47,28.8c-.16-.03-.34-.04-.53-.04-.71,0-1.19.3-1.45.91v4.5h-1.08v-6.34h1.05l.02.73c.36-.57.86-.85,1.51-.85.21,0,.37.03.48.08v1.01Z"/><path class="cls-3" d="M218.65,34.17h-1.08v-9h1.08v9Z"/><path class="cls-3" d="M220.39,26.14c0-.18.05-.32.16-.45s.27-.18.48-.18.37.06.48.18.16.27.16.45-.05.32-.16.44-.27.18-.48.18-.37-.06-.48-.18-.16-.26-.16-.44ZM221.56,34.17h-1.08v-6.34h1.08v6.34Z"/><path class="cls-3" d="M224.32,27.83l.04.8c.48-.61,1.12-.91,1.9-.91,1.34,0,2.02.76,2.03,2.27v4.19h-1.08v-4.2c0-.46-.11-.79-.31-1.01s-.52-.33-.96-.33c-.35,0-.66.09-.93.28s-.47.43-.62.74v4.52h-1.08v-6.34h1.03Z"/><path class="cls-3" d="M232.55,34.28c-.86,0-1.56-.28-2.1-.85s-.81-1.32-.81-2.26v-.2c0-.63.12-1.19.36-1.68s.58-.88,1.01-1.16.9-.42,1.4-.42c.82,0,1.46.27,1.92.81s.69,1.32.69,2.33v.45h-4.29c.02.62.2,1.13.55,1.51s.79.58,1.33.58c.38,0,.71-.08.97-.23s.5-.36.7-.62l.66.52c-.53.82-1.33,1.22-2.39,1.22ZM232.41,28.6c-.44,0-.8.16-1.1.48s-.48.76-.55,1.34h3.18v-.08c-.03-.55-.18-.98-.45-1.28s-.62-.45-1.08-.45Z"/><path class="cls-1" d="M92,48.23c-.11.9-.44,1.6-1,2.09s-1.31.74-2.24.74c-1.01,0-1.82-.36-2.42-1.08s-.91-1.69-.91-2.9v-.82c0-.79.14-1.49.42-2.09s.68-1.06,1.2-1.39,1.12-.48,1.8-.48c.91,0,1.63.25,2.18.76s.87,1.21.96,2.1h-1.13c-.1-.68-.31-1.18-.64-1.48s-.78-.46-1.37-.46c-.72,0-1.28.27-1.69.8-.41.53-.61,1.29-.61,2.27v.83c0,.93.19,1.66.58,2.21.39.55.93.82,1.62.82.62,0,1.1-.14,1.44-.42s.56-.78.67-1.48h1.13Z"/><path class="cls-1" d="M.99,87.01v-8.53h2.41c.74,0,1.4.16,1.97.49s1.01.79,1.32,1.4.47,1.3.47,2.09v.54c0,.8-.16,1.51-.47,2.12s-.75,1.07-1.33,1.39-1.25.49-2.01.5H.99ZM2.12,79.4v6.69h1.18c.87,0,1.54-.27,2.02-.81.48-.54.72-1.31.72-2.3v-.5c0-.97-.23-1.72-.68-2.26-.46-.54-1.1-.81-1.94-.82h-1.31Z"/><path class="cls-8" d="M61.35,110.79s-9.55-37.86-7.64-45.16c1.91-7.29,13.03-12.16,28.66-12.33,15.63.17,26.75,5.04,28.66,12.33,1.91,7.29-7.12,44.29-7.12,44.29,0,0,31.09,38.91,30.22,44.29s-.87,6.25-3.47,7.64-47.59,0-47.59,0c0,0-42.03,1.22-44.46-.35-2.43-1.56-3.47-4.17-2.78-8.51s25.53-42.21,25.53-42.21Z"/><path class="cls-8" d="M50.38,154.91s-3.13-.17-3.99,4.34c-.87,4.52-1.04,10.59.87,11.64s73.82,2.08,75.55,0c1.74-2.08,1.39-12.68,0-14.24-1.39-1.56-72.43-1.74-72.43-1.74Z"/><path class="cls-7" d="M57.56,16.1s17.18-.75,24.82-.75,24.82.75,24.82.75l-.42,5.68s-19.11-3.39-20.49-1.65c-1.1,1.37.16,17.28.16,17.28l-5.55.4s-.6-16.54-2.17-17.67-21.16,1.65-21.16,1.65v-5.68Z"/><path class="cls-7" d="M82.37.5c-14,0-25.35,8.79-25.35,19.63s11.35,19.63,25.35,19.63,25.35-8.79,25.35-19.63S96.37.5,82.37.5ZM82.37,36.66c-11.8,0-21.36-7.4-21.36-16.53S70.58,3.59,82.37,3.59s21.36,7.4,21.36,16.53-9.56,16.53-21.36,16.53Z"/><ellipse class="cls-7" cx="82.37" cy="17.87" rx="8.5" ry="6.51"/><path class="cls-7" d="M144.17,134.97s-.54-27.82-3.48-32.58c-1.35-2.19-14.37-28.87-18.11-33.98s1.29-57.87,1.33-59.21"/><path class="cls-4" d="M149.25,132.77c-2.62.56-4.74,1.52-5.67,3.09-4.01,6.76-2.6,22.31-1.64,29.67"/><line class="cls-4" x1="83.41" y1="53.32" x2="83.39" y2="54.82"/><line class="cls-5" x1="83.36" y1="57.74" x2="82.76" y2="108.75"/><line class="cls-4" x1="82.74" y1="110.2" x2="82.72" y2="111.7"/><line class="cls-4" x1="175.73" y1="22.9" x2="175.71" y2="24.4"/><line class="cls-6" x1="175.67" y1="28.03" x2="175.61" y2="33.48"/><line class="cls-4" x1="175.58" y1="35.3" x2="175.57" y2="36.8"/><line class="cls-2" x1="84.74" y1="52.71" x2="84.74" y2="111.4"/><line class="cls-2" x1="82.49" y1="111.7" x2="86.99" y2="111.7"/><line class="cls-2" x1="82.76" y1="52.71" x2="87.26" y2="52.71"/><line class="cls-2" x1="12.97" y1="84.2" x2="80.84" y2="84.2"/><line class="cls-2" x1="81.19" y1="86.45" x2="81.19" y2="81.95"/><line class="cls-2" x1="12.97" y1="86.18" x2="12.97" y2="81.68"/></svg>