<?xml version="1.0" encoding="UTF-8"?><svg id="Layer_1" xmlns="http://www.w3.org/2000/svg" viewBox="0 0 298.09 187.77"><defs><style>.cls-1{fill:rgba(26,109,168,.6);}.cls-1,.cls-2,.cls-3,.cls-4,.cls-5,.cls-6,.cls-7,.cls-8,.cls-9,.cls-10{stroke-miterlimit:10;}.cls-1,.cls-10{stroke:#1a6da8;}.cls-2{fill:#fcd1ac;stroke:#f99c1c;}.cls-3{fill:#fee474;stroke:#c7b56b;}.cls-4{fill:#dce5ec;}.cls-4,.cls-5,.cls-7,.cls-9{stroke:#1d3a6b;}.cls-5{fill:none;}.cls-6{fill:#ababab;stroke:#707071;}.cls-7{fill:#96adbc;}.cls-11{fill:#231f20;stroke-width:0px;}.cls-8{fill:#d2d2d1;stroke:#969696;}.cls-9{fill:#fff;}.cls-10{fill:#1a6da8;}</style></defs><path class="cls-7" d="M209.27,119.96h57.19c1.66,0,2.87-1.56,2.47-3.16l-7.82-31.27c-.24-.95-1.01-1.69-1.97-1.88l-41.22-8.24c-1.26-.25-2.51.47-2.91,1.69l-8.16,24.48c-.09.26-.13.53-.13.8v15.04c0,1.41,1.14,2.55,2.55,2.55Z"/><polygon class="cls-7" points="115.13 121.2 61.47 119.13 52.91 89.78 97.7 81.06 115.13 93.6 115.13 121.2"/><path class="cls-4" d="M269.95,83.55c-.46-6.88-11.69-39.21-14.45-42.42-2.75-3.21,2.98-3.21,1.83-5.73-1.15-2.52-102.04-4.13-120.15-1.61-18.11,2.52-52.97,31.18-52.97,31.18l-12.38,1.83c-12.38,1.83-33.48,15.82-34.62,20.87-1.15,5.04-5.5,11.46,0,25.91,4.32,11.35,19.13,10.39,25.27,9.45,1.48-.23,2.5-1.58,2.35-3.07-.85-8.07-1.12-32.34,26.73-30.23,26.18,1.98,22.53,27,21.36,32.68-.12.58.33,1.12.93,1.1,5.69-.19,30.62-.99,48.8-.99,20.64,0,52.28-.92,52.28-.92,0,0-4.36-29.81,23.16-31.87,27.52-2.06,26.95,25.27,29.47,30.44,1.11,2.28,8.14-7.97,9.05-18.97.92-11.01-6.19-10.78-6.65-17.66Z"/><path class="cls-9" d="M199.35,76.67c-1.39,23.48-5.5,31.18-7.57,32.33-2.06,1.15-58.7,5.96-65.81,4.36s-6.42-37.15-4.59-49.53c1.83-12.38,20.64-23.16,37.15-24.99,16.51-1.83,31.87-2.75,36.23-1.83.02.05,6.54,6.71,4.59,39.67Z"/><path class="cls-1" d="M179.43,49.93c.03-.77-1.79-.88-2.7-.89-.3,0-.22-1.33,0-1.31,3.54.25,1.94-4.95,1.71-7.7-.15-1.83-1.34-1.84-3.52-1.82s-1.19,5.87-1.12,8.14c.04,1.11.66,1.15,1.15,1.52.07.05,0,.85-.29.97-.75.34-2.41.13-2.55.17-2.64.8-5.36,20-6.9,26.74-1.2,5.25-.07,10.6.54,16.26.32,2.95-11.11.71-16.91-.63-5.88-1.36-14.4-3.4-17.14-.38s-2.7,10.46,0,12.15c6.59,4.13,29.42-.33,37.79-.6,8.37-.27,9.7-17.66,10.1-27.72.4-10.07-.99-5.89-.15-24.92Z"/><circle class="cls-4" cx="89.52" cy="114.56" r="22.28"/><circle class="cls-4" cx="239.92" cy="115.01" r="22.28"/><polyline class="cls-4" points="120.58 74.57 130.59 71.39 129.16 66.1 121.15 67.82"/><line class="cls-5" x1="64.97" y1="119.13" x2="67.72" y2="119.13"/><line class="cls-5" x1="110.79" y1="121.2" x2="113.37" y2="121.2"/><path class="cls-5" d="M200.84,37.48c-.52.02-.84.57-.6,1.03,1.02,1.96,3.18,6.67,3.98,12.76,1,7.58.78,10.81.78,10.81,0,0,50.12,3.1,49.97.65s-3.21-19.72-7.34-21.71-18.34-3.06-27.06-3.52c-7.1-.37-16.5-.14-19.74-.04Z"/><ellipse class="cls-4" cx="131.13" cy="68.32" rx="1.55" ry="8.83" transform="translate(-15.36 48.25) rotate(-19.72)"/><path class="cls-11" d="M124.78,159.76h-3.57l-.8,2.23h-1.16l3.26-8.53h.98l3.26,8.53h-1.15l-.81-2.23ZM121.54,158.84h2.9l-1.45-3.99-1.45,3.99Z"/><path class="cls-11" d="M127.69,161.42c0-.19.06-.34.17-.47s.28-.19.5-.19.39.06.51.19.17.28.17.47-.06.33-.17.45-.28.18-.51.18-.39-.06-.5-.18-.17-.27-.17-.45ZM127.7,156.25c0-.19.06-.34.17-.47s.28-.19.5-.19.39.06.51.19.17.28.17.47-.06.33-.17.45-.28.18-.51.18-.39-.06-.5-.18-.17-.27-.17-.45Z"/><path class="cls-11" d="M134.14,161.99v-5.5h-1v-.84h1v-.65c0-.68.18-1.21.54-1.58s.88-.56,1.54-.56c.25,0,.5.03.74.1l-.06.87c-.18-.04-.38-.05-.59-.05-.35,0-.62.1-.81.31s-.29.5-.29.88v.67h1.35v.84h-1.35v5.5h-1.08Z"/><path class="cls-11" d="M140.83,156.62c-.16-.03-.34-.04-.53-.04-.71,0-1.19.3-1.45.91v4.5h-1.08v-6.34h1.05l.02.73c.36-.57.86-.85,1.51-.85.21,0,.37.03.48.08v1.01Z"/><path class="cls-11" d="M141.42,158.76c0-.62.12-1.18.37-1.68s.58-.88,1.02-1.15.93-.4,1.49-.4c.86,0,1.56.3,2.09.9s.8,1.39.8,2.38v.08c0,.62-.12,1.17-.35,1.66s-.57.87-1.01,1.15-.94.41-1.51.41c-.86,0-1.56-.3-2.09-.9s-.8-1.39-.8-2.37v-.08ZM142.51,158.89c0,.7.16,1.27.49,1.69s.76.64,1.31.64.99-.22,1.31-.65.49-1.04.49-1.81c0-.7-.17-1.26-.5-1.69s-.77-.65-1.32-.65-.97.21-1.29.64-.49,1.04-.49,1.83Z"/><path class="cls-11" d="M149.58,155.65l.04.8c.48-.61,1.12-.91,1.9-.91,1.34,0,2.02.76,2.03,2.27v4.19h-1.08v-4.2c0-.46-.11-.79-.31-1.01s-.52-.33-.96-.33c-.35,0-.66.09-.93.28s-.47.43-.62.74v4.52h-1.08v-6.34h1.03Z"/><path class="cls-11" d="M156.65,154.12v1.54h1.18v.84h-1.18v3.94c0,.25.05.45.16.57s.29.19.54.19c.12,0,.3-.02.52-.07v.87c-.29.08-.56.12-.83.12-.48,0-.85-.15-1.1-.44s-.37-.71-.37-1.25v-3.93h-1.15v-.84h1.15v-1.54h1.08Z"/><path class="cls-11" d="M161.35,158.81h-2.86v-.88h2.86v.88Z"/><path class="cls-11" d="M163.88,154.12v1.54h1.18v.84h-1.18v3.94c0,.25.05.45.16.57s.29.19.54.19c.12,0,.3-.02.52-.07v.87c-.29.08-.56.12-.83.12-.48,0-.85-.15-1.1-.44s-.37-.71-.37-1.25v-3.93h-1.15v-.84h1.15v-1.54h1.08Z"/><path class="cls-11" d="M165.92,158.76c0-.62.12-1.18.37-1.68s.58-.88,1.02-1.15.93-.4,1.49-.4c.86,0,1.56.3,2.09.9s.8,1.39.8,2.38v.08c0,.62-.12,1.17-.35,1.66s-.57.87-1.01,1.15-.94.41-1.51.41c-.86,0-1.56-.3-2.09-.9s-.8-1.39-.8-2.37v-.08ZM167.01,158.89c0,.7.16,1.27.49,1.69s.76.64,1.31.64.99-.22,1.31-.65.49-1.04.49-1.81c0-.7-.17-1.26-.5-1.69s-.77-.65-1.32-.65-.97.21-1.29.64-.49,1.04-.49,1.83Z"/><path class="cls-11" d="M175.31,158.81h-2.86v-.88h2.86v.88Z"/><path class="cls-11" d="M176.9,161.99v-5.5h-1v-.84h1v-.65c0-.68.18-1.21.54-1.58s.88-.56,1.54-.56c.25,0,.5.03.74.1l-.06.87c-.18-.04-.38-.05-.59-.05-.35,0-.62.1-.81.31s-.29.5-.29.88v.67h1.35v.84h-1.35v5.5h-1.08Z"/><path class="cls-11" d="M183.59,156.62c-.16-.03-.34-.04-.53-.04-.71,0-1.19.3-1.45.91v4.5h-1.08v-6.34h1.05l.02.73c.36-.57.86-.85,1.51-.85.21,0,.37.03.48.08v1.01Z"/><path class="cls-11" d="M184.19,158.76c0-.62.12-1.18.37-1.68s.58-.88,1.02-1.15.93-.4,1.49-.4c.86,0,1.56.3,2.09.9s.8,1.39.8,2.38v.08c0,.62-.12,1.17-.35,1.66s-.57.87-1.01,1.15-.94.41-1.51.41c-.86,0-1.56-.3-2.09-.9s-.8-1.39-.8-2.37v-.08ZM185.28,158.89c0,.7.16,1.27.49,1.69s.76.64,1.31.64.99-.22,1.31-.65.49-1.04.49-1.81c0-.7-.17-1.26-.5-1.69s-.77-.65-1.32-.65-.97.21-1.29.64-.49,1.04-.49,1.83Z"/><path class="cls-11" d="M192.34,155.65l.04.8c.48-.61,1.12-.91,1.9-.91,1.34,0,2.02.76,2.03,2.27v4.19h-1.08v-4.2c0-.46-.11-.79-.31-1.01s-.52-.33-.96-.33c-.35,0-.66.09-.93.28s-.47.43-.62.74v4.52h-1.08v-6.34h1.03Z"/><path class="cls-11" d="M199.41,154.12v1.54h1.18v.84h-1.18v3.94c0,.25.05.45.16.57s.29.19.54.19c.12,0,.3-.02.52-.07v.87c-.29.08-.56.12-.83.12-.48,0-.85-.15-1.1-.44s-.37-.71-.37-1.25v-3.93h-1.15v-.84h1.15v-1.54h1.08Z"/><line class="cls-10" x1="122.13" y1="95.56" x2="128.17" y2="95.56"/><polyline class="cls-10" points="124.01 97.65 122.02 95.66 124.01 93.68"/><line class="cls-10" x1="151.47" y1="84" x2="151.47" y2="90.04"/><polyline class="cls-10" points="153.56 85.89 151.57 83.9 149.58 85.89"/><rect class="cls-2" x="129.65" y="107.99" width="4.39" height="9.78"/><rect class="cls-3" x="33.6" y="112.5" width="95.28" height="3.15"/><path class="cls-6" d="M32.53,111.08h-.95v-4.45c0-5.32-4.31-9.64-9.64-9.64h0c-5.32,0-9.64,4.31-9.64,9.64v7.32c0,1.28,1.04,2.31,2.31,2.31h17.91c1.03,0,1.86-.83,1.86-1.86v-1.46c0-1.03-.83-1.86-1.86-1.86Z"/><circle class="cls-8" cx="22.36" cy="106.63" r="6.46"/></svg>