<?xml version="1.0" encoding="UTF-8"?><svg id="Layer_1" xmlns="http://www.w3.org/2000/svg" viewBox="0 0 475.12 160.95"><defs><style>.cls-1{fill:rgba(26,109,168,.6);stroke:#1a6da8;}.cls-1,.cls-2,.cls-3,.cls-4,.cls-5,.cls-6,.cls-7{stroke-miterlimit:10;}.cls-2{fill:rgba(28,59,107,.6);stroke:#1c3b6b;}.cls-3{fill:#dce5ec;}.cls-3,.cls-5,.cls-6,.cls-7{stroke:#1d3a6b;}.cls-4{stroke:#ed2024;}.cls-4,.cls-8{fill:#ed2024;}.cls-5{fill:none;}.cls-6{fill:#96adbc;}.cls-9{fill:#231f20;}.cls-9,.cls-8,.cls-10{stroke-width:0px;}.cls-7{fill:#fff;}.cls-10{fill:#b5d334;}</style></defs><line class="cls-3" x1="12.75" y1="133.47" x2="272.62" y2="133.47"/><path class="cls-6" d="M199.42,116.14h57.19c1.66,0,2.87-1.56,2.47-3.16l-7.82-31.27c-.24-.95-1.01-1.69-1.97-1.88l-41.22-8.24c-1.26-.25-2.51.47-2.91,1.69l-8.16,24.48c-.09.26-.13.53-.13.8v15.04c0,1.41,1.14,2.55,2.55,2.55Z"/><polygon class="cls-6" points="105.28 117.38 51.63 115.31 43.07 85.96 87.86 77.25 105.28 89.78 105.28 117.38"/><path class="cls-3" d="M260.1,79.73c-.46-6.88-11.69-39.21-14.45-42.42-2.75-3.21,2.98-3.21,1.83-5.73-1.15-2.52-102.04-4.13-120.15-1.61-18.11,2.52-52.97,31.18-52.97,31.18l-12.38,1.83c-12.38,1.83-33.48,15.82-34.62,20.87-1.15,5.04-5.5,11.46,0,25.91,4.32,11.35,19.13,10.39,25.27,9.45,1.48-.23,2.5-1.58,2.35-3.07-.85-8.07-1.12-32.34,26.73-30.23,26.18,1.98,22.53,27,21.36,32.68-.12.58.33,1.12.93,1.1,5.69-.19,30.62-.99,48.8-.99,20.64,0,52.28-.92,52.28-.92,0,0-4.36-29.81,23.16-31.87,27.52-2.06,26.95,25.27,29.47,30.44,1.11,2.28,8.14-7.97,9.05-18.97.92-11.01-6.19-10.78-6.65-17.66Z"/><path class="cls-7" d="M189.51,72.85c-1.39,23.48-5.5,31.18-7.57,32.33-2.06,1.15-58.7,5.96-65.81,4.36-7.11-1.61-6.42-37.15-4.59-49.53,1.83-12.38,20.64-23.16,37.15-24.99,16.51-1.83,31.87-2.75,36.23-1.83.02.05,6.54,6.71,4.59,39.67Z"/><path class="cls-1" d="M169.58,46.11c.03-.77-1.79-.88-2.7-.89-.3,0-.22-1.33,0-1.31,3.54.25,1.94-4.95,1.71-7.7-.15-1.83-1.34-1.84-3.52-1.82s-1.19,5.87-1.12,8.14c.04,1.11.66,1.15,1.15,1.52.07.05,0,.85-.29.97-.75.34-2.41.13-2.55.17-2.64.8-5.36,20-6.9,26.74-1.2,5.25-.07,10.6.54,16.26.32,2.95-11.11.71-16.91-.63-5.88-1.36-14.4-3.4-17.14-.38s-2.7,10.46,0,12.15c6.59,4.13,29.42-.33,37.79-.6,8.37-.27,9.7-17.66,10.1-27.72.4-10.07-.99-5.89-.15-24.92Z"/><circle class="cls-3" cx="79.68" cy="110.74" r="22.28"/><circle class="cls-3" cx="230.08" cy="111.19" r="22.28"/><polyline class="cls-3" points="110.74 70.75 120.75 67.58 119.31 62.28 111.31 64"/><line class="cls-5" x1="55.13" y1="115.31" x2="57.87" y2="115.31"/><line class="cls-5" x1="100.95" y1="117.38" x2="103.52" y2="117.38"/><path class="cls-5" d="M190.99,33.66c-.52.02-.84.57-.6,1.03,1.02,1.96,3.18,6.67,3.98,12.76,1,7.58.78,10.81.78,10.81,0,0,50.12,3.1,49.97.65s-3.21-19.72-7.34-21.71-18.34-3.06-27.06-3.52c-7.1-.37-16.5-.14-19.74-.04Z"/><ellipse class="cls-3" cx="121.28" cy="64.51" rx="1.55" ry="8.83" transform="translate(-14.65 44.7) rotate(-19.72)"/><line class="cls-4" x1="123.22" y1="85.49" x2="23.4" y2="85.49"/><line class="cls-4" x1="22.9" y1="83.24" x2="22.9" y2="87.74"/><line class="cls-4" x1="121.23" y1="83.51" x2="121.23" y2="88.01"/><line class="cls-4" x1="122.95" y1="87.25" x2="122.95" y2="132.78"/><line class="cls-4" x1="120.7" y1="133.01" x2="125.2" y2="133.01"/><line class="cls-4" x1="120.97" y1="87.25" x2="125.47" y2="87.25"/><path class="cls-2" d="M187.34,51.71c.03-.77-1.79-.88-2.7-.89-.3,0-.22-1.33,0-1.31,3.54.25,1.94-4.95,1.71-7.7-.15-1.83-1.34-1.84-3.52-1.82s-1.19,5.87-1.12,8.14c.04,1.11.66,1.15,1.15,1.52.07.05,0,.85-.29.97-.75.34-2.41.13-2.55.17-2.64.8-5.36,20-6.9,26.74-1.2,5.25-.07,10.6.54,16.26.32,2.95-11.11.71-16.91-.63-5.88-1.36-14.4-3.4-17.14-.38s-2.7,10.46,0,12.15c6.59,4.13,29.42-.33,37.79-.6,8.37-.27,9.7-17.66,10.1-27.72.4-10.07-.99-5.89-.15-24.92Z"/><path class="cls-8" d="M69.73,81.28h-3.57l-.8,2.23h-1.16l3.26-8.53h.98l3.26,8.53h-1.15l-.81-2.23ZM66.49,80.36h2.9l-1.45-3.99-1.45,3.99Z"/><path class="cls-9" d="M321.6,39.99h-1.13v-3.94h-4.3v3.94h-1.12v-8.53h1.12v3.67h4.3v-3.67h1.13v8.53Z"/><path class="cls-9" d="M323.43,31.97c0-.18.05-.32.16-.45s.27-.18.48-.18.37.06.48.18.16.27.16.45-.05.32-.16.44-.27.18-.48.18-.37-.06-.48-.18-.16-.26-.16-.44ZM324.61,39.99h-1.08v-6.34h1.08v6.34Z"/><path class="cls-9" d="M326.08,36.76c0-.99.23-1.77.69-2.36s1.06-.88,1.82-.88,1.38.27,1.81.82l.05-.7h.99v6.19c0,.82-.24,1.47-.73,1.94s-1.14.71-1.96.71c-.46,0-.9-.1-1.34-.29s-.77-.46-1-.8l.56-.65c.46.57,1.03.86,1.71.86.53,0,.94-.15,1.23-.45s.44-.71.44-1.25v-.54c-.43.5-1.03.75-1.78.75s-1.34-.3-1.8-.9-.69-1.41-.69-2.44ZM327.17,36.89c0,.71.15,1.28.44,1.68s.7.61,1.23.61c.68,0,1.19-.31,1.51-.93v-2.89c-.33-.61-.83-.91-1.49-.91-.53,0-.94.21-1.24.62s-.45,1.02-.45,1.82Z"/><path class="cls-9" d="M334.16,34.41c.48-.59,1.11-.88,1.88-.88,1.34,0,2.02.76,2.03,2.27v4.19h-1.08v-4.2c0-.46-.11-.79-.31-1.01s-.52-.33-.96-.33c-.35,0-.66.09-.93.28s-.47.43-.62.74v4.52h-1.08v-9h1.08v3.43Z"/><path class="cls-9" d="M342.31,40.1c-.86,0-1.56-.28-2.1-.85s-.81-1.32-.81-2.26v-.2c0-.63.12-1.19.36-1.68s.58-.88,1.01-1.16.9-.42,1.4-.42c.82,0,1.46.27,1.92.81s.69,1.32.69,2.33v.45h-4.29c.02.62.2,1.13.55,1.51s.79.58,1.33.58c.38,0,.71-.08.97-.23s.5-.36.7-.62l.66.52c-.53.82-1.33,1.22-2.39,1.22ZM342.18,34.42c-.44,0-.8.16-1.1.48s-.48.76-.55,1.34h3.18v-.08c-.03-.55-.18-.98-.45-1.28s-.62-.45-1.08-.45Z"/><path class="cls-9" d="M349.73,38.31c0-.29-.11-.52-.33-.68s-.61-.3-1.15-.42-.98-.26-1.31-.42-.56-.36-.71-.59-.23-.5-.23-.81c0-.52.22-.96.66-1.32s1-.54,1.68-.54c.72,0,1.3.19,1.75.56s.67.85.67,1.42h-1.09c0-.3-.13-.55-.38-.77s-.57-.32-.95-.32-.7.09-.93.26-.33.4-.33.67c0,.26.1.46.31.59s.58.26,1.12.38.98.27,1.32.43.58.37.75.61.24.52.24.86c0,.57-.23,1.02-.68,1.36s-1.04.51-1.76.51c-.51,0-.96-.09-1.35-.27s-.7-.43-.92-.75-.33-.67-.33-1.05h1.08c.02.36.17.65.44.86s.63.32,1.08.32c.41,0,.74-.08.99-.25s.37-.39.37-.67Z"/><path class="cls-9" d="M353.7,32.11v1.54h1.18v.84h-1.18v3.94c0,.25.05.45.16.57s.29.19.54.19c.12,0,.3-.02.52-.07v.87c-.29.08-.56.12-.83.12-.48,0-.85-.15-1.1-.44s-.37-.71-.37-1.25v-3.93h-1.15v-.84h1.15v-1.54h1.08Z"/><path class="cls-9" d="M363.03,39.99c-.06-.12-.11-.35-.15-.67-.5.52-1.11.79-1.8.79-.62,0-1.14-.18-1.54-.53s-.6-.8-.6-1.34c0-.66.25-1.17.75-1.54s1.21-.55,2.12-.55h1.05v-.5c0-.38-.11-.68-.34-.91s-.56-.34-1-.34c-.39,0-.71.1-.97.29s-.39.43-.39.71h-1.09c0-.32.11-.62.34-.92s.53-.53.91-.7.81-.26,1.27-.26c.73,0,1.3.18,1.72.55s.63.87.64,1.51v2.92c0,.58.07,1.04.22,1.39v.09h-1.14ZM361.23,39.16c.34,0,.66-.09.97-.26s.53-.4.66-.69v-1.3h-.85c-1.33,0-1.99.39-1.99,1.17,0,.34.11.61.34.8s.52.29.87.29Z"/><path class="cls-9" d="M366.67,33.65l.04.8c.48-.61,1.12-.91,1.9-.91,1.34,0,2.02.76,2.03,2.27v4.19h-1.08v-4.2c0-.46-.11-.79-.31-1.01s-.52-.33-.96-.33c-.35,0-.66.09-.93.28s-.47.43-.62.74v4.52h-1.08v-6.34h1.03Z"/><path class="cls-9" d="M372,36.76c0-.97.23-1.75.69-2.35s1.06-.89,1.81-.89,1.33.25,1.76.76v-3.3h1.08v9h-1l-.05-.68c-.43.53-1.04.8-1.81.8s-1.33-.3-1.8-.9-.69-1.39-.69-2.36v-.08ZM373.09,36.89c0,.72.15,1.28.45,1.69s.71.61,1.23.61c.69,0,1.19-.31,1.51-.93v-2.91c-.32-.6-.82-.9-1.49-.9-.53,0-.95.21-1.24.62s-.45,1.02-.45,1.82Z"/><path class="cls-9" d="M382.54,39.99v-5.5h-1v-.84h1v-.65c0-.68.18-1.21.54-1.58s.88-.56,1.54-.56c.25,0,.5.03.74.1l-.06.87c-.18-.04-.38-.05-.59-.05-.35,0-.62.1-.81.31s-.29.5-.29.88v.67h1.35v.84h-1.35v5.5h-1.08Z"/><path class="cls-9" d="M390.08,39.99c-.06-.12-.11-.35-.15-.67-.5.52-1.11.79-1.8.79-.62,0-1.14-.18-1.54-.53s-.6-.8-.6-1.34c0-.66.25-1.17.75-1.54s1.21-.55,2.12-.55h1.05v-.5c0-.38-.11-.68-.34-.91s-.56-.34-1-.34c-.39,0-.71.1-.97.29s-.39.43-.39.71h-1.09c0-.32.11-.62.34-.92s.53-.53.91-.7.81-.26,1.27-.26c.73,0,1.3.18,1.72.55s.63.87.64,1.51v2.92c0,.58.07,1.04.22,1.39v.09h-1.14ZM388.29,39.16c.34,0,.66-.09.97-.26s.53-.4.66-.69v-1.3h-.85c-1.33,0-1.99.39-1.99,1.17,0,.34.11.61.34.8s.52.29.87.29Z"/><path class="cls-9" d="M395.76,34.62c-.16-.03-.34-.04-.53-.04-.71,0-1.19.3-1.45.91v4.5h-1.08v-6.34h1.05l.02.73c.36-.57.86-.85,1.51-.85.21,0,.37.03.48.08v1.01Z"/><path class="cls-9" d="M398.52,32.11v1.54h1.18v.84h-1.18v3.94c0,.25.05.45.16.57s.29.19.54.19c.12,0,.3-.02.52-.07v.87c-.29.08-.56.12-.83.12-.48,0-.85-.15-1.1-.44s-.37-.71-.37-1.25v-3.93h-1.15v-.84h1.15v-1.54h1.08Z"/><path class="cls-9" d="M402.05,34.41c.48-.59,1.11-.88,1.88-.88,1.34,0,2.02.76,2.03,2.27v4.19h-1.08v-4.2c0-.46-.11-.79-.31-1.01s-.52-.33-.96-.33c-.35,0-.66.09-.93.28s-.47.43-.62.74v4.52h-1.08v-9h1.08v3.43Z"/><path class="cls-9" d="M410.21,40.1c-.86,0-1.56-.28-2.1-.85s-.81-1.32-.81-2.26v-.2c0-.63.12-1.19.36-1.68s.58-.88,1.01-1.16.9-.42,1.4-.42c.82,0,1.46.27,1.92.81s.69,1.32.69,2.33v.45h-4.29c.02.62.2,1.13.55,1.51s.79.58,1.33.58c.38,0,.71-.08.97-.23s.5-.36.7-.62l.66.52c-.53.82-1.33,1.22-2.39,1.22ZM410.08,34.42c-.44,0-.8.16-1.1.48s-.48.76-.55,1.34h3.18v-.08c-.03-.55-.18-.98-.45-1.28s-.62-.45-1.08-.45Z"/><path class="cls-9" d="M417.63,38.31c0-.29-.11-.52-.33-.68s-.61-.3-1.15-.42-.98-.26-1.31-.42-.56-.36-.71-.59-.23-.5-.23-.81c0-.52.22-.96.66-1.32s1-.54,1.68-.54c.72,0,1.3.19,1.75.56s.67.85.67,1.42h-1.09c0-.3-.13-.55-.38-.77s-.57-.32-.95-.32-.7.09-.93.26-.33.4-.33.67c0,.26.1.46.31.59s.58.26,1.12.38.98.27,1.32.43.58.37.75.61.24.52.24.86c0,.57-.23,1.02-.68,1.36s-1.04.51-1.76.51c-.51,0-.96-.09-1.35-.27s-.7-.43-.92-.75-.33-.67-.33-1.05h1.08c.02.36.17.65.44.86s.63.32,1.08.32c.41,0,.74-.08.99-.25s.37-.39.37-.67Z"/><path class="cls-9" d="M421.6,32.11v1.54h1.18v.84h-1.18v3.94c0,.25.05.45.16.57s.29.19.54.19c.12,0,.3-.02.52-.07v.87c-.29.08-.56.12-.83.12-.48,0-.85-.15-1.1-.44s-.37-.71-.37-1.25v-3.93h-1.15v-.84h1.15v-1.54h1.08Z"/><path class="cls-9" d="M427.55,39.99v-5.5h-1v-.84h1v-.65c0-.68.18-1.21.54-1.58s.88-.56,1.54-.56c.25,0,.5.03.74.1l-.06.87c-.18-.04-.38-.05-.59-.05-.35,0-.62.1-.81.31s-.29.5-.29.88v.67h1.35v.84h-1.35v5.5h-1.08Z"/><path class="cls-9" d="M434.25,34.62c-.16-.03-.34-.04-.53-.04-.71,0-1.19.3-1.45.91v4.5h-1.08v-6.34h1.05l.02.73c.36-.57.86-.85,1.51-.85.21,0,.37.03.48.08v1.01Z"/><path class="cls-9" d="M434.84,36.76c0-.62.12-1.18.37-1.68s.58-.88,1.02-1.15.93-.4,1.49-.4c.86,0,1.56.3,2.09.9s.8,1.39.8,2.38v.08c0,.62-.12,1.17-.35,1.66s-.57.87-1.01,1.15-.94.41-1.51.41c-.86,0-1.56-.3-2.09-.9s-.8-1.39-.8-2.37v-.08ZM435.93,36.89c0,.7.16,1.27.49,1.69s.76.64,1.31.64.99-.22,1.31-.65.49-1.04.49-1.81c0-.7-.17-1.26-.5-1.69s-.77-.65-1.32-.65-.97.21-1.29.64-.49,1.04-.49,1.83Z"/><path class="cls-9" d="M442.99,33.65l.04.8c.48-.61,1.12-.91,1.9-.91,1.34,0,2.02.76,2.03,2.27v4.19h-1.08v-4.2c0-.46-.11-.79-.31-1.01s-.52-.33-.96-.33c-.35,0-.66.09-.93.28s-.47.43-.62.74v4.52h-1.08v-6.34h1.03Z"/><path class="cls-9" d="M450.06,32.11v1.54h1.18v.84h-1.18v3.94c0,.25.05.45.16.57s.29.19.54.19c.12,0,.3-.02.52-.07v.87c-.29.08-.56.12-.83.12-.48,0-.85-.15-1.1-.44s-.37-.71-.37-1.25v-3.93h-1.15v-.84h1.15v-1.54h1.08Z"/><path class="cls-9" d="M318.56,52.71c0-.29-.11-.52-.33-.68s-.61-.3-1.15-.42-.98-.26-1.31-.42-.56-.36-.71-.59-.23-.5-.23-.81c0-.52.22-.96.66-1.32s1-.54,1.68-.54c.72,0,1.3.19,1.75.56s.67.85.67,1.42h-1.09c0-.3-.13-.55-.38-.77s-.57-.32-.95-.32-.7.09-.93.26-.33.4-.33.67c0,.26.1.46.31.59s.58.26,1.12.38.98.27,1.32.43.58.37.75.61.24.52.24.86c0,.57-.23,1.02-.68,1.36s-1.04.51-1.76.51c-.51,0-.96-.09-1.35-.27s-.7-.43-.92-.75-.33-.67-.33-1.05h1.08c.02.36.17.65.44.86s.63.32,1.08.32c.41,0,.74-.08.99-.25s.37-.39.37-.67Z"/><path class="cls-9" d="M323.69,54.5c-.86,0-1.56-.28-2.1-.85s-.81-1.32-.81-2.26v-.2c0-.63.12-1.19.36-1.68s.58-.88,1.01-1.16.9-.42,1.4-.42c.82,0,1.46.27,1.92.81s.69,1.32.69,2.33v.45h-4.29c.02.62.2,1.13.55,1.51s.79.58,1.33.58c.38,0,.71-.08.97-.23s.5-.36.7-.62l.66.52c-.53.82-1.33,1.22-2.39,1.22ZM323.56,48.82c-.44,0-.8.16-1.1.48s-.48.76-.55,1.34h3.18v-.08c-.03-.55-.18-.98-.45-1.28s-.62-.45-1.08-.45Z"/><path class="cls-9" d="M331.33,54.39c-.06-.12-.11-.35-.15-.67-.5.52-1.11.79-1.8.79-.62,0-1.14-.18-1.54-.53s-.6-.8-.6-1.34c0-.66.25-1.17.75-1.54s1.21-.55,2.12-.55h1.05v-.5c0-.38-.11-.68-.34-.91s-.56-.34-1-.34c-.39,0-.71.1-.97.29s-.39.43-.39.71h-1.09c0-.32.11-.62.34-.92s.53-.53.91-.7.81-.26,1.27-.26c.73,0,1.3.18,1.72.55s.63.87.64,1.51v2.92c0,.58.07,1.04.22,1.39v.09h-1.14ZM329.53,53.56c.34,0,.66-.09.97-.26s.53-.4.66-.69v-1.3h-.85c-1.33,0-1.99.39-1.99,1.17,0,.34.11.61.34.8s.52.29.87.29Z"/><path class="cls-9" d="M335.42,46.51v1.54h1.18v.84h-1.18v3.94c0,.25.05.45.16.57s.29.19.54.19c.12,0,.3-.02.52-.07v.87c-.29.08-.56.12-.83.12-.48,0-.85-.15-1.1-.44s-.37-.71-.37-1.25v-3.93h-1.15v-.84h1.15v-1.54h1.08Z"/><path class="cls-9" d="M346.19,51.29c0,.96-.22,1.74-.66,2.33s-1.04.88-1.79.88-1.38-.24-1.82-.73v3.05h-1.08v-8.78h.99l.05.7c.44-.55,1.05-.82,1.84-.82s1.36.29,1.81.86.67,1.37.67,2.4v.1ZM345.11,51.16c0-.71-.15-1.28-.46-1.69s-.72-.62-1.25-.62c-.66,0-1.15.29-1.48.87v3.03c.32.58.82.87,1.49.87.52,0,.93-.21,1.24-.62s.46-1.02.46-1.84Z"/><path class="cls-9" d="M347.28,51.16c0-.62.12-1.18.37-1.68s.58-.88,1.02-1.15.93-.4,1.49-.4c.86,0,1.56.3,2.09.9s.8,1.39.8,2.38v.08c0,.62-.12,1.17-.35,1.66s-.57.87-1.01,1.15-.94.41-1.51.41c-.86,0-1.56-.3-2.09-.9s-.8-1.39-.8-2.37v-.08ZM348.37,51.29c0,.7.16,1.27.49,1.69s.76.64,1.31.64.99-.22,1.31-.65.49-1.04.49-1.81c0-.7-.17-1.26-.5-1.69s-.77-.65-1.32-.65-.97.21-1.29.64-.49,1.04-.49,1.83Z"/><path class="cls-9" d="M358.1,52.71c0-.29-.11-.52-.33-.68s-.61-.3-1.15-.42-.98-.26-1.31-.42-.56-.36-.71-.59-.23-.5-.23-.81c0-.52.22-.96.66-1.32s1-.54,1.68-.54c.72,0,1.3.19,1.75.56s.67.85.67,1.42h-1.09c0-.3-.13-.55-.38-.77s-.57-.32-.95-.32-.7.09-.93.26-.33.4-.33.67c0,.26.1.46.31.59s.58.26,1.12.38.98.27,1.32.43.58.37.75.61.24.52.24.86c0,.57-.23,1.02-.68,1.36s-1.04.51-1.76.51c-.51,0-.96-.09-1.35-.27s-.7-.43-.92-.75-.33-.67-.33-1.05h1.08c.02.36.17.65.44.86s.63.32,1.08.32c.41,0,.74-.08.99-.25s.37-.39.37-.67Z"/><path class="cls-9" d="M360.61,46.37c0-.18.05-.32.16-.45s.27-.18.48-.18.37.06.48.18.16.27.16.45-.05.32-.16.44-.27.18-.48.18-.37-.06-.48-.18-.16-.26-.16-.44ZM361.78,54.39h-1.08v-6.34h1.08v6.34Z"/><path class="cls-9" d="M364.98,46.51v1.54h1.18v.84h-1.18v3.94c0,.25.05.45.16.57s.29.19.54.19c.12,0,.3-.02.52-.07v.87c-.29.08-.56.12-.83.12-.48,0-.85-.15-1.1-.44s-.37-.71-.37-1.25v-3.93h-1.15v-.84h1.15v-1.54h1.08Z"/><path class="cls-9" d="M367.44,46.37c0-.18.05-.32.16-.45s.27-.18.48-.18.37.06.48.18.16.27.16.45-.05.32-.16.44-.27.18-.48.18-.37-.06-.48-.18-.16-.26-.16-.44ZM368.61,54.39h-1.08v-6.34h1.08v6.34Z"/><path class="cls-9" d="M370.06,51.16c0-.62.12-1.18.37-1.68s.58-.88,1.02-1.15.93-.4,1.49-.4c.86,0,1.56.3,2.09.9s.8,1.39.8,2.38v.08c0,.62-.12,1.17-.35,1.66s-.57.87-1.01,1.15-.94.41-1.51.41c-.86,0-1.56-.3-2.09-.9s-.8-1.39-.8-2.37v-.08ZM371.15,51.29c0,.7.16,1.27.49,1.69s.76.64,1.31.64.99-.22,1.31-.65.49-1.04.49-1.81c0-.7-.17-1.26-.5-1.69s-.77-.65-1.32-.65-.97.21-1.29.64-.49,1.04-.49,1.83Z"/><path class="cls-9" d="M378.21,48.05l.04.8c.48-.61,1.12-.91,1.9-.91,1.34,0,2.02.76,2.03,2.27v4.19h-1.08v-4.2c0-.46-.11-.79-.31-1.01s-.52-.33-.96-.33c-.35,0-.66.09-.93.28s-.47.43-.62.74v4.52h-1.08v-6.34h1.03Z"/><path class="cls-9" d="M316.06,77.65h4.04v.92h-5.17v-8.53h1.13v7.61Z"/><path class="cls-9" d="M320.92,75.34c0-.62.12-1.18.37-1.68s.58-.88,1.02-1.15.93-.4,1.49-.4c.86,0,1.56.3,2.09.9s.8,1.39.8,2.38v.08c0,.62-.12,1.17-.35,1.66s-.57.87-1.01,1.15-.94.41-1.51.41c-.86,0-1.56-.3-2.09-.9s-.8-1.39-.8-2.37v-.08ZM322.01,75.47c0,.7.16,1.27.49,1.69s.76.64,1.31.64.99-.22,1.31-.65.49-1.04.49-1.81c0-.7-.17-1.26-.5-1.69s-.77-.65-1.32-.65-.97.21-1.29.64-.49,1.04-.49,1.83Z"/><path class="cls-9" d="M333.67,77.07l1.22-4.85h1.08l-1.85,6.34h-.88l-1.54-4.8-1.5,4.8h-.88l-1.84-6.34h1.08l1.25,4.75,1.48-4.75h.87l1.51,4.85Z"/><path class="cls-9" d="M339.7,78.68c-.86,0-1.56-.28-2.1-.85s-.81-1.32-.81-2.26v-.2c0-.63.12-1.19.36-1.68s.58-.88,1.01-1.16.9-.42,1.4-.42c.82,0,1.46.27,1.92.81s.69,1.32.69,2.33v.45h-4.29c.02.62.2,1.13.55,1.51s.79.58,1.33.58c.38,0,.71-.08.97-.23s.5-.36.7-.62l.66.52c-.53.82-1.33,1.22-2.39,1.22ZM339.57,73c-.44,0-.8.16-1.1.48s-.48.76-.55,1.34h3.18v-.08c-.03-.55-.18-.98-.45-1.28s-.62-.45-1.08-.45Z"/><path class="cls-9" d="M347.12,76.89c0-.29-.11-.52-.33-.68s-.61-.3-1.15-.42-.98-.26-1.31-.42-.56-.36-.71-.59-.23-.5-.23-.81c0-.52.22-.96.66-1.32s1-.54,1.68-.54c.72,0,1.3.19,1.75.56s.67.85.67,1.42h-1.09c0-.3-.13-.55-.38-.77s-.57-.32-.95-.32-.7.09-.93.26-.33.4-.33.67c0,.26.1.46.31.59s.58.26,1.12.38.98.27,1.32.43.58.37.75.61.24.52.24.86c0,.57-.23,1.02-.68,1.36s-1.04.51-1.76.51c-.51,0-.96-.09-1.35-.27s-.7-.43-.92-.75-.33-.67-.33-1.05h1.08c.02.36.17.65.44.86s.63.32,1.08.32c.41,0,.74-.08.99-.25s.37-.39.37-.67Z"/><path class="cls-9" d="M351.09,70.69v1.54h1.18v.84h-1.18v3.94c0,.25.05.45.16.57s.29.19.54.19c.12,0,.3-.02.52-.07v.87c-.29.08-.56.12-.83.12-.48,0-.85-.15-1.1-.44s-.37-.71-.37-1.25v-3.93h-1.15v-.84h1.15v-1.54h1.08Z"/><path class="cls-9" d="M360.42,78.57c-.06-.12-.11-.35-.15-.67-.5.52-1.11.79-1.8.79-.62,0-1.14-.18-1.54-.53s-.6-.8-.6-1.34c0-.66.25-1.17.75-1.54s1.21-.55,2.12-.55h1.05v-.5c0-.38-.11-.68-.34-.91s-.56-.34-1-.34c-.39,0-.71.1-.97.29s-.39.43-.39.71h-1.09c0-.32.11-.62.34-.92s.53-.53.91-.7.81-.26,1.27-.26c.73,0,1.3.18,1.72.55s.63.87.64,1.51v2.92c0,.58.07,1.04.22,1.39v.09h-1.14ZM358.62,77.74c.34,0,.66-.09.97-.26s.53-.4.66-.69v-1.3h-.85c-1.33,0-1.99.39-1.99,1.17,0,.34.11.61.34.8s.52.29.87.29Z"/><path class="cls-9" d="M364.06,72.23l.04.8c.48-.61,1.12-.91,1.9-.91,1.34,0,2.02.76,2.03,2.27v4.19h-1.08v-4.2c0-.46-.11-.79-.31-1.01s-.52-.33-.96-.33c-.35,0-.66.09-.93.28s-.47.43-.62.74v4.52h-1.08v-6.34h1.03Z"/><path class="cls-9" d="M369.39,75.34c0-.97.23-1.75.69-2.35s1.06-.89,1.81-.89,1.33.25,1.76.76v-3.3h1.08v9h-1l-.05-.68c-.43.53-1.04.8-1.81.8s-1.33-.3-1.8-.9-.69-1.39-.69-2.36v-.08ZM370.48,75.47c0,.72.15,1.28.45,1.69s.71.61,1.23.61c.69,0,1.19-.31,1.51-.93v-2.91c-.32-.6-.82-.9-1.49-.9-.53,0-.95.21-1.24.62s-.45,1.02-.45,1.82Z"/><path class="cls-9" d="M379.93,78.57v-5.5h-1v-.84h1v-.65c0-.68.18-1.21.54-1.58s.88-.56,1.54-.56c.25,0,.5.03.74.1l-.06.87c-.18-.04-.38-.05-.59-.05-.35,0-.62.1-.81.31s-.29.5-.29.88v.67h1.35v.84h-1.35v5.5h-1.08Z"/><path class="cls-9" d="M387.48,78.57c-.06-.12-.11-.35-.15-.67-.5.52-1.11.79-1.8.79-.62,0-1.14-.18-1.54-.53s-.6-.8-.6-1.34c0-.66.25-1.17.75-1.54s1.21-.55,2.12-.55h1.05v-.5c0-.38-.11-.68-.34-.91s-.56-.34-1-.34c-.39,0-.71.1-.97.29s-.39.43-.39.71h-1.09c0-.32.11-.62.34-.92s.53-.53.91-.7.81-.26,1.27-.26c.73,0,1.3.18,1.72.55s.63.87.64,1.51v2.92c0,.58.07,1.04.22,1.39v.09h-1.14ZM385.68,77.74c.34,0,.66-.09.97-.26s.53-.4.66-.69v-1.3h-.85c-1.33,0-1.99.39-1.99,1.17,0,.34.11.61.34.8s.52.29.87.29Z"/><path class="cls-9" d="M393.15,73.2c-.16-.03-.34-.04-.53-.04-.71,0-1.19.3-1.45.91v4.5h-1.08v-6.34h1.05l.02.73c.36-.57.86-.85,1.51-.85.21,0,.37.03.48.08v1.01Z"/><path class="cls-9" d="M395.91,70.69v1.54h1.18v.84h-1.18v3.94c0,.25.05.45.16.57s.29.19.54.19c.12,0,.3-.02.52-.07v.87c-.29.08-.56.12-.83.12-.48,0-.85-.15-1.1-.44s-.37-.71-.37-1.25v-3.93h-1.15v-.84h1.15v-1.54h1.08Z"/><path class="cls-9" d="M399.45,73c.48-.59,1.11-.88,1.88-.88,1.34,0,2.02.76,2.03,2.27v4.19h-1.08v-4.2c0-.46-.11-.79-.31-1.01s-.52-.33-.96-.33c-.35,0-.66.09-.93.28s-.47.43-.62.74v4.52h-1.08v-9h1.08v3.43Z"/><path class="cls-9" d="M407.6,78.68c-.86,0-1.56-.28-2.1-.85s-.81-1.32-.81-2.26v-.2c0-.63.12-1.19.36-1.68s.58-.88,1.01-1.16.9-.42,1.4-.42c.82,0,1.46.27,1.92.81s.69,1.32.69,2.33v.45h-4.29c.02.62.2,1.13.55,1.51s.79.58,1.33.58c.38,0,.71-.08.97-.23s.5-.36.7-.62l.66.52c-.53.82-1.33,1.22-2.39,1.22ZM407.47,73c-.44,0-.8.16-1.1.48s-.48.76-.55,1.34h3.18v-.08c-.03-.55-.18-.98-.45-1.28s-.62-.45-1.08-.45Z"/><path class="cls-9" d="M415.02,76.89c0-.29-.11-.52-.33-.68s-.61-.3-1.15-.42-.98-.26-1.31-.42-.56-.36-.71-.59-.23-.5-.23-.81c0-.52.22-.96.66-1.32s1-.54,1.68-.54c.72,0,1.3.19,1.75.56s.67.85.67,1.42h-1.09c0-.3-.13-.55-.38-.77s-.57-.32-.95-.32-.7.09-.93.26-.33.4-.33.67c0,.26.1.46.31.59s.58.26,1.12.38.98.27,1.32.43.58.37.75.61.24.52.24.86c0,.57-.23,1.02-.68,1.36s-1.04.51-1.76.51c-.51,0-.96-.09-1.35-.27s-.7-.43-.92-.75-.33-.67-.33-1.05h1.08c.02.36.17.65.44.86s.63.32,1.08.32c.41,0,.74-.08.99-.25s.37-.39.37-.67Z"/><path class="cls-9" d="M418.99,70.69v1.54h1.18v.84h-1.18v3.94c0,.25.05.45.16.57s.29.19.54.19c.12,0,.3-.02.52-.07v.87c-.29.08-.56.12-.83.12-.48,0-.85-.15-1.1-.44s-.37-.71-.37-1.25v-3.93h-1.15v-.84h1.15v-1.54h1.08Z"/><path class="cls-9" d="M429.77,75.47c0,.97-.22,1.75-.67,2.33s-1.04.88-1.79.88c-.8,0-1.42-.28-1.86-.85l-.05.73h-1v-9h1.08v3.36c.44-.54,1.04-.81,1.81-.81s1.37.29,1.81.87.66,1.38.66,2.39v.09ZM428.69,75.34c0-.74-.14-1.31-.43-1.71s-.7-.6-1.23-.6c-.71,0-1.23.33-1.54,1v2.74c.33.66.85,1,1.55,1,.52,0,.92-.2,1.21-.6s.43-1.01.43-1.82Z"/><path class="cls-9" d="M435.05,78.57c-.06-.12-.11-.35-.15-.67-.5.52-1.11.79-1.8.79-.62,0-1.14-.18-1.54-.53s-.6-.8-.6-1.34c0-.66.25-1.17.75-1.54s1.21-.55,2.12-.55h1.05v-.5c0-.38-.11-.68-.34-.91s-.56-.34-1-.34c-.39,0-.71.1-.97.29s-.39.43-.39.71h-1.09c0-.32.11-.62.34-.92s.53-.53.91-.7.81-.26,1.27-.26c.73,0,1.3.18,1.72.55s.63.87.64,1.51v2.92c0,.58.07,1.04.22,1.39v.09h-1.14ZM433.25,77.74c.34,0,.66-.09.97-.26s.53-.4.66-.69v-1.3h-.85c-1.33,0-1.99.39-1.99,1.17,0,.34.11.61.34.8s.52.29.87.29Z"/><path class="cls-9" d="M440.21,77.8c.39,0,.72-.12,1.01-.35s.45-.53.48-.88h1.03c-.02.36-.14.71-.38,1.04s-.54.59-.92.79-.79.29-1.22.29c-.86,0-1.55-.29-2.06-.86s-.76-1.36-.76-2.36v-.18c0-.62.11-1.17.34-1.65s.55-.85.98-1.12.92-.4,1.5-.4c.71,0,1.3.21,1.77.64s.72.98.75,1.66h-1.03c-.03-.41-.19-.75-.47-1.01s-.62-.4-1.03-.4c-.55,0-.98.2-1.28.59s-.45.97-.45,1.72v.21c0,.73.15,1.29.45,1.69s.73.59,1.29.59Z"/><path class="cls-9" d="M445.72,75.63l-.68.71v2.23h-1.08v-9h1.08v5.44l.58-.7,1.97-2.09h1.32l-2.47,2.65,2.75,3.69h-1.27l-2.21-2.94Z"/><path class="cls-9" d="M318.45,91.29c0-.29-.11-.52-.33-.68s-.61-.3-1.15-.42-.98-.26-1.31-.42-.56-.36-.71-.59-.23-.5-.23-.81c0-.52.22-.96.66-1.32s1-.54,1.68-.54c.72,0,1.3.19,1.75.56s.67.85.67,1.42h-1.09c0-.3-.13-.55-.38-.77s-.57-.32-.95-.32-.7.09-.93.26-.33.4-.33.67c0,.26.1.46.31.59s.58.26,1.12.38.98.27,1.32.43.58.37.75.61.24.52.24.86c0,.57-.23,1.02-.68,1.36s-1.04.51-1.76.51c-.51,0-.96-.09-1.35-.27s-.7-.43-.92-.75-.33-.67-.33-1.05h1.08c.02.36.17.65.44.86s.63.32,1.08.32c.41,0,.74-.08.99-.25s.37-.39.37-.67Z"/><path class="cls-9" d="M323.57,93.08c-.86,0-1.56-.28-2.1-.85s-.81-1.32-.81-2.26v-.2c0-.63.12-1.19.36-1.68s.58-.88,1.01-1.16.9-.42,1.4-.42c.82,0,1.46.27,1.92.81s.69,1.32.69,2.33v.45h-4.29c.02.62.2,1.13.55,1.51s.79.58,1.33.58c.38,0,.71-.08.97-.23s.5-.36.7-.62l.66.52c-.53.82-1.33,1.22-2.39,1.22ZM323.44,87.4c-.44,0-.8.16-1.1.48s-.48.76-.55,1.34h3.18v-.08c-.03-.55-.18-.98-.45-1.28s-.62-.45-1.08-.45Z"/><path class="cls-9" d="M331.21,92.97c-.06-.12-.11-.35-.15-.67-.5.52-1.11.79-1.8.79-.62,0-1.14-.18-1.54-.53s-.6-.8-.6-1.34c0-.66.25-1.17.75-1.54s1.21-.55,2.12-.55h1.05v-.5c0-.38-.11-.68-.34-.91s-.56-.34-1-.34c-.39,0-.71.1-.97.29s-.39.43-.39.71h-1.09c0-.32.11-.62.34-.92s.53-.53.91-.7.81-.26,1.27-.26c.73,0,1.3.18,1.72.55s.63.87.64,1.51v2.92c0,.58.07,1.04.22,1.39v.09h-1.14ZM329.42,92.14c.34,0,.66-.09.97-.26s.53-.4.66-.69v-1.3h-.85c-1.33,0-1.99.39-1.99,1.17,0,.34.11.61.34.8s.52.29.87.29Z"/><path class="cls-9" d="M335.3,85.09v1.54h1.18v.84h-1.18v3.94c0,.25.05.45.16.57s.29.19.54.19c.12,0,.3-.02.52-.07v.87c-.29.08-.56.12-.83.12-.48,0-.85-.15-1.1-.44s-.37-.71-.37-1.25v-3.93h-1.15v-.84h1.15v-1.54h1.08Z"/><path class="cls-9" d="M346.07,89.87c0,.96-.22,1.74-.66,2.33s-1.04.88-1.79.88-1.38-.24-1.82-.73v3.05h-1.08v-8.78h.99l.05.7c.44-.55,1.05-.82,1.84-.82s1.36.29,1.81.86.67,1.37.67,2.4v.1ZM344.99,89.75c0-.71-.15-1.28-.46-1.69s-.72-.62-1.25-.62c-.66,0-1.15.29-1.48.87v3.03c.32.58.82.87,1.49.87.52,0,.93-.21,1.24-.62s.46-1.02.46-1.84Z"/><path class="cls-9" d="M347.16,89.74c0-.62.12-1.18.37-1.68s.58-.88,1.02-1.15.93-.4,1.49-.4c.86,0,1.56.3,2.09.9s.8,1.39.8,2.38v.08c0,.62-.12,1.17-.35,1.66s-.57.87-1.01,1.15-.94.41-1.51.41c-.86,0-1.56-.3-2.09-.9s-.8-1.39-.8-2.37v-.08ZM348.25,89.87c0,.7.16,1.27.49,1.69s.76.64,1.31.64.99-.22,1.31-.65.49-1.04.49-1.81c0-.7-.17-1.26-.5-1.69s-.77-.65-1.32-.65-.97.21-1.29.64-.49,1.04-.49,1.83Z"/><path class="cls-9" d="M357.99,91.29c0-.29-.11-.52-.33-.68s-.61-.3-1.15-.42-.98-.26-1.31-.42-.56-.36-.71-.59-.23-.5-.23-.81c0-.52.22-.96.66-1.32s1-.54,1.68-.54c.72,0,1.3.19,1.75.56s.67.85.67,1.42h-1.09c0-.3-.13-.55-.38-.77s-.57-.32-.95-.32-.7.09-.93.26-.33.4-.33.67c0,.26.1.46.31.59s.58.26,1.12.38.98.27,1.32.43.58.37.75.61.24.52.24.86c0,.57-.23,1.02-.68,1.36s-1.04.51-1.76.51c-.51,0-.96-.09-1.35-.27s-.7-.43-.92-.75-.33-.67-.33-1.05h1.08c.02.36.17.65.44.86s.63.32,1.08.32c.41,0,.74-.08.99-.25s.37-.39.37-.67Z"/><path class="cls-9" d="M360.49,84.95c0-.18.05-.32.16-.45s.27-.18.48-.18.37.06.48.18.16.27.16.45-.05.32-.16.44-.27.18-.48.18-.37-.06-.48-.18-.16-.26-.16-.44ZM361.66,92.97h-1.08v-6.34h1.08v6.34Z"/><path class="cls-9" d="M364.86,85.09v1.54h1.18v.84h-1.18v3.94c0,.25.05.45.16.57s.29.19.54.19c.12,0,.3-.02.52-.07v.87c-.29.08-.56.12-.83.12-.48,0-.85-.15-1.1-.44s-.37-.71-.37-1.25v-3.93h-1.15v-.84h1.15v-1.54h1.08Z"/><path class="cls-9" d="M367.32,84.95c0-.18.05-.32.16-.45s.27-.18.48-.18.37.06.48.18.16.27.16.45-.05.32-.16.44-.27.18-.48.18-.37-.06-.48-.18-.16-.26-.16-.44ZM368.49,92.97h-1.08v-6.34h1.08v6.34Z"/><path class="cls-9" d="M369.94,89.74c0-.62.12-1.18.37-1.68s.58-.88,1.02-1.15.93-.4,1.49-.4c.86,0,1.56.3,2.09.9s.8,1.39.8,2.38v.08c0,.62-.12,1.17-.35,1.66s-.57.87-1.01,1.15-.94.41-1.51.41c-.86,0-1.56-.3-2.09-.9s-.8-1.39-.8-2.37v-.08ZM371.03,89.87c0,.7.16,1.27.49,1.69s.76.64,1.31.64.99-.22,1.31-.65.49-1.04.49-1.81c0-.7-.17-1.26-.5-1.69s-.77-.65-1.32-.65-.97.21-1.29.64-.49,1.04-.49,1.83Z"/><path class="cls-9" d="M378.09,86.63l.04.8c.48-.61,1.12-.91,1.9-.91,1.34,0,2.02.76,2.03,2.27v4.19h-1.08v-4.2c0-.46-.11-.79-.31-1.01s-.52-.33-.96-.33c-.35,0-.66.09-.93.28s-.47.43-.62.74v4.52h-1.08v-6.34h1.03Z"/><path class="cls-8" d="M75.16,102.85v-8.53h2.79c.93,0,1.62.19,2.09.57s.7.95.7,1.7c0,.4-.11.75-.34,1.06s-.54.54-.93.71c.46.13.83.37,1.09.74s.4.79.4,1.29c0,.77-.25,1.37-.74,1.8s-1.2.66-2.1.66h-2.96ZM76.29,97.96h1.7c.49,0,.89-.12,1.18-.37.29-.25.44-.58.44-1,0-.47-.14-.81-.41-1.02-.27-.21-.69-.32-1.25-.32h-1.66v2.72ZM76.29,98.86v3.07h1.86c.52,0,.94-.14,1.24-.41s.45-.65.45-1.12c0-1.03-.56-1.54-1.68-1.54h-1.88Z"/><path class="cls-8" d="M124.7,140.31h-3.7v3.02h4.29v.92h-5.42v-8.53h5.36v.92h-4.24v2.75h3.7v.92Z"/><path class="cls-8" d="M142.35,140.61h-3.58v3.77h-1.12v-8.53h5.29v.92h-4.16v2.92h3.58v.92Z"/><rect class="cls-1" x="288.4" y="31.19" width="17.6" height="17.6"/><rect class="cls-2" x="288.4" y="68.45" width="17.6" height="17.6"/><line class="cls-4" x1="139.22" y1="92.49" x2="23.4" y2="92.49"/><line class="cls-4" x1="22.9" y1="90.2" x2="22.9" y2="94.7"/><line class="cls-4" x1="137.23" y1="90.51" x2="137.23" y2="95.01"/><circle class="cls-10" cx="123.22" cy="85.49" r="1.45"/><circle class="cls-10" cx="139.05" cy="92.29" r="1.45"/><line class="cls-4" x1="138.91" y1="94.32" x2="138.91" y2="132.87"/><line class="cls-4" x1="136.66" y1="133.07" x2="141.16" y2="133.07"/><line class="cls-4" x1="136.93" y1="94.32" x2="141.43" y2="94.32"/></svg>