<?xml version="1.0" encoding="UTF-8"?><svg id="Layer_1" xmlns="http://www.w3.org/2000/svg" viewBox="0 0 297.27 198"><defs><style>.cls-1{fill:#dce5ec;}.cls-1,.cls-2,.cls-3,.cls-4,.cls-5,.cls-6{stroke-miterlimit:10;}.cls-1,.cls-3,.cls-4,.cls-5,.cls-6{stroke:#1d3a6b;}.cls-2{stroke:#ed2024;}.cls-2,.cls-7{fill:#ed2024;}.cls-3,.cls-4,.cls-6{fill:none;}.cls-4{stroke-dasharray:0 0 3.63 3.63;}.cls-8{fill:#231f20;}.cls-8,.cls-7{stroke-width:0px;}.cls-5{fill:#9abbc6;}.cls-6{stroke-dasharray:0 0 2.92 2.92;}</style></defs><path class="cls-1" d="M82.1,179.2s-30.17,1.39-33.34-3.9c-3.17-5.29.66-141.03,16.67-150.66,16.01-9.64,87.71-8.94,101.05-1.48,13.33,7.47,21.2,144.4,16.18,152.14-5.03,7.74-100.55,3.9-100.55,3.9Z"/><path class="cls-8" d="M223.56,42.26c-.11.9-.44,1.6-1,2.09s-1.31.74-2.24.74c-1.01,0-1.82-.36-2.42-1.08s-.91-1.69-.91-2.9v-.82c0-.79.14-1.49.42-2.09s.68-1.06,1.2-1.39,1.12-.48,1.8-.48c.91,0,1.63.25,2.18.76s.87,1.21.96,2.1h-1.13c-.1-.68-.31-1.18-.64-1.48s-.78-.46-1.37-.46c-.72,0-1.28.27-1.69.8-.41.53-.61,1.29-.61,2.27v.83c0,.93.19,1.66.58,2.21.39.55.93.82,1.62.82.62,0,1.1-.14,1.44-.42s.56-.78.67-1.48h1.13Z"/><path class="cls-8" d="M227.56,45.09c-.86,0-1.56-.28-2.1-.85s-.81-1.32-.81-2.26v-.2c0-.63.12-1.19.36-1.68s.58-.88,1.01-1.16.9-.42,1.4-.42c.82,0,1.46.27,1.92.81s.69,1.32.69,2.33v.45h-4.29c.02.62.2,1.13.55,1.51s.79.58,1.33.58c.38,0,.71-.08.97-.23s.5-.36.7-.62l.66.52c-.53.82-1.33,1.22-2.39,1.22ZM227.42,39.4c-.44,0-.8.16-1.1.48s-.48.76-.55,1.34h3.18v-.08c-.03-.55-.18-.98-.45-1.28s-.62-.45-1.08-.45Z"/><path class="cls-8" d="M232.31,38.63l.04.8c.48-.61,1.12-.91,1.9-.91,1.34,0,2.02.76,2.03,2.27v4.19h-1.08v-4.2c0-.46-.11-.79-.31-1.01s-.52-.33-.96-.33c-.35,0-.66.09-.93.28s-.47.43-.62.74v4.52h-1.08v-6.34h1.03Z"/><path class="cls-8" d="M239.38,37.1v1.54h1.18v.84h-1.18v3.94c0,.25.05.45.16.57s.29.19.54.19c.12,0,.3-.02.52-.07v.87c-.29.08-.56.12-.83.12-.48,0-.85-.15-1.1-.44s-.37-.71-.37-1.25v-3.93h-1.15v-.84h1.15v-1.54h1.08Z"/><path class="cls-8" d="M244.46,45.09c-.86,0-1.56-.28-2.1-.85s-.81-1.32-.81-2.26v-.2c0-.63.12-1.19.36-1.68s.58-.88,1.01-1.16.9-.42,1.4-.42c.82,0,1.46.27,1.92.81s.69,1.32.69,2.33v.45h-4.29c.02.62.2,1.13.55,1.51s.79.58,1.33.58c.38,0,.71-.08.97-.23s.5-.36.7-.62l.66.52c-.53.82-1.33,1.22-2.39,1.22ZM244.32,39.4c-.44,0-.8.16-1.1.48s-.48.76-.55,1.34h3.18v-.08c-.03-.55-.18-.98-.45-1.28s-.62-.45-1.08-.45Z"/><path class="cls-8" d="M251.25,39.6c-.16-.03-.34-.04-.53-.04-.71,0-1.19.3-1.45.91v4.5h-1.08v-6.34h1.05l.02.73c.36-.57.86-.85,1.51-.85.21,0,.37.03.48.08v1.01Z"/><path class="cls-8" d="M253.42,44.97h-1.08v-9h1.08v9Z"/><path class="cls-8" d="M255.16,36.95c0-.18.05-.32.16-.45s.27-.18.48-.18.37.06.48.18.16.27.16.45-.05.32-.16.44-.27.18-.48.18-.37-.06-.48-.18-.16-.26-.16-.44ZM256.34,44.97h-1.08v-6.34h1.08v6.34Z"/><path class="cls-8" d="M259.09,38.63l.04.8c.48-.61,1.12-.91,1.9-.91,1.34,0,2.02.76,2.03,2.27v4.19h-1.08v-4.2c0-.46-.11-.79-.31-1.01s-.52-.33-.96-.33c-.35,0-.66.09-.93.28s-.47.43-.62.74v4.52h-1.08v-6.34h1.03Z"/><path class="cls-8" d="M267.32,45.09c-.86,0-1.56-.28-2.1-.85s-.81-1.32-.81-2.26v-.2c0-.63.12-1.19.36-1.68s.58-.88,1.01-1.16.9-.42,1.4-.42c.82,0,1.46.27,1.92.81s.69,1.32.69,2.33v.45h-4.29c.02.62.2,1.13.55,1.51s.79.58,1.33.58c.38,0,.71-.08.97-.23s.5-.36.7-.62l.66.52c-.53.82-1.33,1.22-2.39,1.22ZM267.19,39.4c-.44,0-.8.16-1.1.48s-.48.76-.55,1.34h3.18v-.08c-.03-.55-.18-.98-.45-1.28s-.62-.45-1.08-.45Z"/><path class="cls-7" d="M126.78,60.04c-.11.9-.44,1.6-1,2.09s-1.31.74-2.24.74c-1.01,0-1.82-.36-2.42-1.08s-.91-1.69-.91-2.9v-.82c0-.79.14-1.49.42-2.09s.68-1.06,1.2-1.39,1.12-.48,1.8-.48c.91,0,1.63.25,2.18.76s.87,1.21.96,2.1h-1.13c-.1-.68-.31-1.18-.64-1.48s-.78-.46-1.37-.46c-.72,0-1.28.27-1.69.8-.41.53-.61,1.29-.61,2.27v.83c0,.93.19,1.66.58,2.21.39.55.93.82,1.62.82.62,0,1.1-.14,1.44-.42s.56-.78.67-1.48h1.13Z"/><path class="cls-7" d="M35.77,98.82v-8.53h2.41c.74,0,1.4.16,1.97.49s1.01.79,1.32,1.4.47,1.3.47,2.09v.54c0,.8-.16,1.51-.47,2.12s-.75,1.07-1.33,1.39-1.25.49-2.01.5h-2.36ZM36.89,91.21v6.69h1.18c.87,0,1.54-.27,2.02-.81.48-.54.72-1.31.72-2.3v-.5c0-.97-.23-1.72-.68-2.26-.46-.54-1.1-.81-1.94-.82h-1.31Z"/><path class="cls-5" d="M96.13,122.6s-9.55-37.86-7.64-45.16c1.91-7.29,13.03-12.16,28.66-12.33,15.63.17,26.75,5.04,28.66,12.33,1.91,7.29-7.12,44.29-7.12,44.29,0,0,31.09,38.91,30.22,44.29s-.87,6.25-3.47,7.64-47.59,0-47.59,0c0,0-42.03,1.22-44.46-.35-2.43-1.56-3.47-4.17-2.78-8.51s25.53-42.21,25.53-42.21Z"/><path class="cls-5" d="M85.16,166.71s-3.13-.17-3.99,4.34c-.87,4.52-1.04,10.59.87,11.64s73.82,2.08,75.55,0c1.74-2.08,1.39-12.68,0-14.24-1.39-1.56-72.43-1.74-72.43-1.74Z"/><path class="cls-1" d="M92.33,27.91s17.18-.75,24.82-.75,24.82.75,24.82.75l-.42,5.68s-19.11-3.39-20.49-1.65c-1.1,1.37.16,17.28.16,17.28l-5.55.4s-.6-16.54-2.17-17.67-21.16,1.65-21.16,1.65v-5.68Z"/><path class="cls-1" d="M117.15,12.31c-14,0-25.35,8.79-25.35,19.63s11.35,19.63,25.35,19.63,25.35-8.79,25.35-19.63-11.35-19.63-25.35-19.63ZM117.15,48.47c-11.8,0-21.36-7.4-21.36-16.53s9.56-16.53,21.36-16.53,21.36,7.4,21.36,16.53-9.56,16.53-21.36,16.53Z"/><ellipse class="cls-1" cx="117.15" cy="29.67" rx="8.5" ry="6.51"/><path class="cls-1" d="M178.95,146.77s-.54-27.82-3.48-32.58c-1.35-2.19-14.37-28.87-18.11-33.98s1.29-57.87,1.33-59.21"/><path class="cls-3" d="M184.02,144.57c-2.62.56-4.74,1.52-5.67,3.09-4.01,6.76-2.6,22.31-1.64,29.67"/><line class="cls-3" x1="118.19" y1="65.13" x2="118.17" y2="66.63"/><line class="cls-6" x1="118.14" y1="69.54" x2="117.53" y2="120.55"/><line class="cls-3" x1="117.51" y1="122.01" x2="117.5" y2="123.51"/><line class="cls-3" x1="210.51" y1="34.71" x2="210.49" y2="36.21"/><line class="cls-4" x1="210.45" y1="39.84" x2="210.38" y2="45.29"/><line class="cls-3" x1="210.36" y1="47.11" x2="210.34" y2="48.61"/><line class="cls-2" x1="119.52" y1="64.51" x2="119.52" y2="123.21"/><line class="cls-2" x1="117.27" y1="123.51" x2="121.77" y2="123.51"/><line class="cls-2" x1="117.54" y1="64.51" x2="122.04" y2="64.51"/><line class="cls-2" x1="47.74" y1="96.01" x2="115.62" y2="96.01"/><line class="cls-2" x1="115.96" y1="98.26" x2="115.96" y2="93.76"/><line class="cls-2" x1="47.74" y1="97.98" x2="47.74" y2="93.48"/></svg>